<svg width="67" height="67" viewBox="0 0 67 67" fill="none" xmlns="http://www.w3.org/2000/svg">
<path d="M30.8197 12.7482C32.9048 12.4326 35.0636 12.3923 37.1666 12.6152C41.7641 5.55219 51.4831 1.40685 56.0823 2.5571C60.7127 3.70265 58.0729 24.5405 58.0729 24.5405C60.351 27.602 62.2404 31.0408 62.8057 34.7754C64.9068 48.6559 53.825 60.2023 38.3573 62.5437C22.8896 64.8851 8.93403 57.447 6.78581 43.2552C6.19693 39.365 7.21127 35.5504 8.27743 32.0781C8.27743 32.0781 -0.62913 12.9881 3.42361 10.5281C7.47636 8.06823 18.2216 9.02035 24.7036 14.4062C26.6742 13.6276 28.7256 13.0714 30.8197 12.7482Z" stroke="#825CFF" stroke-width="4.733" stroke-linecap="round" stroke-linejoin="round"/>
<path d="M22.6103 42.6434L22.8459 44.1995" stroke="#825CFF" stroke-width="4.733" stroke-linecap="round" stroke-linejoin="round"/>
<path d="M47.5084 38.8745L47.744 40.4306" stroke="#825CFF" stroke-width="4.733" stroke-linecap="round" stroke-linejoin="round"/>
<path d="M33.7855 48.116L38.4538 47.4093L36.473 50.0968L33.7855 48.116Z" stroke="#825CFF" stroke-width="4.733" stroke-linecap="round" stroke-linejoin="round"/>
</svg>
