<svg width="43" height="35" viewBox="0 0 43 35" fill="none" xmlns="http://www.w3.org/2000/svg">
<path d="M27.6316 3.36983C26.5744 3.36983 25.3953 4.42046 25.3953 6.13463C25.3953 7.84881 26.5744 8.89944 27.6316 8.89944C28.6887 8.89944 29.8678 7.84881 29.8678 6.13463C29.8678 4.42046 28.6887 3.36983 27.6316 3.36983ZM22.9558 6.13463C22.9558 3.48674 24.8716 1 27.6316 1C30.3915 1 32.3073 3.48674 32.3073 6.13463C32.3073 8.78252 30.3931 11.2693 27.6316 11.2693C24.87 11.2693 22.9558 8.78252 22.9558 6.13463ZM5.67577 8.89944C4.61864 8.89944 3.43953 9.95006 3.43953 11.6642C3.43953 13.3784 4.61864 14.429 5.67577 14.429C6.7329 14.429 7.91201 13.3784 7.91201 11.6642C7.91201 9.95006 6.7329 8.89944 5.67577 8.89944ZM1 11.6642C1 9.01635 2.91585 6.52961 5.67577 6.52961C8.43569 6.52961 10.3515 9.01635 10.3515 11.6642C10.3515 14.3121 8.43569 16.7989 5.67577 16.7989C2.91585 16.7989 1 14.3121 1 11.6642ZM21.736 16.0089C20.2913 16.0089 18.862 16.2966 17.5362 16.8541C16.2104 17.4116 15.0163 18.2273 14.0276 19.2506C13.039 20.2739 12.2767 21.4832 11.788 22.8039C11.2992 24.1245 11.0943 25.5285 11.1859 26.9291C11.2851 28.4853 12.1682 29.6686 13.5668 30.506C14.9948 31.3591 16.909 31.8078 18.82 31.8078H24.6504C26.563 31.8078 28.4773 31.3575 29.9036 30.5044C31.3039 29.6671 32.187 28.4853 32.2862 26.9291C32.3778 25.5285 32.1728 24.1245 31.6841 22.8039C31.1953 21.4832 30.433 20.2739 29.4444 19.2506C28.4557 18.2273 27.2617 17.4116 25.9359 16.8541C24.6101 16.2966 23.1807 16.0089 21.736 16.0089ZM8.72518 26.2782C8.72525 24.5848 9.07561 22.9086 9.75548 21.3493C10.4353 19.79 11.4308 18.3793 12.6829 17.201C13.9349 16.0227 15.4179 15.1008 17.0438 14.4901C18.6697 13.8794 20.4053 13.5923 22.1477 13.6459C23.89 13.6995 25.6035 14.0926 27.1864 14.802C28.7693 15.5114 30.1893 16.5226 31.3621 17.7754C32.5349 19.0283 33.4365 20.4974 34.0135 22.0953C34.5905 23.6933 34.831 25.3876 34.7208 27.0776C34.5614 29.5644 33.101 31.3765 31.1835 32.5235C29.2904 33.6547 26.9078 34.1776 24.6504 34.1776H18.8216C16.5626 34.1776 14.1816 33.6547 12.2885 32.5235C10.3694 31.3765 8.91059 29.5644 8.7512 27.0776C8.73385 26.8115 8.72517 26.5449 8.72518 26.2782ZM35.56 11.6642C35.56 9.95006 36.7391 8.89944 37.7963 8.89944C38.8534 8.89944 40.0325 9.95006 40.0325 11.6642C40.0325 13.3784 38.8534 14.429 37.7963 14.429C36.7391 14.429 35.56 13.3784 35.56 11.6642ZM37.7963 6.52961C35.0347 6.52961 33.1205 9.01635 33.1205 11.6642C33.1205 14.3121 35.0347 16.7989 37.7963 16.7989C40.5578 16.7989 42.472 14.3121 42.472 11.6642C42.472 9.01635 40.5578 6.52961 37.7963 6.52961ZM13.6042 6.13463C13.6042 4.42046 14.7834 3.36983 15.8405 3.36983C16.8976 3.36983 18.0767 4.42046 18.0767 6.13463C18.0767 7.84881 16.8976 8.89944 15.8405 8.89944C14.7834 8.89944 13.6042 7.84881 13.6042 6.13463ZM15.8405 1C13.0806 1 11.1647 3.48674 11.1647 6.13463C11.1647 8.78252 13.0806 11.2693 15.8405 11.2693C18.6004 11.2693 20.5163 8.78252 20.5163 6.13463C20.5163 3.48674 18.6004 1 15.8405 1Z" fill="#5054DB" stroke="#5054DB"/>
</svg>
