<svg width="38" height="38" viewBox="0 0 38 38" fill="none" xmlns="http://www.w3.org/2000/svg">
<path d="M3.66831 26.1269C3.91567 26.7508 3.97074 27.4346 3.82644 28.0901L2.03481 33.6248C1.97708 33.9055 1.99201 34.1963 2.07817 34.4696C2.16434 34.7429 2.31888 34.9896 2.52716 35.1864C2.73543 35.3832 2.99053 35.5236 3.26826 35.5942C3.54599 35.6648 3.83715 35.6632 4.11412 35.5897L9.85576 33.9108C10.4744 33.7881 11.115 33.8417 11.7046 34.0656C15.2969 35.7432 19.3664 36.0981 23.1949 35.0677C27.0234 34.0374 30.365 31.6879 32.6301 28.4339C34.8951 25.1799 35.9382 21.2304 35.5751 17.2823C35.212 13.3342 33.4662 9.64122 30.6456 6.8549C27.825 4.06857 24.111 2.36797 20.1587 2.05314C16.2065 1.73832 12.2701 2.8295 9.04396 5.13416C5.81785 7.43882 3.50939 10.8089 2.52586 14.6497C1.54233 18.4905 1.94694 22.5553 3.66831 26.1269Z" stroke="#5054DB" stroke-width="3.36458" stroke-linecap="round" stroke-linejoin="round"/>
</svg>
