<svg width="90" height="91" viewBox="0 0 90 91" fill="none" xmlns="http://www.w3.org/2000/svg">
<path d="M42.3027 60.0146L47.1777 60.6639L44.4156 62.7767L42.3027 60.0146Z" stroke="#825CFF" stroke-width="4.733" stroke-linecap="round" stroke-linejoin="round"/>
<path d="M58.7144 54.7587L58.498 56.3836" stroke="#825CFF" stroke-width="4.733" stroke-linecap="round" stroke-linejoin="round"/>
<path d="M22.2709 40.7996C20.8935 44.1907 19.9535 47.7433 19.4736 51.3718C17.6677 64.9306 28.3256 73.8649 42.6838 75.7773C57.0421 77.6896 69.6668 71.8562 71.4726 58.2974C71.9416 54.6524 71.8843 50.9588 71.3027 47.33" stroke="#825CFF" stroke-width="4.733" stroke-linecap="round" stroke-linejoin="round"/>
<path d="M32.7146 51.2961L32.4982 52.9211" stroke="#825CFF" stroke-width="4.733" stroke-linecap="round" stroke-linejoin="round"/>
<path d="M36.7203 33.6376C35.0179 36.8838 32.3228 39.7597 28.0204 40.7478C21.4322 42.2584 16.5271 38.2347 16.5714 35.9154C16.6344 32.636 23.2231 15.2027 32.6011 14.8972C38.9897 14.6863 44.1009 19.2237 43.4992 23.7412C47.7488 23.2447 52.0543 23.866 55.9901 25.5437C56.5917 21.0263 63.1075 17.8985 69.2182 19.7741C78.1893 22.5235 79.9855 41.0736 79.188 44.2551C78.6237 46.5052 72.8365 49.1048 66.8734 45.9225C62.9795 43.8427 61.4724 40.4072 60.6789 36.8285" stroke="#825CFF" stroke-width="4.733" stroke-linecap="round" stroke-linejoin="round"/>
</svg>
