<svg width="46" height="37" viewBox="0 0 46 37" fill="none" xmlns="http://www.w3.org/2000/svg">
<rect x="11.5" y="16.5" width="22" height="17" rx="4" fill="#5054DB"/>
<ellipse cx="6" cy="12" rx="2.5" ry="3.5" fill="#5054DB"/>
<ellipse cx="17" cy="6" rx="2.5" ry="3.5" fill="#5054DB"/>
<ellipse cx="29" cy="6" rx="2.5" ry="3.5" fill="#5054DB"/>
<ellipse cx="40" cy="12" rx="2.5" ry="3.5" fill="#5054DB"/>
<path d="M28.9896 3.00525C27.8587 3.00525 26.5973 4.11592 26.5973 5.92804C26.5973 7.74017 27.8587 8.85084 28.9896 8.85084C30.1205 8.85084 31.3818 7.74017 31.3818 5.92804C31.3818 4.11592 30.1205 3.00525 28.9896 3.00525ZM23.9876 5.92804C23.9876 3.12884 26.0371 0.5 28.9896 0.5C31.9421 0.5 33.9915 3.12884 33.9915 5.92804C33.9915 8.72724 31.9438 11.3561 28.9896 11.3561C26.0353 11.3561 23.9876 8.72724 23.9876 5.92804ZM5.50199 8.85084C4.3711 8.85084 3.10973 9.96149 3.10973 11.7736C3.10973 13.5857 4.3711 14.6964 5.50199 14.6964C6.63287 14.6964 7.89424 13.5857 7.89424 11.7736C7.89424 9.96149 6.63287 8.85084 5.50199 8.85084ZM0.5 11.7736C0.5 8.97443 2.54951 6.34559 5.50199 6.34559C8.45446 6.34559 10.5039 8.97443 10.5039 11.7736C10.5039 14.5728 8.45446 17.2017 5.50199 17.2017C2.54951 17.2017 0.5 14.5728 0.5 11.7736ZM22.6827 16.3666C21.1372 16.3666 19.6082 16.6707 18.1899 17.26C16.7716 17.8494 15.4942 18.7117 14.4365 19.7935C13.3789 20.8753 12.5634 22.1537 12.0407 23.5498C11.5177 24.9459 11.2986 26.4301 11.3965 27.9108C11.5027 29.5559 12.4474 30.8068 13.9436 31.6921C15.4712 32.5939 17.5189 33.0682 19.5633 33.0682H25.8004C27.8465 33.0682 29.8943 32.5922 31.4201 31.6904C32.9181 30.8052 33.8628 29.5559 33.969 27.9108C34.067 26.4301 33.8476 24.9459 33.3249 23.5498C32.8019 22.1537 31.9865 20.8753 30.9289 19.7935C29.8712 18.7117 28.5939 17.8494 27.1756 17.26C25.7573 16.6707 24.2282 16.3666 22.6827 16.3666ZM8.76415 27.2227C8.76422 25.4325 9.13902 23.6605 9.86633 22.0121C10.5936 20.3637 11.6585 18.8724 12.998 17.6268C14.3373 16.3811 15.9238 15.4066 17.6631 14.761C19.4025 14.1154 21.2592 13.8119 23.1231 13.8685C24.987 13.9252 26.82 14.3407 28.5134 15.0907C30.2067 15.8406 31.7258 16.9096 32.9804 18.234C34.235 19.5585 35.1995 21.1115 35.8168 22.8007C36.434 24.4901 36.6913 26.2812 36.5734 28.0677C36.4029 30.6967 34.8406 32.6123 32.7893 33.8248C30.7642 35.0207 28.2153 35.5735 25.8004 35.5735H19.565C17.1484 35.5735 14.6012 35.0207 12.5761 33.8248C10.5231 32.6123 8.96249 30.6967 8.79198 28.0677C8.77342 27.7864 8.76414 27.5046 8.76415 27.2227ZM37.4712 11.7736C37.4712 9.96149 38.7325 8.85084 39.8635 8.85084C40.9943 8.85084 42.2557 9.96149 42.2557 11.7736C42.2557 13.5857 40.9943 14.6964 39.8635 14.6964C38.7325 14.6964 37.4712 13.5857 37.4712 11.7736ZM39.8635 6.34559C36.9092 6.34559 34.8615 8.97443 34.8615 11.7736C34.8615 14.5728 36.9092 17.2017 39.8635 17.2017C42.8176 17.2017 44.8654 14.5728 44.8654 11.7736C44.8654 8.97443 42.8176 6.34559 39.8635 6.34559ZM13.9836 5.92804C13.9836 4.11592 15.245 3.00525 16.3759 3.00525C17.5067 3.00525 18.7681 4.11592 18.7681 5.92804C18.7681 7.74017 17.5067 8.85084 16.3759 8.85084C15.245 8.85084 13.9836 7.74017 13.9836 5.92804ZM16.3759 0.5C13.4234 0.5 11.3739 3.12884 11.3739 5.92804C11.3739 8.72724 13.4234 11.3561 16.3759 11.3561C19.3283 11.3561 21.3779 8.72724 21.3779 5.92804C21.3779 3.12884 19.3283 0.5 16.3759 0.5Z" fill="#5054DB" stroke="#5054DB"/>
</svg>
