<svg width="56" height="71" viewBox="0 0 56 71" fill="none" xmlns="http://www.w3.org/2000/svg">
<path d="M6.78091 1.5H48.4481C49.9237 1.50006 51.1113 1.98789 52.1753 3.04798C53.2393 4.10811 53.7288 5.29141 53.729 6.76155V68.5721L28.8166 57.9361L27.6144 57.4214L26.4124 57.9361L1.5 68.5721V6.76155C1.50014 5.29141 1.98964 4.10811 3.05367 3.04798C4.11771 1.98784 5.30536 1.50014 6.78091 1.5ZM3.72918 65.1395L7.98691 63.3164L27.6144 54.9075L47.2421 63.3164L51.4999 65.1395V3.72101H3.72918V65.1395Z" stroke="#FCB43E" stroke-width="3"/>
<rect x="4.5" y="4.5" width="47" height="54" fill="#FCB43E"/>
<rect x="1.5" y="52.5" width="14" height="11" fill="#FCB43E"/>
<rect x="39.5" y="52.5" width="14" height="11" fill="#FCB43E"/>
</svg>
