<svg width="26" height="23" viewBox="0 0 26 23" fill="none" xmlns="http://www.w3.org/2000/svg">
<path d="M12.9277 22.8578L11.1598 21.2727C9.10729 19.4235 7.41045 17.8282 6.06924 16.487C4.72802 15.1458 3.66115 13.9418 2.86861 12.8749C2.07608 11.808 1.52232 10.8275 1.20734 9.93335C0.892354 9.03921 0.734863 8.12474 0.734863 7.18996C0.734863 5.27974 1.37499 3.68451 2.65524 2.40426C3.93549 1.12401 5.53072 0.483887 7.44093 0.483887C8.49765 0.483887 9.50356 0.707422 10.4587 1.15449C11.4138 1.60157 12.2368 2.23153 12.9277 3.04439C13.6186 2.23153 14.4417 1.60157 15.3968 1.15449C16.3519 0.707422 17.3578 0.483887 18.4145 0.483887C20.3247 0.483887 21.9199 1.12401 23.2002 2.40426C24.4804 3.68451 25.1206 5.27974 25.1206 7.18996C25.1206 8.12474 24.9631 9.03921 24.6481 9.93335C24.3331 10.8275 23.7794 11.808 22.9868 12.8749C22.1943 13.9418 21.1274 15.1458 19.7862 16.487C18.445 17.8282 16.7481 19.4235 14.6957 21.2727L12.9277 22.8578ZM12.9277 19.5657C14.8786 17.8181 16.484 16.3194 17.7439 15.0696C19.0038 13.8198 19.9996 12.7326 20.7311 11.808C21.4627 10.8834 21.9707 10.0604 22.2552 9.33895C22.5397 8.61754 22.682 7.90121 22.682 7.18996C22.682 5.97067 22.2756 4.9546 21.4627 4.14174C20.6499 3.32889 19.6338 2.92246 18.4145 2.92246C17.4594 2.92246 16.5754 3.19172 15.7626 3.73023C14.9497 4.26875 14.3909 4.9546 14.086 5.78778H11.7694C11.4646 4.9546 10.9057 4.26875 10.0929 3.73023C9.28002 3.19172 8.39604 2.92246 7.44093 2.92246C6.22165 2.92246 5.20558 3.32889 4.39272 4.14174C3.57986 4.9546 3.17343 5.97067 3.17343 7.18996C3.17343 7.90121 3.31568 8.61754 3.60018 9.33895C3.88468 10.0604 4.39272 10.8834 5.12429 11.808C5.85586 12.7326 6.85161 13.8198 8.11154 15.0696C9.37147 16.3194 10.9769 17.8181 12.9277 19.5657Z" fill="white"/>
<rect y="7.62939" width="10.8653" height="19.7032" rx="4.5" transform="rotate(-44.6037 0 7.62939)" fill="white"/>
<rect width="10.7545" height="19.7032" rx="4.5" transform="matrix(-0.711981 -0.702198 -0.702198 0.711981 25.8828 7.6958)" fill="white"/>
</svg>
