<svg width="25" height="23" viewBox="0 0 25 23" fill="none" xmlns="http://www.w3.org/2000/svg">
<mask id="path-1-inside-1_878_195" fill="white">
<path d="M12.6313 22.6039L10.8634 21.0188C8.8109 19.1695 7.11406 17.5743 5.77285 16.2331C4.43164 14.8919 3.36476 13.6878 2.57223 12.621C1.77969 11.5541 1.22593 10.5736 0.91095 9.67944C0.595968 8.7853 0.438477 7.87084 0.438477 6.93605C0.438477 5.02584 1.0786 3.43061 2.35885 2.15036C3.6391 0.870105 5.23433 0.22998 7.14455 0.22998C8.20126 0.22998 9.20717 0.453516 10.1623 0.900588C11.1174 1.34766 11.9404 1.97762 12.6313 2.79048C13.3223 1.97762 14.1453 1.34766 15.1004 0.900588C16.0555 0.453516 17.0614 0.22998 18.1181 0.22998C20.0283 0.22998 21.6236 0.870105 22.9038 2.15036C24.1841 3.43061 24.8242 5.02584 24.8242 6.93605C24.8242 7.87084 24.6667 8.7853 24.3517 9.67944C24.0367 10.5736 23.483 11.5541 22.6904 12.621C21.8979 13.6878 20.831 14.8919 19.4898 16.2331C18.1486 17.5743 16.4518 19.1695 14.3993 21.0188L12.6313 22.6039ZM12.6313 19.3118C14.5822 17.5642 16.1876 16.0655 17.4475 14.8157C18.7074 13.5659 19.7032 12.4787 20.4348 11.5541C21.1663 10.6295 21.6744 9.80645 21.9589 9.08504C22.2434 8.36363 22.3856 7.6473 22.3856 6.93605C22.3856 5.71677 21.9792 4.70069 21.1663 3.88784C20.3535 3.07498 19.3374 2.66855 18.1181 2.66855C17.163 2.66855 16.279 2.93781 15.4662 3.47633C14.6533 4.01485 14.0945 4.70069 13.7897 5.53387H11.473C11.1682 4.70069 10.6093 4.01485 9.79649 3.47633C8.98364 2.93781 8.09965 2.66855 7.14455 2.66855C5.92526 2.66855 4.90919 3.07498 4.09633 3.88784C3.28348 4.70069 2.87705 5.71677 2.87705 6.93605C2.87705 7.6473 3.0193 8.36363 3.3038 9.08504C3.5883 9.80645 4.09633 10.6295 4.8279 11.5541C5.55948 12.4787 6.55523 13.5659 7.81515 14.8157C9.07508 16.0655 10.6805 17.5642 12.6313 19.3118Z"/>
</mask>
<path d="M12.6313 22.6039L10.6287 24.8376L12.6313 26.633L14.634 24.8376L12.6313 22.6039ZM10.8634 21.0188L8.85525 23.2476L8.86073 23.2525L10.8634 21.0188ZM12.6313 2.79048L10.3455 4.73343L12.6313 7.42262L14.9171 4.73343L12.6313 2.79048ZM14.3993 21.0188L16.4019 23.2525L16.4074 23.2476L14.3993 21.0188ZM12.6313 19.3118L10.6296 21.5463L12.6313 23.3395L14.6331 21.5463L12.6313 19.3118ZM13.7897 5.53387V8.53387H15.8866L16.607 6.56462L13.7897 5.53387ZM11.473 5.53387L8.65564 6.56462L9.3761 8.53387H11.473V5.53387ZM12.6313 22.6039L14.634 20.3702L12.866 18.7851L10.8634 21.0188L8.86073 23.2525L10.6287 24.8376L12.6313 22.6039ZM10.8634 21.0188L12.8715 18.79C10.842 16.9614 9.18618 15.4038 7.89417 14.1118L5.77285 16.2331L3.65153 18.3544C5.04195 19.7448 6.77984 21.3777 8.85525 23.2476L10.8634 21.0188ZM5.77285 16.2331L7.89417 14.1118C6.61674 12.8344 5.65744 11.7433 4.98046 10.832L2.57223 12.621L0.163995 14.4099C1.07209 15.6324 2.24653 16.9494 3.65153 18.3544L5.77285 16.2331ZM2.57223 12.621L4.98046 10.832C4.30114 9.91753 3.9244 9.20465 3.74051 8.68266L0.91095 9.67944L-1.91861 10.6762C-1.47253 11.9425 -0.741761 13.1907 0.163995 14.4099L2.57223 12.621ZM0.91095 9.67944L3.74051 8.68266C3.53671 8.10413 3.43848 7.52647 3.43848 6.93605H0.438477H-2.56152C-2.56152 8.2152 -2.34478 9.46647 -1.91861 10.6762L0.91095 9.67944ZM0.438477 6.93605H3.43848C3.43848 5.77281 3.79604 4.9558 4.48017 4.27168L2.35885 2.15036L0.237531 0.0290348C-1.63884 1.90541 -2.56152 4.27887 -2.56152 6.93605H0.438477ZM2.35885 2.15036L4.48017 4.27168C5.1643 3.58755 5.9813 3.22998 7.14455 3.22998V0.22998V-2.77002C4.48736 -2.77002 2.1139 -1.84734 0.237531 0.0290348L2.35885 2.15036ZM7.14455 0.22998V3.22998C7.76264 3.22998 8.33429 3.35732 8.89046 3.61766L10.1623 0.900588L11.4341 -1.81648C10.0801 -2.45029 8.63988 -2.77002 7.14455 -2.77002V0.22998ZM10.1623 0.900588L8.89046 3.61766C9.45132 3.88019 9.92983 4.24439 10.3455 4.73343L12.6313 2.79048L14.9171 0.847535C13.951 -0.289141 12.7834 -1.18487 11.4341 -1.81648L10.1623 0.900588ZM12.6313 2.79048L14.9171 4.73343C15.3328 4.24439 15.8113 3.88019 16.3722 3.61766L15.1004 0.900588L13.8286 -1.81648C12.4792 -1.18487 11.3117 -0.289142 10.3455 0.847535L12.6313 2.79048ZM15.1004 0.900588L16.3722 3.61766C16.9284 3.35732 17.5 3.22998 18.1181 3.22998V0.22998V-2.77002C16.6228 -2.77002 15.1826 -2.45029 13.8286 -1.81648L15.1004 0.900588ZM18.1181 0.22998V3.22998C19.2814 3.22998 20.0984 3.58755 20.7825 4.27168L22.9038 2.15036L25.0251 0.0290348C23.1488 -1.84734 20.7753 -2.77002 18.1181 -2.77002V0.22998ZM22.9038 2.15036L20.7825 4.27168C21.4666 4.9558 21.8242 5.77281 21.8242 6.93605H24.8242H27.8242C27.8242 4.27887 26.9015 1.90541 25.0251 0.0290348L22.9038 2.15036ZM24.8242 6.93605H21.8242C21.8242 7.52648 21.726 8.10414 21.5222 8.68266L24.3517 9.67944L27.1813 10.6762C27.6074 9.46646 27.8242 8.2152 27.8242 6.93605H24.8242ZM24.3517 9.67944L21.5222 8.68266C21.3383 9.20465 20.9615 9.91753 20.2822 10.832L22.6904 12.621L25.0987 14.4099C26.0044 13.1907 26.7352 11.9425 27.1813 10.6762L24.3517 9.67944ZM22.6904 12.621L20.2822 10.832C19.6052 11.7433 18.6459 12.8344 17.3685 14.1118L19.4898 16.2331L21.6111 18.3544C23.0161 16.9494 24.1906 15.6324 25.0987 14.4099L22.6904 12.621ZM19.4898 16.2331L17.3685 14.1118C16.0765 15.4038 14.4207 16.9614 12.3912 18.79L14.3993 21.0188L16.4074 23.2476C18.4828 21.3777 20.2207 19.7448 21.6111 18.3544L19.4898 16.2331ZM14.3993 21.0188L12.3967 18.7851L10.6287 20.3702L12.6313 22.6039L14.634 24.8376L16.4019 23.2525L14.3993 21.0188ZM12.6313 19.3118L14.6331 21.5463C16.6058 19.779 18.2516 18.2436 19.5602 16.9456L17.4475 14.8157L15.3348 12.6858C14.1235 13.8873 12.5585 15.3493 10.6296 17.0773L12.6313 19.3118ZM17.4475 14.8157L19.5602 16.9456C20.8675 15.6489 21.9542 14.4686 22.7874 13.4155L20.4348 11.5541L18.0821 9.69265C17.4522 10.4888 16.5474 11.483 15.3348 12.6858L17.4475 14.8157ZM20.4348 11.5541L22.7874 13.4155C23.6171 12.367 24.3166 11.2838 24.7497 10.1856L21.9589 9.08504L19.168 7.98444C19.0321 8.32914 18.7156 8.89198 18.0821 9.69265L20.4348 11.5541ZM21.9589 9.08504L24.7497 10.1856C25.1599 9.14553 25.3856 8.05676 25.3856 6.93605H22.3856H19.3856C19.3856 7.23784 19.3269 7.58173 19.168 7.98444L21.9589 9.08504ZM22.3856 6.93605H25.3856C25.3856 4.97468 24.6999 3.17876 23.2877 1.76652L21.1663 3.88784L19.045 6.00916C19.2585 6.22263 19.3856 6.45885 19.3856 6.93605H22.3856ZM21.1663 3.88784L23.2877 1.76652C21.8754 0.354273 20.0795 -0.331449 18.1181 -0.331449V2.66855V5.66855C18.5953 5.66855 18.8315 5.79569 19.045 6.00916L21.1663 3.88784ZM18.1181 2.66855V-0.331449C16.5607 -0.331449 15.1025 0.118602 13.8093 0.975378L15.4662 3.47633L17.123 5.97728C17.4555 5.75702 17.7653 5.66855 18.1181 5.66855V2.66855ZM15.4662 3.47633L13.8093 0.975378C12.5183 1.83065 11.519 3.00873 10.9723 4.50313L13.7897 5.53387L16.607 6.56462C16.6699 6.39265 16.7883 6.19904 17.123 5.97728L15.4662 3.47633ZM13.7897 5.53387V2.53387H11.473V5.53387V8.53387H13.7897V5.53387ZM11.473 5.53387L14.2904 4.50313C13.7436 3.00873 12.7444 1.83065 11.4534 0.975378L9.79649 3.47633L8.13961 5.97728C8.47435 6.19904 8.59273 6.39265 8.65564 6.56462L11.473 5.53387ZM9.79649 3.47633L11.4534 0.975378C10.1601 0.118602 8.70191 -0.331449 7.14455 -0.331449V2.66855V5.66855C7.49739 5.66855 7.80715 5.75702 8.13961 5.97728L9.79649 3.47633ZM7.14455 2.66855V-0.331449C5.18318 -0.331449 3.38726 0.354273 1.97501 1.76652L4.09633 3.88784L6.21765 6.00916C6.43112 5.79569 6.66735 5.66855 7.14455 5.66855V2.66855ZM4.09633 3.88784L1.97501 1.76652C0.562769 3.17876 -0.122952 4.97468 -0.122952 6.93605H2.87705H5.87705C5.87705 6.45885 6.00418 6.22263 6.21765 6.00916L4.09633 3.88784ZM2.87705 6.93605H-0.122952C-0.122952 8.05676 0.102792 9.14553 0.512979 10.1856L3.3038 9.08504L6.09462 7.98444C5.9358 7.58173 5.87705 7.23784 5.87705 6.93605H2.87705ZM3.3038 9.08504L0.512979 10.1856C0.946041 11.2838 1.64559 12.367 2.47524 13.4155L4.8279 11.5541L7.18057 9.69265C6.54707 8.89198 6.23055 8.32914 6.09462 7.98444L3.3038 9.08504ZM4.8279 11.5541L2.47524 13.4155C3.30845 14.4686 4.39519 15.6489 5.70244 16.9456L7.81515 14.8157L9.92787 12.6858C8.71526 11.483 7.8105 10.4888 7.18057 9.69265L4.8279 11.5541ZM7.81515 14.8157L5.70244 16.9456C7.01101 18.2436 8.65682 19.779 10.6296 21.5463L12.6313 19.3118L14.6331 17.0773C12.7041 15.3493 11.1392 13.8873 9.92787 12.6858L7.81515 14.8157Z" fill="white" mask="url(#path-1-inside-1_878_195)"/>
</svg>
