<svg width="23" height="23" viewBox="0 0 23 23" fill="none" xmlns="http://www.w3.org/2000/svg">
<path d="M21.1329 6.05306C21.688 5.49804 21.9999 4.74523 22 3.96023C22.0001 3.17523 21.6884 2.42234 21.1334 1.86718C20.5784 1.31203 19.8256 1.0001 19.0406 1C18.2555 0.999902 17.5027 1.31165 16.9475 1.86666L2.93405 15.8833C2.69026 16.1263 2.50997 16.4256 2.40905 16.7548L1.02198 21.3244C0.994844 21.4152 0.992795 21.5117 1.01605 21.6036C1.03931 21.6955 1.087 21.7793 1.15407 21.8463C1.22114 21.9132 1.30509 21.9608 1.397 21.9839C1.48892 22.007 1.58537 22.0048 1.67614 21.9775L6.24684 20.5915C6.57567 20.4915 6.87493 20.3123 7.11835 20.0697L21.1329 6.05306Z" stroke="#5054DB" stroke-width="2" stroke-linecap="round" stroke-linejoin="round"/>
<path d="M14.6504 4.15015L18.8504 8.35019" stroke="#5054DB" stroke-width="2" stroke-linecap="round" stroke-linejoin="round"/>
</svg>
