<svg width="113" height="36" viewBox="0 0 113 36" fill="none" xmlns="http://www.w3.org/2000/svg">
<path d="M0 35.1778V0.32959H13.3561C23.6788 0.32959 29.722 5.24408 29.722 13.333C29.722 21.4219 23.9845 26.6421 13.8734 26.6421H9.54678V35.1073L0 35.1543L0 35.1778ZM9.54678 9.12394V17.8948H13.6147C17.8943 17.8948 19.9165 16.2958 19.9165 13.3565C19.9165 10.6289 17.7532 9.12394 13.6147 9.12394H9.54678Z" fill="#FCB43E"/>
<path d="M27.8882 21.9866C27.8882 14.5561 33.4611 8.37183 41.6205 8.37183C49.7799 8.37183 54.7885 14.6737 54.7885 21.5869V23.9148H36.8236C37.435 26.5014 39.4102 28.0533 42.2554 28.0533C44.7244 28.0533 46.6996 26.713 47.6166 24.6908L54.7414 28.2414C52.5311 33.0383 48.1339 35.9306 42.3494 35.9306C34.0959 35.9306 27.8882 30.4518 27.8882 21.9866ZM45.5239 19.0944C45.1006 17.66 43.6662 16.3197 41.5029 16.3197C39.3396 16.3197 37.7877 17.613 37.2233 19.0944H45.5239Z" fill="#FCB43E"/>
<path d="M57.611 24.1959V17.1181H53.2139V9.38189H57.611V2.93896H66.8991V9.38189H75.3643V17.1181H66.8991V23.8667C66.8991 26.3357 68.4041 27.7466 70.826 27.7466C72.1193 27.7466 74.118 27.3939 75.3643 26.7119V34.9184C74.071 35.6474 71.696 36.0001 69.956 36.0001C61.5379 36.0001 57.611 31.0386 57.611 24.1724V24.1959Z" fill="#FCB43E"/>
<path d="M80.7715 17.8474C80.7715 7.8773 88.6252 0 98.3601 0C104.286 0 109.717 3.05686 112.351 8.11244L108.071 10.5814C106.049 7.12484 102.593 5.00855 98.172 5.00855C91.4705 5.00855 86.2033 10.5814 86.2033 17.8474C86.2033 25.1133 91.4234 30.8508 98.172 30.8508C102.616 30.8508 106.12 28.7345 108.071 25.2779L112.351 27.7469C109.717 32.8025 104.309 35.7888 98.3601 35.7888C88.6017 35.7888 80.7715 27.888 80.7715 17.8239V17.8474Z" fill="#5054DB"/>
</svg>
