<svg width="1263" height="1146" viewBox="0 0 1263 1146" fill="none" xmlns="http://www.w3.org/2000/svg">
<path d="M-53.9996 11.9481C-25.9996 -72.5518 314 322.448 617.5 218.948C921 115.448 1149.15 389.948 1308.83 251.948C1439.58 138.942 1356.19 644.91 1321.69 831.895C1314.45 871.131 1280.16 899.004 1240.26 899.004H61.2987C17.6199 899.004 -18.7232 865.626 -22.084 822.076C-37.7427 619.174 -76.6632 80.3436 -53.9996 11.9481Z" fill="#A078FF"/>
<path d="M-16 600.484C-16 535.745 19.2224 483.264 62.6713 483.264C106.12 483.264 141.343 535.745 141.343 600.484V1028.73C141.343 1093.47 106.12 1145.95 62.6713 1145.95C19.2224 1145.95 -16 1093.47 -16 1028.73V600.484Z" fill="#A078FF"/>
<path d="M138.195 599.702C138.195 535.395 173.183 483.264 216.342 483.264C259.501 483.264 294.489 535.395 294.489 599.702V1029.51C294.489 1093.82 259.501 1145.95 216.342 1145.95C173.183 1145.95 138.195 1093.82 138.195 1029.51V599.702Z" fill="#A078FF"/>
<rect x="291.343" y="483.264" width="156.294" height="662.685" rx="78.1469" fill="#A078FF"/>
<rect x="444.489" y="483.264" width="157.343" height="662.685" rx="78.6713" fill="#A078FF"/>
<rect x="598.686" y="483.264" width="156.294" height="662.685" rx="78.1469" fill="#A078FF"/>
<rect x="753.93" y="483.264" width="156.294" height="662.685" rx="78.1469" fill="#A078FF"/>
<rect x="909.175" y="483.264" width="156.294" height="662.685" rx="78.1469" fill="#A078FF"/>
<rect x="1064.42" y="483.264" width="156.294" height="662.685" rx="78.1469" fill="#A078FF"/>
<rect x="1219.66" y="483.264" width="156.294" height="662.685" rx="78.1469" fill="#A078FF"/>
</svg>
