<svg width="1263" height="558" viewBox="0 0 1263 558" fill="none" xmlns="http://www.w3.org/2000/svg">
<rect x="1314" y="572" width="1367" height="414" rx="80" transform="rotate(-180 1314 572)" fill="#5054DB"/>
<path d="M1314 349C1314 390.421 1279.41 424 1236.74 424C1194.07 424 1159.48 390.421 1159.48 349L1159.48 75C1159.48 33.5786 1194.07 -1.04847e-05 1236.74 -6.75435e-06C1279.41 -3.02402e-06 1314 33.5786 1314 75L1314 349Z" fill="#5054DB"/>
<path d="M1162.57 349.5C1162.57 390.645 1128.21 424 1085.82 424C1043.44 424 1009.08 390.645 1009.08 349.5L1009.08 74.5C1009.08 33.3548 1043.44 -1.04148e-05 1085.82 -6.70932e-06C1128.21 -3.00386e-06 1162.57 33.3548 1162.57 74.5L1162.57 349.5Z" fill="#5054DB"/>
<rect x="1012.17" y="424" width="153.491" height="424" rx="76.7457" transform="rotate(-180 1012.17 424)" fill="#5054DB"/>
<rect x="861.767" y="424" width="154.521" height="424" rx="77.2607" transform="rotate(-180 861.767 424)" fill="#5054DB"/>
<rect x="710.336" y="424" width="153.491" height="424" rx="76.7457" transform="rotate(-180 710.336 424)" fill="#5054DB"/>
<rect x="557.875" y="424" width="153.491" height="424" rx="76.7457" transform="rotate(-180 557.875 424)" fill="#5054DB"/>
<rect x="405.414" y="424" width="153.491" height="424" rx="76.7457" transform="rotate(-180 405.414 424)" fill="#5054DB"/>
<rect x="252.953" y="424" width="153.491" height="424" rx="76.7457" transform="rotate(-180 252.953 424)" fill="#5054DB"/>
<rect x="100.491" y="424" width="153.491" height="424" rx="76.7457" transform="rotate(-180 100.491 424)" fill="#5054DB"/>
</svg>
