<svg width="700" height="458" viewBox="0 0 700 458" fill="none" xmlns="http://www.w3.org/2000/svg">
<g filter="url(#filter0_d_518_1031)">
<path d="M639.133 254.611C639.133 254.611 636.172 262.931 625.791 267.724C625.791 267.724 637.152 272.817 640.605 279.976C640.605 279.976 624.726 289.652 611.262 292.497L611.213 292.515C605.293 307.26 593.42 319.256 578.039 325.118L542.215 338.769C527.467 344.39 511.477 343.68 497.658 337.405L497.61 337.423C485.666 344.261 466.966 349.603 466.966 349.603C464.778 341.961 469.869 330.599 469.869 330.599C458.931 333.93 451.202 329.739 451.202 329.739C454.695 318.427 463.041 311.511 463.041 311.511C446.815 313.401 442.338 308.528 442.338 308.528C444.056 298.116 457.641 291.489 457.641 291.489C438.343 249.331 445.821 212.638 447.442 205.775C447.548 205.177 448.218 205.033 448.666 205.476C458.225 214.323 483.677 219.678 483.677 219.678L484.646 218.417C485.96 216.745 487.341 215.103 488.845 213.638C490.834 211.542 493.012 209.653 495.314 207.939C498.234 205.656 501.4 203.724 504.677 202.085C508.101 200.39 511.703 199.018 515.404 198.053C519.349 196.996 523.443 196.328 527.606 196.136C530.385 195.969 533.19 196.015 536.039 196.323C537.643 196.437 539.302 196.696 540.914 196.974L544.02 197.519C544.02 197.519 562.982 176.187 564.21 163.174C564.268 162.594 564.931 162.286 565.408 162.661C571.788 167.701 603.307 194.386 607.915 230.321C607.915 230.321 623.421 226.252 631.651 232.929C631.651 232.929 631.504 239.564 618.166 248.885C618.166 248.885 628.949 248.511 639.133 254.611Z" fill="#FF69B4"/>
<path d="M575.766 243.965C564.895 246.156 558.915 249.773 553.043 258.646C549.219 245.83 565.677 236.213 575.766 243.965Z" fill="#1D1D1B"/>
<path d="M492.144 275.831C494.515 263.33 513.218 259.604 518.874 271.667C508.635 268.934 501.765 270.213 492.144 275.831Z" fill="#1D1D1B"/>
<path d="M547.559 276.292L544.969 282.075C544.457 283.218 543.778 283.922 543.018 284.268C542.355 284.576 541.629 284.574 540.908 284.291L534.32 281.338C533.11 280.795 532.597 279.596 532.829 278.449C532.845 278.052 533.026 277.649 533.341 277.306C533.371 277.239 533.45 277.153 533.547 277.116C533.656 276.963 533.832 276.84 533.978 276.784L534.076 276.747C535.51 275.977 537.868 276.752 539.864 275.991C541.47 275.379 542.696 273.183 544.657 272.771C545.734 272.527 546.761 273.028 547.339 273.812C547.83 274.516 547.969 275.467 547.578 276.341L547.559 276.292Z" fill="#1D1D1B" stroke="#1D1D1B" stroke-width="4.17659" stroke-miterlimit="10"/>
<path d="M573.886 267.263C576.634 262.48 581.833 258.715 587.479 258.905C583.586 262.731 579.182 265.803 573.886 267.263Z" fill="#1D1D1B"/>
<path d="M576.326 275.422C581.879 271.856 589.199 270.293 595.486 272.748C589.186 274.647 582.926 275.918 576.326 275.422Z" fill="#1D1D1B"/>
<path d="M511.436 291.061C506.462 293.514 501.18 294.133 495.728 293.869C499.834 290.018 506.251 289.302 511.436 291.061Z" fill="#1D1D1B"/>
<path d="M515.045 298.775C510.449 303.537 504.93 306.755 498.964 309.53C502.023 303.514 508.527 299.809 515.045 298.775Z" fill="#1D1D1B"/>
<path d="M546.342 282.165C551.397 293.676 564.37 297.876 575.543 291.945L580.279 289.305L576.023 292.766C564.185 302.073 547.77 298.347 539.576 285.914L546.391 282.146L546.342 282.165Z" fill="#1D1D1B"/>
<path d="M546.731 283.187C548.781 301.586 536.542 313.498 518.559 312.824L523.851 311.644C536.138 308.634 543.025 296.865 539.138 284.909L546.731 283.187Z" fill="#1D1D1B"/>
<path d="M554.224 200.601C561.439 193.056 567.269 184.367 569.107 173.686C572.088 184.872 565.714 196.668 557.818 204.472L554.224 200.601Z" fill="#1D1D1B"/>
<path d="M479.122 234.349C468.097 232.919 455.959 227.396 451.53 216.651C459.41 224.018 469.396 227.405 479.672 229.065L479.122 234.349Z" fill="#1D1D1B"/>
<path d="M212.985 315.1L219.545 336.848C221.667 343.881 217.697 351.283 210.666 353.404C203.634 355.525 196.233 351.553 194.112 344.52L187.551 322.772" fill="#AA2827"/>
<path d="M161.924 264.327C162.48 266.173 161.436 268.12 159.59 268.677C157.745 269.234 155.798 268.188 155.241 266.343C154.684 264.497 155.729 262.549 157.574 261.993C159.419 261.436 161.367 262.481 161.924 264.327Z" stroke="#1D1D1B" stroke-width="0.835317" stroke-miterlimit="10"/>
<path d="M210.255 248.877C210.812 250.723 209.767 252.67 207.922 253.227C206.077 253.784 204.13 252.738 203.573 250.893C203.016 249.047 204.061 247.099 205.906 246.543C207.751 245.986 209.699 247.031 210.255 248.877Z" stroke="#1D1D1B" stroke-width="0.835317" stroke-miterlimit="10"/>
<path d="M122.144 226.967C116.873 228.611 112.587 231.537 108.996 235.504C105.385 239.587 102.868 244.59 101.934 250.151C100.773 257.304 100.121 264.521 100.013 271.737C99.8393 285.231 101.462 298.728 105.04 311.852L105.567 313.598C109.193 325.62 116.086 336.384 125.588 344.619C128.611 347.245 132.369 347.798 135.71 346.79C139.401 345.677 142.504 342.618 143.191 338.221C144.875 327.754 144.145 317.035 141.09 306.909L147.47 328.059C149.02 333.197 151.811 337.58 155.404 341.013C162.909 348.218 174.01 351.291 184.732 348.057C192.761 345.635 199.084 340.081 202.61 333.194C203.078 332.4 203.466 331.521 203.804 330.658C204.563 331.19 205.372 331.708 206.201 332.111C212.948 335.899 221.287 337.03 229.315 334.608C240.037 331.374 247.587 322.675 249.856 312.521C250.951 307.674 250.853 302.479 249.303 297.341L242.758 275.642C245.813 285.768 251.131 295.103 258.323 302.892C261.327 306.176 265.604 307.009 269.294 305.895C272.636 304.888 275.46 302.348 276.527 298.489C279.891 286.373 279.681 273.593 276.054 261.571L275.528 259.826C271.252 246.912 265.14 234.769 257.534 223.622C253.453 217.669 248.919 212.017 243.996 206.699C240.143 202.583 235.279 199.805 230.013 198.4C224.762 197.046 219.074 197.129 213.688 198.753C209.755 194.552 205.174 191.091 200.161 188.358C188.151 181.913 173.719 180.063 159.656 184.305C139.459 190.397 125.591 207.37 122.493 226.861L122.144 226.967ZM159.59 268.677C157.745 269.233 155.797 268.188 155.241 266.342C154.684 264.497 155.729 262.549 157.574 261.992C159.419 261.436 161.366 262.481 161.923 264.327C162.48 266.172 161.435 268.12 159.59 268.677ZM207.922 253.226C206.077 253.783 204.129 252.738 203.573 250.892C203.016 249.047 204.061 247.099 205.906 246.542C207.751 245.986 209.698 247.031 210.255 248.876C210.812 250.722 209.767 252.67 207.922 253.226Z" fill="#FCB43E"/>
<path d="M203.505 330.748L190.495 294.293L194.784 292.999L204.054 330.583L203.505 330.748Z" fill="#1D1D1B"/>
<path d="M193.242 295.641C202.854 292.742 209.669 287.153 208.464 283.158C207.259 279.164 198.49 278.276 188.878 281.175C179.266 284.075 172.45 289.664 173.655 293.658C174.86 297.653 183.629 298.541 193.242 295.641Z" fill="#1D1D1B" stroke="#1D1D1B" stroke-width="0.835317" stroke-miterlimit="10"/>
<path d="M152.659 208.183C152.415 214.951 151.679 222.792 154.817 228.865L151.748 228.431L169.328 210.774L171.38 208.74C172.126 210.311 177.296 220.778 178.232 222.618L175.786 221.724C182.024 219.679 188.336 216.251 192.493 210.915C188.967 217.802 182.483 222.642 175.624 226.235C175.263 225.582 169.567 213.913 169.037 212.876L172.335 213.35L154.467 231.311L152.464 233.33C148.326 225.381 150.906 216.44 152.639 208.298L152.659 208.183Z" fill="#1D1D1B"/>
<path d="M210.843 260.563C214.12 259.575 215.39 254.173 213.678 248.498C211.966 242.823 207.921 239.023 204.644 240.012C201.366 241.001 200.097 246.403 201.809 252.078C203.521 257.753 207.565 261.552 210.843 260.563Z" fill="#1D1D1B"/>
<path d="M159.178 276.149C162.456 275.16 163.725 269.758 162.013 264.083C160.301 258.408 156.256 254.609 152.979 255.598C149.701 256.586 148.432 261.988 150.144 267.663C151.856 273.338 155.9 277.137 159.178 276.149Z" fill="#1D1D1B"/>
<path d="M213.879 199.022C221.132 210.984 229.551 224.825 232.686 238.464C228.343 224.427 220.31 212.048 213.879 199.022Z" fill="#1D1D1B"/>
<path d="M122.478 226.812C124.322 241.222 124.475 255.978 128.619 270.075C123.689 256.977 122.984 240.755 122.478 226.812Z" fill="#1D1D1B"/>
<path d="M408.069 256.239C399.139 262.434 388.346 266.241 376.639 266.626C364.075 267.053 351.59 266.009 339.379 263.585C327.168 261.161 315.18 257.347 303.782 252.163C302.178 251.419 300.634 250.635 299.1 249.799C291.218 245.366 284.764 239.357 279.891 232.334C298.749 180.144 347.372 192.824 347.372 192.824L348.547 193.058C349.612 194.65 351.32 196.211 351.32 196.211C351.668 196.599 352.261 197.088 352.568 197.149C352.823 197.2 353.905 196.83 354.416 196.666C354.416 196.666 356.601 195.825 358.071 194.842L358.735 194.974C358.735 194.974 410.628 200.813 408.069 256.239Z" fill="white"/>
<path d="M408.038 256.392C410.597 200.967 358.704 195.127 358.704 195.127L358.04 194.995C356.571 195.978 354.386 196.819 354.386 196.819C353.875 196.984 352.793 197.353 352.537 197.302C352.231 197.241 351.638 196.752 351.29 196.364C351.29 196.364 349.582 194.803 348.517 193.211L347.342 192.978C347.342 192.978 298.719 180.297 279.871 232.437C267.036 214.165 264.948 189.104 276.728 168.017L290.23 143.873C291.035 142.492 291.84 141.112 292.738 139.802C292.62 136.114 291.95 131.466 291.847 116.466C291.74 97.747 305.416 96 305.416 96C315.229 107.562 327.276 117.497 327.276 117.497C333.66 116.374 340.289 116.415 346.88 117.723L388.112 125.908C396.286 127.531 409.997 135.777 410.089 135.849C410.089 135.849 426.59 130.572 440.157 123.757C440.157 123.757 452.16 130.708 444.665 147.865C437.221 165.032 431.025 176.179 431.025 176.179L433.723 199.236C436.462 222.355 425.776 244.084 408.038 256.392Z" fill="#A078FF"/>
<path d="M359.294 193.491C359.203 193.95 358.693 194.38 358.07 194.841C356.601 195.824 354.416 196.665 354.416 196.665C353.905 196.83 352.823 197.199 352.567 197.148C352.261 197.087 351.668 196.598 351.32 196.21C351.32 196.21 349.612 194.649 348.547 193.057C347.974 192.199 347.574 191.27 347.859 190.636C348.073 190.36 348.318 190.196 348.655 190.104C348.716 190.063 348.778 190.022 348.88 190.042C348.992 190.011 349.156 189.991 349.268 189.96L349.37 189.98C350.637 190.019 352.109 190.896 353.744 191.22C355.072 191.484 356.513 191.185 357.943 191.735C358.741 192 359.436 192.775 359.294 193.491Z" fill="#1D1D1B" stroke="#1D1D1B" stroke-width="5.84722" stroke-miterlimit="10"/>
<path d="M337.199 223.737L348.315 209.743L347.561 211.134L350.229 197.693L355.338 198.707L352.67 212.148L352.477 213.119L351.865 213.529L337.199 223.737Z" fill="#1D1D1B"/>
<path d="M352.494 210.626L356.614 227.592L347.685 212.646L352.494 210.626Z" fill="#1D1D1B"/>
<path d="M377.294 185.75L400.132 190.284C398.884 196.57 392.761 200.666 386.476 199.418C380.192 198.171 376.097 192.046 377.345 185.76L377.294 185.75Z" fill="#1D1D1B" stroke="#1D1D1B" stroke-width="0.208829" stroke-miterlimit="10"/>
<path d="M312.05 172.798L334.888 177.332C333.64 183.617 327.517 187.714 321.232 186.466C314.948 185.219 310.853 179.094 312.101 172.808L312.05 172.798Z" fill="#1D1D1B" stroke="#1D1D1B" stroke-width="0.208829" stroke-miterlimit="10"/>
<path d="M427.998 166.547C427.998 166.547 422.443 153.599 416.656 142.624L433.973 135.915C433.973 135.915 439.711 141.251 424.733 154.904C424.733 154.904 426.014 157.548 427.998 166.547Z" fill="#1D1D1B"/>
<path d="M298.754 139.191C298.754 139.191 310.03 130.274 319.57 122.341L306.129 109.527C306.129 109.527 298.573 111.746 307.189 130.135C307.189 130.135 305.424 131.803 298.703 139.18L298.754 139.191Z" fill="#1D1D1B"/>
<path d="M382.632 219.053C376.598 214.137 370.232 212.767 362.55 212.676C369.389 208.722 379.588 211.649 382.632 219.053Z" fill="#1D1D1B"/>
<path d="M374.944 229.691C372.983 222.184 368.696 217.296 362.55 212.676C370.407 213.492 376.915 221.902 374.944 229.691Z" fill="#1D1D1B"/>
<path d="M317.234 206.07C322.875 200.391 333.42 201.581 338.23 207.848C331.095 204.997 324.739 203.842 317.234 206.07Z" fill="#1D1D1B"/>
<path d="M320.224 218.828C321.419 210.938 330.595 205.642 338.178 207.838C330.734 209.759 324.915 212.588 320.224 218.828Z" fill="#1D1D1B"/>
</g>
<defs>
<filter id="filter0_d_518_1031" x="0" y="0" width="740.605" height="457.975" filterUnits="userSpaceOnUse" color-interpolation-filters="sRGB">
<feFlood flood-opacity="0" result="BackgroundImageFix"/>
<feColorMatrix in="SourceAlpha" type="matrix" values="0 0 0 0 0 0 0 0 0 0 0 0 0 0 0 0 0 0 127 0" result="hardAlpha"/>
<feOffset dy="4"/>
<feGaussianBlur stdDeviation="50"/>
<feComposite in2="hardAlpha" operator="out"/>
<feColorMatrix type="matrix" values="0 0 0 0 0 0 0 0 0 0 0 0 0 0 0 0 0 0 0.25 0"/>
<feBlend mode="normal" in2="BackgroundImageFix" result="effect1_dropShadow_518_1031"/>
<feBlend mode="normal" in="SourceGraphic" in2="effect1_dropShadow_518_1031" result="shape"/>
</filter>
</defs>
</svg>
