<svg width="244" height="153" viewBox="0 0 244 153" fill="none" xmlns="http://www.w3.org/2000/svg">
<path d="M191.669 84.1546C191.669 84.1546 187.531 89.1061 179.293 89.6818C179.293 89.6818 185.651 96.1686 186.14 102.003C186.14 102.003 172.936 104.498 163.118 102.924H163.08C155.294 111.522 144.196 116.665 132.309 116.665H104.623C93.2252 116.665 82.6172 111.982 74.9057 104.037H74.8681C65.0501 105.611 51.0565 104.383 51.0565 104.383C51.5455 98.5483 57.9028 92.0616 57.9028 92.0616C49.6646 91.4858 45.5268 86.5728 45.5268 86.5728C50.7932 79.7022 58.2037 77.1305 58.2037 77.1305C46.7681 74.175 45.0001 69.6458 45.0001 69.6458C48.8371 62.9287 59.7084 61.9308 59.7084 61.9308C57.5266 27.8465 72.0092 4.54787 74.8681 0.248953C75.0938 -0.134879 75.5828 -0.0581129 75.7709 0.364102C79.9464 8.96194 95.7456 19.3254 95.7456 19.3254L96.7237 18.7113C98.0403 17.9052 99.3945 17.1376 100.786 16.5234C102.667 15.6022 104.623 14.873 106.617 14.2972C109.175 13.4912 111.808 12.9922 114.441 12.7235C117.187 12.4548 119.971 12.4548 122.717 12.7619C125.651 13.0689 128.585 13.6831 131.444 14.6427C133.363 15.2568 135.244 16.0244 137.087 16.984C138.14 17.483 139.193 18.0971 140.209 18.7113L142.165 19.9012C142.165 19.9012 160.447 10.1902 164.623 1.55398C164.811 1.17015 165.337 1.13177 165.563 1.5156C168.572 6.65895 182.98 33.2969 176.848 59.2439C176.848 59.2439 188.359 60.5106 192.196 67.266C192.196 67.266 190.39 71.7952 178.992 74.7124C178.992 74.7124 186.365 77.284 191.669 84.1546Z" fill="#5054DB"/>
<path d="M151.645 60.2032C143.745 58.8598 138.78 59.781 132.535 64.3486C133.25 54.5225 146.83 52.2195 151.645 60.2032Z" fill="#1D1D1B"/>
<path d="M87.0186 60.203C91.8335 52.2193 105.413 54.5607 106.128 64.3484C99.9212 59.7808 94.9558 58.8596 87.0186 60.203Z" fill="#1D1D1B"/>
<path d="M124.297 75.0581L121.062 78.3591C120.422 79.0116 119.783 79.3186 119.181 79.357C118.654 79.3954 118.165 79.2035 117.751 78.8197L114.065 75.0581C113.388 74.3672 113.35 73.4076 113.801 72.6784C113.914 72.4097 114.14 72.1794 114.441 72.0258C114.479 71.9875 114.554 71.9491 114.629 71.9491C114.742 71.8723 114.892 71.8339 115.005 71.8339H115.08C116.247 71.6804 117.638 72.8319 119.181 72.8319C120.422 72.8319 121.814 71.642 123.243 71.8723C124.033 71.9875 124.598 72.6016 124.786 73.2925C124.936 73.9066 124.786 74.5975 124.297 75.0965V75.0581Z" fill="#1D1D1B" stroke="#1D1D1B" stroke-width="3.74011" stroke-miterlimit="10"/>
<path d="M144.384 75.7483C147.469 73.1766 151.945 71.9483 155.707 73.5604C152.096 75.1725 148.334 76.1321 144.384 75.7483Z" fill="#1D1D1B"/>
<path d="M143.933 82.0056C148.598 81.0077 153.939 81.8521 157.55 85.1914C152.811 84.846 148.259 84.0783 143.933 82.0056Z" fill="#1D1D1B"/>
<path d="M96.1217 75.7479C92.1343 76.1317 88.4102 75.1721 84.799 73.56C88.5607 71.9863 93.0747 73.1762 96.1217 75.7479Z" fill="#1D1D1B"/>
<path d="M96.5731 82.0056C92.2471 84.0783 87.6954 84.846 82.9557 85.1914C86.5669 81.8521 91.9085 81.0077 96.5731 82.0056Z" fill="#1D1D1B"/>
<path d="M121.965 78.7808C122.416 88.0311 130.09 94.326 139.156 93.1745L143.03 92.5987L139.269 93.8654C128.886 97.1663 118.767 90.2957 116.435 79.5868L122.002 78.7808H121.965Z" fill="#1D1D1B"/>
<path d="M121.964 79.5868C118.617 92.7906 107.294 97.7804 95.3315 92.5987L99.2062 93.1745C108.272 94.326 115.946 88.0311 116.397 78.7808L121.964 79.5868Z" fill="#1D1D1B"/>
<path d="M148.259 24.6992C155.067 21.3982 161.237 16.9458 165.224 10.0752C164.359 18.5579 157.024 25.0063 149.688 28.3072L148.259 24.6992Z" fill="#1D1D1B"/>
<path d="M88.8989 28.23C81.8269 24.3533 75.0558 17.3676 74.8301 8.80811C78.2532 15.9474 84.1215 20.8988 90.6293 24.7371L88.8989 28.23Z" fill="#1D1D1B"/>
<path d="M96.4225 60.3209L90.2227 58.7256L82.8479 87.3861L89.0478 88.9814L96.4225 60.3209Z" fill="#1D1D1B" stroke="#1D1D1B" stroke-width="4.34061" stroke-miterlimit="10"/>
<path d="M17.9547 56.7024L11.778 58.3853L19.5571 86.9386L25.7339 85.2558L17.9547 56.7024Z" fill="#1D1D1B" stroke="#1D1D1B" stroke-width="4.34061" stroke-miterlimit="10"/>
<path d="M107.681 125.626V144.371C107.681 162.657 92.846 177.492 74.5605 177.492H33.1211C14.8356 177.492 0.000244141 162.657 0.000244141 144.371V125.626C0.000244141 120.412 0.728593 115.391 2.10863 110.675C6.13373 96.7217 15.679 85.0681 28.2143 78.2829L31.7027 76.8262C48.1481 88.8632 43.088 122.367 43.088 122.367C43.8547 121.984 44.6214 121.639 45.3497 121.332C45.4264 121.256 45.5414 121.217 45.6948 121.179C45.8864 121.064 46.1164 120.987 46.3464 120.949C46.3848 120.911 46.4614 120.911 46.4998 120.911C52.6333 118.611 58.3067 119.109 64.7086 122.444C64.0952 116.541 61.8718 87.5981 76.5922 76.8262L79.4673 78.2829C81.5757 79.4329 83.6074 80.7363 85.5241 82.1546C86.4825 82.8063 87.3642 83.4963 88.2459 84.263C96.1044 90.7799 102.046 99.4818 105.19 109.41L105.266 109.64C106.838 114.7 107.681 120.067 107.681 125.626Z" fill="#C06DFF"/>
<path d="M23.7675 129.153L23.0775 125.243C22.8858 124.208 23.2309 123.173 23.9592 122.445L28.6743 117.73C30.1694 116.235 32.7378 116.618 33.6961 118.496L35.9962 122.943C36.7629 124.362 36.3029 126.163 34.9612 127.045L28.636 131.262C26.7576 132.527 24.1892 131.415 23.7675 129.192V129.153Z" fill="#1D1D1B" stroke="#1D1D1B" stroke-width="4.34061" stroke-miterlimit="10"/>
<path d="M73.7556 124.054L75.3273 120.067C76.324 117.537 79.6207 116.962 81.3841 118.994L85.9459 124.169C87.2493 125.664 87.1343 127.925 85.6392 129.267L83.5692 131.107C82.2658 132.257 80.3874 132.334 79.0074 131.299L74.9823 128.232C73.6789 127.274 73.2189 125.549 73.7939 124.015L73.7556 124.054Z" fill="#1D1D1B" stroke="#1D1D1B" stroke-width="4.34061" stroke-miterlimit="10"/>
<path d="M64.7077 122.443C58.3058 119.108 52.6323 118.609 46.4989 120.909C46.4605 120.909 46.3839 120.909 46.3455 120.948C46.1155 120.948 45.8855 121.063 45.6938 121.178C45.5405 121.178 45.4255 121.255 45.3488 121.331C44.6205 121.638 43.8538 121.983 43.0871 122.366C43.0871 122.366 48.1472 88.862 31.7018 76.825L28.2134 78.2817C35.8419 74.1416 44.5821 71.8032 53.8207 71.8032C61.9476 71.8032 69.6911 73.6049 76.5913 76.825C61.8709 87.597 64.0943 116.539 64.7077 122.443Z" fill="white"/>
<path d="M19.3976 37.9928C18.8993 35.8077 15.8708 35.5777 15.0658 37.6861L6.74729 59.46C1.11214 74.1804 -1.34125 95.3026 2.10884 110.675C6.13394 96.721 15.6792 85.0673 28.2145 78.2822C27.9845 77.9372 22.2727 51.3331 19.3976 37.9928ZM16.0242 56.6233L21.506 81.9239L18.7459 83.994C15.6409 72.4554 16.0242 56.6233 16.0242 56.6233Z" fill="#C06DFF"/>
<path d="M105.229 109.64L105.152 109.41C102.009 99.4815 96.067 90.7796 88.2085 84.2628C93.6903 65.5556 93.0003 57.6971 93.0003 57.6971L85.4868 82.1544C83.57 80.736 81.5383 79.4327 79.4299 78.2826L79.89 78.5126C80.0816 78.1676 85.8701 50.2219 88.5918 37.4566C88.9752 35.6549 91.5053 35.4632 92.1953 37.2266L100.974 60.1888C106.571 74.9092 108.679 94.268 105.229 109.64Z" fill="#C06DFF"/>
<path d="M87.6713 147.898L87.3646 152.498C87.2112 154.721 86.7512 156.83 85.9845 158.823C82.7261 167.563 74.4076 173.658 64.6707 173.658H43.0118C31.0515 173.658 21.1229 164.42 20.3179 152.498L20.0112 147.898C19.3595 138.391 27.448 129.267 35.1532 123.67L36.9166 122.405C39.0633 120.834 41.0951 119.569 43.0884 118.534C43.8551 118.15 44.6218 117.805 45.3502 117.498C45.4268 117.422 45.5418 117.383 45.6952 117.345C45.9252 117.23 46.1552 117.153 46.3469 117.115C46.3852 117.077 46.4619 117.077 46.5002 117.077C52.6337 114.777 58.3072 115.275 64.709 118.61C66.6257 119.569 68.6574 120.872 70.7658 122.405L72.5292 123.67C80.2344 129.267 88.323 138.429 87.6713 147.898Z" fill="white"/>
<path d="M62.9832 122.828L57.1947 128.616C56.0446 129.766 54.8946 130.303 53.8212 130.341C52.8629 130.418 51.9812 130.073 51.2912 129.383L44.6977 122.789C43.5093 121.601 43.4326 119.876 44.2377 118.611C44.4677 118.151 44.851 117.768 45.3494 117.499C45.426 117.423 45.541 117.384 45.6944 117.346C45.9244 117.231 46.1544 117.154 46.3461 117.116C46.3844 117.078 46.4611 117.078 46.4994 117.078C50.2178 116.541 55.3546 116.234 61.1048 117.154C62.5231 117.384 63.5582 118.419 63.8649 119.646C64.1332 120.719 63.9032 121.946 62.9832 122.828Z" fill="#1D1D1B" stroke="#1D1D1B" stroke-width="4.34061" stroke-miterlimit="10"/>
<path d="M53.8214 158.594V132.066V158.594Z" stroke="#1D1D1B" stroke-width="2.1703" stroke-miterlimit="10"/>
<path d="M31.7017 76.8267C31.7017 76.8267 31.5484 76.7117 31.4717 76.6733C31.4717 76.6733 29.5166 77.555 28.2133 78.2834L31.7017 76.8267Z" fill="#FCB43E"/>
<path d="M156.925 117.107C156.925 118.632 155.689 119.868 154.164 119.868C152.64 119.868 151.404 118.632 151.404 117.107C151.404 115.583 152.64 114.347 154.164 114.347C155.689 114.347 156.925 115.583 156.925 117.107Z" stroke="#1D1D1B" stroke-width="0.748023" stroke-miterlimit="10"/>
<path d="M197.048 116.448C197.048 117.973 195.812 119.209 194.288 119.209C192.764 119.209 191.528 117.973 191.528 116.448C191.528 114.924 192.764 113.688 194.288 113.688C195.812 113.688 197.048 114.924 197.048 116.448Z" stroke="#1D1D1B" stroke-width="0.748023" stroke-miterlimit="10"/>
<path d="M135.338 79.7338C130.971 79.775 127.058 81.0111 123.433 83.195C119.766 85.4613 116.718 88.6753 114.74 92.6722C112.228 97.8229 110.085 103.138 108.355 108.577C105.142 118.755 103.288 129.345 103 140.099V141.542C103 151.472 105.76 161.197 111.074 169.602C112.763 172.281 115.482 173.558 118.242 173.558C121.29 173.558 124.339 171.951 125.863 168.778C129.53 161.238 131.424 152.955 131.424 144.591V162.062C131.424 166.306 132.537 170.262 134.473 173.682C138.51 180.851 146.214 185.714 155.07 185.714C161.703 185.714 167.759 182.953 172.002 178.544C172.537 178.05 173.032 177.473 173.485 176.896C173.938 177.473 174.432 178.05 174.968 178.544C179.211 182.953 185.266 185.714 191.899 185.714C200.756 185.714 208.459 180.851 212.496 173.682C214.433 170.262 215.545 166.306 215.545 162.062V144.138C215.545 152.502 217.44 160.785 221.106 168.325C222.63 171.498 225.679 173.105 228.727 173.105C231.487 173.105 234.206 171.828 235.895 169.149C241.209 160.743 243.969 151.019 243.969 141.088V139.646C243.681 128.892 241.827 118.302 238.614 108.124C236.884 102.685 234.742 97.3696 232.229 92.2189C230.251 88.222 227.203 85.008 223.537 82.7417C219.87 80.5167 215.545 79.2805 211.096 79.2805C209.077 75.2012 206.4 71.5339 203.228 68.3199C195.606 60.6969 185.102 55.9995 173.485 55.9995C156.801 55.9995 142.424 65.6828 135.626 79.7338H135.338ZM154.164 119.868C152.64 119.868 151.404 118.632 151.404 117.107C151.404 115.582 152.64 114.346 154.164 114.346C155.688 114.346 156.924 115.582 156.924 117.107C156.924 118.632 155.688 119.868 154.164 119.868ZM194.288 119.208C192.764 119.208 191.528 117.972 191.528 116.448C191.528 114.923 192.764 113.687 194.288 113.687C195.812 113.687 197.048 114.923 197.048 116.448C197.048 117.972 195.812 119.208 194.288 119.208Z" fill="#FF43A1"/>
<path d="M173.238 176.897L171.714 146.322H175.256L173.691 176.897H173.238Z" fill="#1D1D1B"/>
<path d="M173.485 147.971C181.425 147.971 187.862 145.296 187.862 141.996C187.862 138.696 181.425 136.021 173.485 136.021C165.545 136.021 159.108 138.696 159.108 141.996C159.108 145.296 165.545 147.971 173.485 147.971Z" fill="#1D1D1B" stroke="#1D1D1B" stroke-width="0.748023" stroke-miterlimit="10"/>
<path d="M162.733 72.4819C161.003 77.5502 158.655 83.3189 159.643 88.6344L157.419 87.6043L174.762 78.2507L176.78 77.1793C176.986 78.5391 178.511 87.6455 178.799 89.2525L177.151 88.0163C182.342 87.8927 187.903 86.739 192.27 83.6486C188.027 88.0575 182.012 90.2414 175.998 91.3952C175.874 90.8183 174.226 80.6818 174.062 79.7753L176.451 80.8878L158.819 90.4062L156.842 91.4776C155.524 84.5139 159.52 78.3331 162.692 72.5643L162.733 72.4819Z" fill="#1D1D1B"/>
<path d="M194.824 125.432C197.531 125.432 199.726 121.631 199.726 116.943C199.726 112.255 197.531 108.455 194.824 108.455C192.117 108.455 189.922 112.255 189.922 116.943C189.922 121.631 192.117 125.432 194.824 125.432Z" fill="#1D1D1B"/>
<path d="M152.146 125.432C154.853 125.432 157.048 121.631 157.048 116.943C157.048 112.255 154.853 108.455 152.146 108.455C149.438 108.455 147.244 112.255 147.244 116.943C147.244 121.631 149.438 125.432 152.146 125.432Z" fill="#1D1D1B"/>
<path d="M211.178 79.5283C213.938 90.2417 217.152 102.644 216.41 113.687C216.328 102.068 213.073 90.8598 211.178 79.5283Z" fill="#1D1D1B"/>
<path d="M135.627 79.6929C133.732 91.0243 130.477 102.232 130.395 113.852C129.653 102.809 132.825 90.365 135.627 79.6929Z" fill="#1D1D1B"/>
</svg>
