<svg width="208" height="159" viewBox="0 0 208 159" fill="none" xmlns="http://www.w3.org/2000/svg">
<path d="M206.275 114.358C206.275 114.358 200.456 121.087 188.87 121.869C188.87 121.869 197.811 130.684 198.499 138.612C198.499 138.612 179.929 142.002 166.121 139.864H166.068C155.117 151.548 139.51 158.537 122.792 158.537H83.8539C67.8238 158.537 52.9047 152.173 42.0592 141.377H42.0064C28.1982 143.515 8.51766 141.846 8.51766 141.846C9.20542 133.918 18.1463 125.103 18.1463 125.103C6.56015 124.32 0.740663 117.644 0.740663 117.644C8.14732 108.308 18.5695 104.813 18.5695 104.813C2.48649 100.797 0 94.642 0 94.642C5.39628 85.5141 20.6858 84.158 20.6858 84.158C17.6173 37.8407 37.9856 6.18012 42.0064 0.338303C42.3238 -0.183288 43.0115 -0.0789699 43.276 0.49478C49.1484 12.1784 71.3684 26.2614 71.3684 26.2614L72.744 25.4268C74.5957 24.3315 76.5002 23.2883 78.4577 22.4538C81.1029 21.2019 83.8539 20.2109 86.6579 19.4285C90.2554 18.3332 93.9587 17.6551 97.6621 17.29C101.524 16.9249 105.439 16.9249 109.301 17.3422C113.428 17.7594 117.554 18.594 121.575 19.898C124.273 20.7325 126.918 21.7757 129.511 23.0797C130.992 23.7577 132.473 24.5923 133.902 25.4268L136.653 27.0438C136.653 27.0438 162.365 13.8475 168.237 2.11171C168.502 1.59012 169.242 1.53796 169.56 2.05955C173.792 9.04887 194.055 45.2473 185.431 80.5068C185.431 80.5068 201.62 82.2281 207.016 91.4081C207.016 91.4081 204.477 97.5629 188.447 101.527C188.447 101.527 198.816 105.022 206.275 114.358Z" fill="#FF43A1"/>
<path d="M149.985 81.8106C138.875 79.9851 131.891 81.2369 123.109 87.4438C124.114 74.0911 143.213 70.9615 149.985 81.8106Z" fill="#1D1D1B"/>
<path d="M59.0944 81.8098C65.8662 70.9607 84.9648 74.1424 85.97 87.4429C77.2407 81.236 70.2573 79.9842 59.0944 81.8098Z" fill="#1D1D1B"/>
<path d="M111.523 101.995L106.973 106.481C106.073 107.368 105.174 107.785 104.327 107.837C103.587 107.889 102.899 107.628 102.317 107.107L97.1324 101.995C96.1802 101.056 96.1272 99.7524 96.7621 98.7614C96.9208 98.3963 97.2382 98.0833 97.6614 97.8747C97.7143 97.8225 97.8202 97.7704 97.926 97.7704C98.0847 97.666 98.2963 97.6139 98.4551 97.6139H98.5608C100.201 97.4052 102.158 98.97 104.327 98.97C106.073 98.97 108.031 97.3531 110.041 97.666C111.152 97.8225 111.946 98.6571 112.21 99.5959C112.422 100.43 112.21 101.369 111.523 102.047V101.995Z" fill="#1D1D1B" stroke="#1D1D1B" stroke-width="4.09875" stroke-miterlimit="10"/>
<path d="M139.774 102.935C144.112 99.4401 150.408 97.7711 155.698 99.9617C150.619 102.152 145.329 103.456 139.774 102.935Z" fill="#1D1D1B"/>
<path d="M139.139 111.437C145.699 110.081 153.212 111.228 158.291 115.766C151.625 115.297 145.223 114.253 139.139 111.437Z" fill="#1D1D1B"/>
<path d="M71.8966 102.933C66.2887 103.455 61.0511 102.151 55.9723 99.9601C61.2628 97.8216 67.6113 99.4385 71.8966 102.933Z" fill="#1D1D1B"/>
<path d="M72.5314 111.437C66.4473 114.253 60.0459 115.297 53.3799 115.766C58.4587 111.228 65.9712 110.081 72.5314 111.437Z" fill="#1D1D1B"/>
<path d="M108.243 107.055C108.878 119.625 119.671 128.179 132.421 126.614L137.87 125.832L132.579 127.553C117.978 132.039 103.746 122.702 100.466 108.15L108.296 107.055H108.243Z" fill="#1D1D1B"/>
<path d="M108.243 108.15C103.534 126.093 87.6097 132.873 70.786 125.832L76.2353 126.614C88.9853 128.179 99.7778 119.625 100.413 107.055L108.243 108.15Z" fill="#1D1D1B"/>
<path d="M145.223 33.563C154.798 29.0774 163.475 23.0269 169.083 13.6904C167.866 25.2176 157.549 33.9803 147.233 38.466L145.223 33.563Z" fill="#1D1D1B"/>
<path d="M61.7388 38.3613C51.7927 33.0932 42.2698 23.6002 41.9524 11.9688C46.7667 21.6703 55.0198 28.3989 64.1724 33.6148L61.7388 38.3613Z" fill="#1D1D1B"/>
</svg>
