<svg width="202" height="201" viewBox="0 0 202 201" fill="none" xmlns="http://www.w3.org/2000/svg">
<path d="M105.018 152.976L101.257 174.949C100.041 182.055 93.3141 186.818 86.2097 185.602C79.1054 184.386 74.3446 177.658 75.5606 170.552L79.3209 148.578" fill="#AA2827"/>
<path d="M82.4022 86.0277C82.0831 87.8924 80.3128 89.1457 78.4486 88.8266C76.5843 88.5076 75.3315 86.737 75.6506 84.8723C75.9697 83.0076 77.74 81.7543 79.6042 82.0733C81.4685 82.3923 82.7213 84.1629 82.4022 86.0277Z" stroke="#1D1D1B" stroke-width="0.819749" stroke-miterlimit="10"/>
<path d="M131.615 93.619C131.296 95.4837 129.526 96.737 127.661 96.418C125.797 96.0989 124.544 94.3283 124.863 92.4636C125.183 90.5989 126.953 89.3456 128.817 89.6646C130.681 89.9836 131.934 91.7543 131.615 93.619Z" stroke="#1D1D1B" stroke-width="0.819749" stroke-miterlimit="10"/>
<path d="M63.8218 35.7978C58.4723 34.9342 53.4269 35.6271 48.5359 37.5394C43.5772 39.5439 39.176 42.8369 35.9209 47.3117C31.7693 53.0855 28.0368 59.1385 24.7821 65.4289C18.7218 77.2047 14.238 89.769 11.6343 102.863L11.3324 104.626C9.25395 116.772 10.5944 129.244 15.3347 140.638C16.84 144.267 19.8981 146.398 23.2739 146.976C27.0025 147.614 31.0674 146.287 33.5957 142.725C39.6583 134.269 43.7095 124.536 45.4603 114.305L41.8035 135.674C40.9152 140.865 41.4477 145.936 43.1 150.524C46.5371 160.139 54.9416 167.698 65.7745 169.552C73.8866 170.94 81.8711 168.831 87.9836 164.326C88.7422 163.834 89.4675 163.231 90.1425 162.621C90.576 163.421 91.0599 164.23 91.6114 164.947C95.8783 171.228 102.707 175.872 110.819 177.26C121.652 179.114 132.092 174.779 138.53 166.855C141.614 163.077 143.803 158.472 144.691 153.281L148.443 131.358C146.692 141.588 147.276 152.115 150.182 162.105C151.382 166.305 154.775 168.909 158.503 169.547C161.879 170.124 165.472 169.131 168.098 166.209C176.357 157.04 181.768 145.724 183.847 133.578L184.149 131.814C186.047 118.599 185.996 105.259 184.196 92.1382C183.219 85.1235 181.711 78.1738 179.716 71.3481C178.134 66.0456 175.078 61.4765 171.068 57.9372C167.049 54.4483 162.017 52.0311 156.576 51.0998C154.961 45.6879 152.453 40.6421 149.246 36.0471C141.521 25.1283 129.655 17.1843 115.447 14.7528C95.0404 11.2607 75.4291 20.0951 64.1745 35.8582L63.8218 35.7978ZM78.4478 88.8259C76.5836 88.5069 75.3308 86.7363 75.6499 84.8716C75.969 83.0069 77.7393 81.7536 79.6035 82.0726C81.4678 82.3916 82.7206 84.1622 82.4015 86.027C82.0824 87.8917 80.3121 89.145 78.4478 88.8259ZM127.661 96.4177C125.797 96.0987 124.544 94.3281 124.863 92.4633C125.183 90.5986 126.953 89.3453 128.817 89.6644C130.681 89.9834 131.934 91.754 131.615 93.6187C131.296 95.4835 129.526 96.7367 127.661 96.4177Z" fill="#C06DFF"/>
<path d="M89.8401 162.569L94.3751 124.855L98.7082 125.596L90.3943 162.664L89.8401 162.569Z" fill="#1D1D1B"/>
<path d="M96.1974 127.242C105.909 128.904 114.342 126.979 115.032 122.943C115.723 118.907 108.41 114.288 98.6985 112.626C88.9868 110.964 80.554 112.889 79.8633 116.925C79.1726 120.961 86.4857 125.58 96.1974 127.242Z" fill="#1D1D1B" stroke="#1D1D1B" stroke-width="0.819749" stroke-miterlimit="10"/>
<path d="M98.8466 32.6616C95.6696 38.4984 91.5901 45.0627 91.6869 51.771L89.1816 50.0454L112.352 42.2351L115.045 41.3472C115.012 43.0534 114.97 54.5104 114.987 56.5363L113.23 54.6795C119.605 55.6147 126.648 55.3676 132.636 52.5017C126.523 57.0062 118.71 58.4184 111.112 58.5707C111.082 57.8393 111.188 45.0964 111.176 43.9532L113.866 45.814L90.3083 53.7657L87.6655 54.6621C87.5107 45.8689 93.6918 39.1456 98.7789 32.7538L98.8466 32.6616Z" fill="#1D1D1B"/>
<path d="M127.015 104.14C130.326 104.707 133.806 100.518 134.787 94.7842C135.768 89.0504 133.879 83.9428 130.568 83.3762C127.257 82.8095 123.777 86.9983 122.795 92.7321C121.814 98.4659 123.703 103.574 127.015 104.14Z" fill="#1D1D1B"/>
<path d="M74.8152 95.2076C78.1266 95.7742 81.6065 91.5854 82.5877 85.8516C83.569 80.1178 81.6799 75.0102 78.3685 74.4435C75.057 73.8769 71.5771 78.0657 70.5959 83.7995C69.6147 89.5333 71.5038 94.6409 74.8152 95.2076Z" fill="#1D1D1B"/>
<path d="M156.626 51.4189C157.759 65.1001 159.093 80.9425 155.875 94.294C158.206 80.0645 156.572 65.675 156.626 51.4189Z" fill="#1D1D1B"/>
<path d="M64.1831 35.8083C59.4937 49.2712 53.1673 62.2983 50.6345 76.4933C52.0389 62.8314 58.5232 48.2751 64.1831 35.8083Z" fill="#1D1D1B"/>
</svg>
