<svg width="150" height="142" viewBox="0 0 150 142" fill="none" xmlns="http://www.w3.org/2000/svg">
<path d="M78.764 14.2204C75.6839 14.7424 72.7661 18.3803 73.611 23.3659C74.4559 28.3515 78.4092 30.8249 81.4894 30.303C84.5695 29.781 87.4873 26.1431 86.6424 21.1575C85.7975 16.1719 81.8441 13.6984 78.764 14.2204ZM66.503 24.5704C65.1979 16.8692 69.5544 8.69064 77.596 7.3279C85.6375 5.96515 92.4453 12.2517 93.7504 19.953C95.0555 27.6542 90.7037 35.8319 82.6574 37.1955C74.6111 38.559 67.8081 32.2717 66.503 24.5704ZM17.5171 41.1439C14.437 41.6659 11.5193 45.3038 12.3642 50.2893C13.209 55.2749 17.1624 57.7484 20.2425 57.2265C23.3227 56.7045 26.2404 53.0666 25.3955 48.081C24.5507 43.0954 20.5973 40.6219 17.5171 41.1439ZM5.25612 51.4939C3.95105 43.7926 8.30757 35.6141 16.3491 34.2514C24.3907 32.8886 31.1985 39.1752 32.5036 46.8765C33.8086 54.5777 29.4521 62.7562 21.4106 64.119C13.369 65.4817 6.5612 59.1951 5.25612 51.4939ZM67.8157 53.8915C63.6064 54.6048 59.5834 56.1472 55.9953 58.4234C52.4071 60.6996 49.3299 63.6614 46.9537 67.1258C44.5774 70.5903 42.9525 74.4839 42.1793 78.5663C41.4061 82.6487 41.501 86.8332 42.4582 90.8615C43.5142 95.3386 46.6706 98.3443 51.1585 100.089C55.7396 101.865 61.5382 102.225 67.1061 101.282L84.0943 98.4026C89.667 97.4583 95.0225 95.2035 98.7578 92.018C102.425 88.8912 104.416 85.0181 103.938 80.443C103.514 76.3242 102.225 72.3421 100.15 68.7423C98.0752 65.1426 95.2582 62.0017 91.8733 59.5136C88.4883 57.0255 84.6071 55.2429 80.4693 54.2759C76.3316 53.309 72.0251 53.1782 67.8157 53.8915ZM34.9677 90.1834C34.1333 85.2582 34.328 80.2102 35.5404 75.3393C36.7527 70.4685 38.958 65.874 42.0252 61.8287C45.0924 57.7835 48.959 54.37 53.3954 51.791C57.8318 49.2119 62.7475 47.5199 67.8505 46.8155C72.9536 46.111 78.14 46.4084 83.1017 47.6901C88.0633 48.9717 92.6991 51.2115 96.7338 54.2763C100.768 57.3412 104.12 61.1686 106.588 65.5313C109.057 69.894 110.593 74.703 111.105 79.6728C111.866 86.9841 108.504 92.9757 103.482 97.2584C98.5241 101.483 91.8396 104.181 85.2623 105.295L68.2789 108.173C61.6969 109.289 54.5017 108.943 48.4283 106.588C42.2713 104.2 37.1276 99.6495 35.4375 92.4956C35.2558 91.7301 35.0991 90.959 34.9677 90.1834ZM105.953 34.4295C105.108 29.4439 108.026 25.806 111.106 25.284C114.186 24.7621 118.14 27.2355 118.985 32.2211C119.829 37.2067 116.912 40.8446 113.832 41.3666C110.751 41.8885 106.798 39.4151 105.953 34.4295ZM109.938 18.3915C101.892 19.755 97.5401 27.9328 98.8452 35.634C100.15 43.3353 106.953 49.6226 115 48.2591C123.046 46.8956 127.398 38.7178 126.093 31.0166C124.788 23.3153 117.984 17.028 109.938 18.3915ZM39.2555 29.1878C38.4107 24.2023 41.3284 20.5644 44.4085 20.0424C47.4887 19.5204 51.442 21.9939 52.2869 26.9795C53.1318 31.9651 50.2141 35.603 47.1339 36.125C44.0538 36.6469 40.1004 34.1734 39.2555 29.1878ZM43.2405 13.1499C35.199 14.5126 30.8424 22.6911 32.1475 30.3924C33.4526 38.0936 40.2604 44.3802 48.302 43.0175C56.3435 41.6547 60.7 33.4762 59.3949 25.775C58.0899 18.0737 51.282 11.7871 43.2405 13.1499Z" fill="#5054DB" stroke="#5054DB" stroke-width="0.573514"/>
<ellipse cx="72.4171" cy="78.4085" rx="34.3871" ry="26.0108" transform="rotate(-9.61814 72.4171 78.4085)" fill="#5054DB"/>
<ellipse cx="18.8512" cy="49.9255" rx="7.49463" ry="9.25807" transform="rotate(-9.61814 18.8512 49.9255)" fill="#5054DB"/>
<ellipse cx="45.61" cy="28.3992" rx="7.49463" ry="9.25807" transform="rotate(-9.61814 45.61 28.3992)" fill="#5054DB"/>
<ellipse cx="80.3829" cy="22.5066" rx="7.49463" ry="9.25807" transform="rotate(-9.61814 80.3829 22.5066)" fill="#5054DB"/>
<ellipse cx="112.591" cy="33.1453" rx="7.49463" ry="9.25807" transform="rotate(-9.61814 112.591 33.1453)" fill="#5054DB"/>
<rect x="118.415" y="69.6831" width="2.32331" height="15.4887" rx="1.16165" transform="rotate(47.9846 118.415 69.6831)" fill="#FCB43E" stroke="#FCB43E" stroke-width="3"/>
<rect x="95.984" y="59.6616" width="2.32331" height="15.4887" rx="1.16165" transform="rotate(2.98458 95.984 59.6616)" fill="#FCB43E" stroke="#FCB43E" stroke-width="3"/>
<rect x="72.9396" y="68.9565" width="2.32331" height="15.4887" rx="1.16165" transform="rotate(-42.0154 72.9396 68.9565)" fill="#FCB43E" stroke="#FCB43E" stroke-width="3"/>
<rect x="63.0548" y="91.5376" width="2.32331" height="15.4887" rx="1.16165" transform="rotate(-87.0154 63.0548 91.5376)" fill="#FCB43E" stroke="#FCB43E" stroke-width="3"/>
<rect x="72.2135" y="114.433" width="2.32331" height="15.4887" rx="1.16165" transform="rotate(-132.015 72.2135 114.433)" fill="#FCB43E" stroke="#FCB43E" stroke-width="3"/>
<path d="M91.3403 81.1323C91.0314 81.0021 90.6908 80.967 90.3619 81.0314C90.033 81.0958 89.7307 81.2567 89.4937 81.4937C89.2567 81.7307 89.0958 82.033 89.0314 82.3619C88.967 82.6908 89.0021 83.0314 89.1323 83.3403L111.178 137.603C111.314 137.931 111.549 138.209 111.85 138.396C112.152 138.584 112.505 138.673 112.859 138.649C113.214 138.626 113.552 138.492 113.827 138.267C114.101 138.042 114.298 137.736 114.39 137.393L119.711 116.761C119.994 115.557 120.602 114.453 121.467 113.569C122.333 112.684 123.424 112.054 124.622 111.745L145.393 106.39C145.738 106.3 146.045 106.104 146.273 105.83C146.5 105.555 146.635 105.216 146.659 104.861C146.682 104.505 146.593 104.152 146.404 103.849C146.216 103.547 145.936 103.312 145.606 103.178L91.3403 81.1323Z" fill="#FF43A1" stroke="#FF43A1" stroke-width="5" stroke-linecap="round" stroke-linejoin="round"/>
</svg>
