<svg width="518" height="365" viewBox="0 0 518 365" fill="none" xmlns="http://www.w3.org/2000/svg">
<path d="M3.05176e-05 298.247V221.563H29.3901C52.1053 221.563 65.4032 232.378 65.4032 250.177C65.4032 267.977 52.7779 279.464 30.5284 279.464H21.0077V298.091L3.05176e-05 298.195L3.05176e-05 298.247ZM21.0077 240.915V260.216H29.9592C39.3765 260.216 43.8264 256.697 43.8264 250.229C43.8264 244.227 39.066 240.915 29.9592 240.915H21.0077Z" fill="#FCB43E"/>
<path d="M61.3661 269.219C61.3661 252.868 73.6292 239.26 91.584 239.26C109.539 239.26 120.56 253.127 120.56 268.339V273.462H81.0284C82.3738 279.154 86.7202 282.569 92.9811 282.569C98.4141 282.569 102.761 279.619 104.778 275.169L120.457 282.983C115.593 293.538 105.917 299.903 93.1881 299.903C75.0263 299.903 61.3661 287.847 61.3661 269.219ZM100.173 262.855C99.242 259.698 96.0857 256.749 91.3253 256.749C86.5649 256.749 83.1499 259.595 81.9081 262.855H100.173Z" fill="#FCB43E"/>
<path d="M126.769 274.082V258.508H117.093V241.484H126.769V227.307H147.208V241.484H165.835V258.508H147.208V273.358C147.208 278.791 150.519 281.896 155.849 281.896C158.695 281.896 163.093 281.119 165.835 279.619V297.677C162.989 299.281 157.763 300.057 153.934 300.057C135.41 300.057 126.769 289.14 126.769 274.031V274.082Z" fill="#FCB43E"/>
<path d="M177.738 260.112C177.738 238.173 195.02 220.839 216.442 220.839C229.481 220.839 241.434 227.566 247.229 238.69L237.812 244.123C233.362 236.517 225.755 231.86 216.028 231.86C201.281 231.86 189.691 244.123 189.691 260.112C189.691 276.101 201.177 288.726 216.028 288.726C225.807 288.726 233.517 284.069 237.812 276.463L247.229 281.896C241.434 293.021 229.533 299.592 216.442 299.592C194.968 299.592 177.738 282.206 177.738 260.06V260.112Z" fill="#5054DB"/>
<path d="M255.092 298.246V217.062H266.321V248.884C270.615 244.227 277.342 241.277 284.845 241.277C301.195 241.277 310.406 252.195 310.406 269.219V298.298H299.177V270.357C299.177 260.474 293.744 251.936 283.137 251.936C273.254 251.936 266.321 259.905 266.321 270.667V298.246H255.092Z" fill="#5054DB"/>
<path d="M317.755 270.304C317.755 254.419 330.483 241.224 347.403 241.224C364.323 241.224 377.052 253.694 377.052 270.304V298.245H366.393V288.466C362.202 295.296 354.803 299.591 345.696 299.591C329.552 299.591 317.755 286.448 317.755 270.304ZM365.772 270.459C365.772 260.266 357.804 251.832 347.403 251.832C337.003 251.832 328.983 260.214 328.983 270.459C328.983 280.704 337.055 288.983 347.403 288.983C357.752 288.983 365.772 280.601 365.772 270.459Z" fill="#5054DB"/>
<path d="M388.022 298.247V265.079C388.022 251.575 395.732 241.433 410.272 241.433C413.791 241.433 417.413 242.106 420.258 243.451V254.576C417.516 252.972 414.36 252.195 411.307 252.195C403.804 252.195 399.251 257.318 399.251 265.493V298.195H388.022V298.247Z" fill="#5054DB"/>
<path d="M517.793 268.959V298.246H506.565V270.77C506.565 260.68 501.546 251.781 491.146 251.781C480.745 251.781 475.933 260.318 475.933 270.512V298.246H464.705V270.512C464.705 260.318 459.582 251.781 449.286 251.781C438.989 251.781 434.177 260.629 434.177 270.77V298.246H422.948V269.063C422.948 253.488 431.796 241.018 448.509 241.018C459.634 241.018 467.706 246.71 470.552 255.351C473.605 246.71 481.47 241.018 492.025 241.018C508.842 241.018 517.897 253.488 517.897 268.959H517.793Z" fill="#5054DB"/>
<path d="M88.1185 327.843H90.7574L96.0352 352.11C96.2422 353.093 96.5527 353.611 97.1736 353.611C97.7945 353.611 98.1567 353.145 98.4154 352.11L103.434 330.533C103.848 328.671 104.987 327.791 106.436 327.791C107.884 327.791 109.023 328.619 109.437 330.482L114.714 352.059C114.973 353.042 115.232 353.559 115.905 353.559C116.525 353.559 116.836 353.042 116.991 352.059L121.7 327.843H124.339L119.423 352.472C119.009 354.49 117.974 355.887 116.008 355.887C114.042 355.887 113.007 354.801 112.386 352.472L107.108 331.103C106.953 330.378 106.746 330.171 106.332 330.171C105.97 330.171 105.711 330.43 105.556 331.103L100.485 352.886C100.019 354.853 98.7259 355.887 97.0701 355.887C95.4143 355.887 94.0172 354.801 93.5516 352.783L88.0668 327.791L88.1185 327.843Z" fill="#5054DB"/>
<path d="M129.769 355.526V326.24H132.357V338.969C133.857 336.588 136.651 334.984 139.911 334.984C145.603 334.984 149.018 339.02 149.018 344.971V355.475H146.431V345.178C146.431 340.987 144.102 337.416 139.549 337.416C135.358 337.416 132.305 340.831 132.305 345.385V355.475H129.718L129.769 355.526Z" fill="#5054DB"/>
<path d="M154.195 345.386C154.195 339.59 158.231 334.934 164.078 334.934C169.925 334.934 173.702 339.125 173.702 344.817V346.369H156.679C157.093 350.457 160.249 353.509 164.492 353.509C167.234 353.509 169.718 352.474 171.167 349.887L173.133 350.974C171.322 354.286 168.166 355.941 164.492 355.941C158.593 355.941 154.143 351.44 154.143 345.437L154.195 345.386ZM171.167 344.299C171.063 340.108 168.166 337.417 164.078 337.417C159.99 337.417 157.196 340.418 156.782 344.299H171.115H171.167Z" fill="#5054DB"/>
<path d="M179.135 355.526V343.16C179.135 338.503 181.826 335.191 186.483 335.191C187.725 335.191 188.915 335.45 189.949 335.916V338.503C188.966 337.934 187.828 337.623 186.69 337.623C183.637 337.623 181.722 339.797 181.722 343.263V355.526H179.135Z" fill="#5054DB"/>
<path d="M191.655 345.386C191.655 339.59 195.691 334.934 201.538 334.934C207.385 334.934 211.162 339.125 211.162 344.817V346.369H194.138C194.552 350.457 197.709 353.509 201.952 353.509C204.694 353.509 207.178 352.474 208.626 349.887L210.593 350.974C208.782 354.286 205.625 355.941 201.952 355.941C196.053 355.941 191.603 351.44 191.603 345.437L191.655 345.386ZM208.626 344.299C208.523 340.108 205.625 337.417 201.538 337.417C197.45 337.417 194.604 340.418 194.242 344.299H208.575H208.626Z" fill="#5054DB"/>
<path d="M228.497 364.738V345.437C228.497 339.59 233.154 335.037 239.052 335.037C244.951 335.037 249.556 339.746 249.556 345.437C249.556 351.129 245.106 355.993 239.104 355.993C235.689 355.993 232.74 354.234 231.032 351.647V364.789H228.445L228.497 364.738ZM246.969 345.437C246.969 341.039 243.45 337.417 239.001 337.417C234.551 337.417 231.032 341.039 231.032 345.437C231.032 349.836 234.551 353.509 239.001 353.509C243.45 353.509 246.969 349.836 246.969 345.437Z" fill="#5054DB"/>
<path d="M253.282 345.386C253.282 339.59 257.318 334.934 263.165 334.934C269.012 334.934 272.789 339.125 272.789 344.817V346.369H255.765C256.179 350.457 259.336 353.509 263.579 353.509C266.321 353.509 268.805 352.474 270.253 349.887L272.22 350.974C270.409 354.286 267.252 355.941 263.579 355.941C257.68 355.941 253.23 351.44 253.23 345.437L253.282 345.386ZM270.253 344.299C270.15 340.108 267.252 337.417 263.165 337.417C259.077 337.417 256.283 340.418 255.869 344.299H270.202H270.253Z" fill="#5054DB"/>
<path d="M279.621 348.904V337.728H275.378V335.399H279.621V330.07H282.208V335.399H290.383V337.728H282.208V348.801C282.208 351.802 283.967 353.509 286.606 353.509C288.055 353.509 289.4 352.992 290.435 352.164V354.648C289.4 355.424 287.9 355.941 286.399 355.941C282.156 355.941 279.672 353.147 279.672 348.904H279.621Z" fill="#5054DB"/>
<path d="M294.936 351.49L297.058 350.352C298.248 352.68 300.111 353.508 302.543 353.508C305.233 353.508 307.458 352.37 307.458 350.041C307.458 344.971 295.557 348.489 295.557 340.883C295.557 337.52 298.61 335.191 302.439 335.191C305.699 335.191 308.183 336.588 309.528 339.02L307.407 340.21C306.32 338.192 304.612 337.623 302.491 337.623C300.266 337.623 298.093 338.813 298.093 340.883C298.093 345.747 309.994 342.435 309.994 350.041C309.994 353.663 306.579 355.94 302.594 355.94C299.179 355.94 296.385 354.491 294.885 351.542L294.936 351.49Z" fill="#5054DB"/>
<path d="M326.551 351.49L328.673 350.352C329.863 352.681 331.726 353.508 334.158 353.508C336.848 353.508 339.073 352.37 339.073 350.042C339.073 344.971 327.172 348.489 327.172 340.883C327.172 337.52 330.225 335.191 334.054 335.191C337.314 335.191 339.798 336.588 341.143 339.02L339.022 340.21C337.935 338.193 336.227 337.623 334.106 337.623C331.881 337.623 329.708 338.813 329.708 340.883C329.708 345.747 341.609 342.435 341.609 350.042C341.609 353.664 338.194 355.94 334.209 355.94C330.794 355.94 328 354.492 326.5 351.542L326.551 351.49Z" fill="#5054DB"/>
<path d="M348.127 355.526V326.24H350.714V338.969C352.215 336.588 355.009 334.984 358.269 334.984C363.96 334.984 367.375 339.02 367.375 344.971V355.475H364.788V345.178C364.788 340.987 362.46 337.416 357.906 337.416C353.715 337.416 350.662 340.831 350.662 345.385V355.475H348.075L348.127 355.526Z" fill="#5054DB"/>
<path d="M374.258 328.672C374.258 327.586 375.086 326.758 376.121 326.758C377.156 326.758 377.932 327.586 377.932 328.672C377.932 329.759 377.156 330.587 376.121 330.587C375.086 330.587 374.258 329.759 374.258 328.672ZM377.414 335.451V355.527H374.827V335.451H377.414Z" fill="#5054DB"/>
<path d="M387.401 345.437V355.475H384.814V345.23C384.814 339.435 388.333 334.985 394.387 334.985C400.441 334.985 404.166 339.435 404.166 345.178V355.475H401.579V345.489C401.579 341.194 399.043 337.417 394.387 337.417C389.73 337.417 387.401 341.194 387.401 345.437Z" fill="#5054DB"/>
<path d="M409.34 345.386C409.34 339.59 413.376 334.934 419.223 334.934C425.07 334.934 428.847 339.125 428.847 344.817V346.369H411.823C412.237 350.457 415.394 353.509 419.637 353.509C422.379 353.509 424.863 352.474 426.311 349.887L428.278 350.974C426.467 354.286 423.31 355.941 419.637 355.941C413.738 355.941 409.288 351.44 409.288 345.437L409.34 345.386ZM426.311 344.299C426.208 340.108 423.31 337.417 419.223 337.417C415.135 337.417 412.341 340.418 411.927 344.299H426.26H426.311Z" fill="#5054DB"/>
<path d="M322.373 32.8274L314.005 30.6741L304.05 69.3595L312.419 71.5129L322.373 32.8274Z" fill="#1D1D1B" stroke="#1D1D1B" stroke-width="4.59845" stroke-miterlimit="10"/>
<path d="M216.458 27.9432L208.121 30.2146L218.621 68.7555L226.958 66.4841L216.458 27.9432Z" fill="#1D1D1B" stroke="#1D1D1B" stroke-width="4.59845" stroke-miterlimit="10"/>
<path d="M337.57 120.975V146.277C337.57 170.958 317.545 190.983 292.864 190.983H236.93C212.248 190.983 192.224 170.958 192.224 146.277V120.975C192.224 113.938 193.207 107.159 195.07 100.795C200.503 81.9604 213.387 66.2305 230.307 57.0719L235.015 55.1057C257.213 71.353 250.383 116.576 250.383 116.576C251.418 116.059 252.453 115.593 253.436 115.179C253.539 115.076 253.695 115.024 253.902 114.972C254.16 114.817 254.471 114.714 254.781 114.662C254.833 114.61 254.936 114.61 254.988 114.61C263.267 111.506 270.925 112.178 279.566 116.68C278.738 108.712 275.737 69.6455 295.606 55.1057L299.487 57.0719C302.333 58.6242 305.075 60.3835 307.663 62.298C308.956 63.1776 310.146 64.109 311.336 65.1439C321.944 73.9402 329.964 85.6859 334.207 99.0873L334.31 99.3978C336.432 106.228 337.57 113.472 337.57 120.975Z" fill="#FCB43E"/>
<path d="M224.305 125.735L223.373 120.458C223.115 119.061 223.58 117.664 224.563 116.68L230.928 110.316C232.946 108.298 236.412 108.816 237.706 111.351L240.811 117.353C241.846 119.268 241.225 121.7 239.414 122.89L230.876 128.581C228.341 130.289 224.874 128.788 224.305 125.787V125.735Z" fill="#1D1D1B" stroke="#1D1D1B" stroke-width="4.59845" stroke-miterlimit="10"/>
<path d="M291.778 118.853L293.899 113.471C295.245 110.056 299.695 109.28 302.075 112.023L308.232 119.008C309.992 121.026 309.836 124.079 307.818 125.89L305.024 128.373C303.265 129.926 300.73 130.029 298.867 128.632L293.434 124.493C291.675 123.199 291.054 120.871 291.83 118.801L291.778 118.853Z" fill="#1D1D1B" stroke="#1D1D1B" stroke-width="4.59845" stroke-miterlimit="10"/>
<path d="M279.565 116.679C270.924 112.177 263.266 111.505 254.987 114.609C254.935 114.609 254.832 114.609 254.78 114.661C254.469 114.661 254.159 114.816 253.9 114.971C253.693 114.971 253.538 115.075 253.435 115.178C252.451 115.592 251.417 116.058 250.382 116.576C250.382 116.576 257.212 71.3521 235.014 55.1048L230.305 57.071C240.602 51.4827 252.4 48.3264 264.87 48.3264C275.839 48.3264 286.291 50.7583 295.605 55.1048C275.736 69.6446 278.737 108.711 279.565 116.679Z" fill="white"/>
<path d="M218.406 2.68919C217.733 -0.260163 213.646 -0.570621 212.559 2.27525L201.331 31.6653C193.724 51.5346 190.413 80.0451 195.07 100.794C200.503 81.9595 213.387 66.2297 230.307 57.0711C229.996 56.6055 222.287 20.6958 218.406 2.68919ZM213.852 27.8363L221.252 61.9867L217.526 64.7809C213.335 49.2062 213.852 27.8363 213.852 27.8363Z" fill="#FCB43E"/>
<path d="M334.26 99.3982L334.156 99.0878C329.914 85.6863 321.893 73.9407 311.286 65.1443C318.685 39.8937 317.754 29.2864 317.754 29.2864L307.612 62.2985C305.025 60.384 302.283 58.6247 299.437 57.0724L300.058 57.3829C300.317 56.9172 308.13 19.1965 311.804 1.96607C312.321 -0.465856 315.736 -0.724571 316.667 1.65561L328.517 32.6497C336.071 52.519 338.917 78.6493 334.26 99.3982Z" fill="#FCB43E"/>
<path d="M310.561 151.038L310.147 157.247C309.94 160.248 309.319 163.094 308.284 165.784C303.886 177.582 292.658 185.809 279.515 185.809H250.281C234.137 185.809 220.735 173.339 219.649 157.247L219.235 151.038C218.355 138.205 229.273 125.89 239.673 118.336L242.053 116.628C244.951 114.507 247.693 112.799 250.384 111.402C251.419 110.885 252.454 110.419 253.437 110.005C253.54 109.902 253.696 109.85 253.903 109.798C254.213 109.643 254.523 109.54 254.782 109.488C254.834 109.436 254.937 109.436 254.989 109.436C263.268 106.332 270.926 107.004 279.567 111.506C282.154 112.799 284.897 114.559 287.743 116.628L290.123 118.336C300.523 125.89 311.441 138.257 310.561 151.038Z" fill="white"/>
<path d="M277.237 117.198L269.424 125.011C267.872 126.563 266.319 127.288 264.87 127.339C263.577 127.443 262.387 126.977 261.455 126.046L252.556 117.146C250.952 115.542 250.848 113.213 251.935 111.506C252.245 110.885 252.763 110.368 253.435 110.005C253.539 109.902 253.694 109.85 253.901 109.798C254.211 109.643 254.522 109.54 254.781 109.488C254.832 109.436 254.936 109.436 254.987 109.436C260.007 108.712 266.94 108.298 274.702 109.54C276.616 109.85 278.013 111.247 278.427 112.903C278.789 114.352 278.479 116.008 277.237 117.198Z" fill="#1D1D1B" stroke="#1D1D1B" stroke-width="4.59845" stroke-miterlimit="10"/>
<path d="M264.871 165.474V129.668V165.474Z" stroke="#1D1D1B" stroke-width="2.29923" stroke-miterlimit="10"/>
<path d="M264.871 166.82C282.93 177.634 306.68 169.356 306.68 169.356L307.87 166.924C282.826 175.099 264.871 164.492 264.871 164.492V166.82Z" fill="black"/>
<path d="M264.871 166.82C246.812 177.634 223.062 169.356 223.062 169.356L221.872 166.924C246.916 175.099 264.871 164.492 264.871 164.492V166.82Z" fill="black"/>
<path d="M235.014 55.1057C235.014 55.1057 234.807 54.9504 234.704 54.8987C234.704 54.8987 232.065 56.0888 230.306 57.0719L235.014 55.1057Z" fill="#FCB43E"/>
</svg>
