<svg width="188" height="186" viewBox="0 0 188 186" fill="none" xmlns="http://www.w3.org/2000/svg">
<path d="M107.522 147.646V171.497C107.522 179.211 101.287 185.447 93.576 185.447C85.8646 185.447 79.6299 179.211 79.6299 171.497V147.646" fill="#AA2827"/>
<path d="M71.5902 81.1264C71.5902 83.1504 69.9495 84.7915 67.926 84.7915C65.9024 84.7915 64.2617 83.1504 64.2617 81.1264C64.2617 79.1023 65.9024 77.4612 67.926 77.4612C69.9495 77.4612 71.5902 79.1023 71.5902 81.1264Z" stroke="#1D1D1B" stroke-miterlimit="10"/>
<path d="M124.858 80.2509C124.858 82.2749 123.218 83.916 121.194 83.916C119.171 83.916 117.53 82.2749 117.53 80.2509C117.53 78.2268 119.171 76.5857 121.194 76.5857C123.218 76.5857 124.858 78.2268 124.858 80.2509Z" stroke="#1D1D1B" stroke-miterlimit="10"/>
<path d="M42.932 31.5095C37.1348 31.5642 31.9392 33.2053 27.1264 36.1046C22.259 39.1134 18.2119 43.3803 15.5867 48.6866C12.2506 55.5246 9.40678 62.5814 7.10978 69.8023C2.84392 83.3142 0.382833 97.3731 0 111.651V113.565C0 126.749 3.66422 139.659 10.7193 150.819C12.9616 154.375 16.5712 156.07 20.2355 156.07C24.2826 156.07 28.3297 153.937 30.3532 149.725C35.2207 139.714 37.7364 128.718 37.7364 117.614V140.808C37.7364 146.443 39.2131 151.694 41.7835 156.235C47.1432 165.753 57.3703 172.208 69.1288 172.208C77.9339 172.208 85.9734 168.543 91.6065 162.69C92.3175 162.033 92.9738 161.267 93.5754 160.502C94.177 161.267 94.8333 162.033 95.5443 162.69C101.177 168.543 109.217 172.208 118.022 172.208C129.781 172.208 140.008 165.753 145.367 156.235C147.938 151.694 149.414 146.443 149.414 140.808V117.012C149.414 128.117 151.93 139.112 156.798 149.123C158.821 153.335 162.868 155.469 166.915 155.469C170.58 155.469 174.189 153.773 176.431 150.217C183.487 139.058 187.151 126.147 187.151 112.964V111.049C186.768 96.7714 184.307 82.7124 180.041 69.2006C177.744 61.9796 174.9 54.9228 171.564 48.0848C168.939 42.7785 164.892 38.5116 160.024 35.5029C155.157 32.5489 149.414 30.9078 143.508 30.9078C140.828 25.4921 137.273 20.6234 133.062 16.3565C122.944 6.23626 108.998 0 93.5754 0C71.4258 0 52.3388 12.8554 43.3148 31.5095H42.932ZM67.9256 84.7912C65.902 84.7912 64.2613 83.1501 64.2613 81.126C64.2613 79.102 65.902 77.4608 67.9256 77.4608C69.9491 77.4608 71.5898 79.102 71.5898 81.126C71.5898 83.1501 69.9491 84.7912 67.9256 84.7912ZM121.194 83.9159C119.171 83.9159 117.53 82.2748 117.53 80.2508C117.53 78.2267 119.171 76.5856 121.194 76.5856C123.218 76.5856 124.858 78.2267 124.858 80.2508C124.858 82.2748 123.218 83.9159 121.194 83.9159Z" fill="#5054DB"/>
<path d="M93.2472 160.502L91.2236 119.912H95.927L93.8488 160.502H93.2472Z" fill="#1D1D1B"/>
<path d="M93.5763 122.099C104.118 122.099 112.663 118.548 112.663 114.167C112.663 109.787 104.118 106.235 93.5763 106.235C83.0348 106.235 74.4893 109.787 74.4893 114.167C74.4893 118.548 83.0348 122.099 93.5763 122.099Z" fill="#1D1D1B" stroke="#1D1D1B" stroke-miterlimit="10"/>
<path d="M79.3016 21.8813C77.0046 28.6099 73.8872 36.2685 75.1998 43.3253L72.2465 41.9577L95.2712 29.5399L97.9511 28.1176C98.2245 29.9228 100.248 42.0124 100.631 44.1459L98.4433 42.5048C105.334 42.3406 112.717 40.8089 118.515 36.7061C112.882 42.5595 104.897 45.4588 96.9119 46.9905C96.7479 46.2246 94.5602 32.7674 94.3415 31.564L97.5135 33.041L74.106 45.6776L71.4808 47.0999C69.7307 37.8549 75.0357 29.6493 79.2468 21.9908L79.3016 21.8813Z" fill="#1D1D1B"/>
<path d="M121.905 92.177C125.5 92.177 128.413 87.1317 128.413 80.9079C128.413 74.6842 125.5 69.6389 121.905 69.6389C118.311 69.6389 115.397 74.6842 115.397 80.9079C115.397 87.1317 118.311 92.177 121.905 92.177Z" fill="#1D1D1B"/>
<path d="M65.2455 92.177C68.8398 92.177 71.7537 87.1317 71.7537 80.9079C71.7537 74.6842 68.8398 69.6389 65.2455 69.6389C61.6511 69.6389 58.7373 74.6842 58.7373 80.9079C58.7373 87.1317 61.6511 92.177 65.2455 92.177Z" fill="#1D1D1B"/>
<path d="M143.617 31.2358C147.281 45.4589 151.547 61.9248 150.563 76.5855C150.454 61.1589 146.133 46.2794 143.617 31.2358Z" fill="#1D1D1B"/>
<path d="M43.315 31.4552C40.7992 46.4988 36.4787 61.3783 36.3693 76.8048C35.3848 62.1441 39.596 45.6235 43.315 31.4552Z" fill="#1D1D1B"/>
</svg>
