<svg width="197" height="154" viewBox="0 0 197 154" fill="none" xmlns="http://www.w3.org/2000/svg">
<path d="M196.295 110.408C196.295 110.408 190.757 116.904 179.732 117.659C179.732 117.659 188.24 126.17 188.895 133.824C188.895 133.824 171.223 137.097 158.083 135.033H158.033C147.612 146.313 132.76 153.061 116.851 153.061H79.7968C64.5423 153.061 50.345 146.917 40.0243 136.493H39.974C26.8339 138.558 8.10555 136.946 8.10555 136.946C8.76004 129.292 17.2683 120.782 17.2683 120.782C6.24274 120.026 0.704827 113.581 0.704827 113.581C7.75313 104.567 17.6711 101.193 17.6711 101.193C2.36619 97.3151 0 91.3729 0 91.3729C5.13519 82.5603 19.6849 81.251 19.6849 81.251C16.7649 36.5336 36.1477 5.96665 39.974 0.326618C40.276 -0.176957 40.9305 -0.0762421 41.1822 0.47769C46.7705 11.7578 67.9154 25.3543 67.9154 25.3543L69.2244 24.5486C70.9865 23.491 72.7989 22.4839 74.6617 21.6782C77.1789 20.4696 79.7968 19.5128 82.4651 18.7574C85.8885 17.6999 89.4127 17.0453 92.9369 16.6928C96.612 16.3403 100.338 16.3403 104.013 16.7431C107.94 17.146 111.867 17.9517 115.693 19.2107C118.26 20.0164 120.778 21.0235 123.245 22.2825C124.654 22.9371 126.064 23.7428 127.423 24.5486L130.041 26.1096C130.041 26.1096 154.509 13.3692 160.097 2.03877C160.349 1.5352 161.054 1.48484 161.356 1.98841C165.383 8.73631 184.666 43.6844 176.459 77.726C176.459 77.726 191.865 79.3878 197 88.2507C197 88.2507 194.583 94.1929 179.329 98.0201C179.329 98.0201 189.197 101.394 196.295 110.408Z" fill="#FCB43E"/>
<path d="M142.728 78.9845C132.156 77.222 125.51 78.4306 117.153 84.4231C118.109 71.5316 136.284 68.5102 142.728 78.9845Z" fill="#1D1D1B"/>
<path d="M56.2354 78.9844C62.6795 68.5101 80.8541 71.5819 81.8106 84.423C73.5037 78.4305 66.8581 77.2219 56.2354 78.9844Z" fill="#1D1D1B"/>
<path d="M106.127 98.473L101.797 102.804C100.941 103.66 100.085 104.063 99.2798 104.113C98.575 104.163 97.9205 103.912 97.3667 103.408L92.4329 98.473C91.5267 97.5666 91.4763 96.3076 92.0805 95.3508C92.2315 94.9983 92.5336 94.6962 92.9363 94.4948C92.9867 94.4444 93.0874 94.3941 93.1881 94.3941C93.3391 94.2933 93.5405 94.243 93.6915 94.243H93.7922C95.3529 94.0415 97.2157 95.5523 99.2798 95.5523C100.941 95.5523 102.804 93.9912 104.717 94.2933C105.774 94.4444 106.529 95.2501 106.781 96.1566C106.983 96.9623 106.781 97.8687 106.127 98.5234V98.473Z" fill="#1D1D1B" stroke="#1D1D1B" stroke-width="5" stroke-miterlimit="10"/>
<path d="M133.011 99.3793C137.14 96.0053 143.131 94.3939 148.165 96.5089C143.332 98.6239 138.297 99.8828 133.011 99.3793Z" fill="#1D1D1B"/>
<path d="M132.407 107.588C138.65 106.279 145.799 107.386 150.632 111.768C144.289 111.314 138.197 110.307 132.407 107.588Z" fill="#1D1D1B"/>
<path d="M68.4185 99.3789C63.0819 99.8825 58.0978 98.6236 53.2646 96.5086C58.2992 94.4439 64.3405 96.005 68.4185 99.3789Z" fill="#1D1D1B"/>
<path d="M69.0227 107.588C63.233 110.307 57.1413 111.314 50.7979 111.768C55.631 107.386 62.7799 106.279 69.0227 107.588Z" fill="#1D1D1B"/>
<path d="M103.006 103.358C103.61 115.494 113.88 123.753 126.013 122.242L131.199 121.486L126.164 123.148C112.269 127.479 98.7264 118.465 95.605 104.415L103.056 103.358H103.006Z" fill="#1D1D1B"/>
<path d="M103.006 104.415C98.5249 121.738 83.371 128.285 67.3613 121.486L72.5469 122.242C84.6801 123.753 94.9504 115.494 95.5546 103.358L103.006 104.415Z" fill="#1D1D1B"/>
<path d="M138.197 32.4043C147.309 28.0736 155.566 22.2321 160.902 13.2181C159.744 24.3471 149.927 32.8072 140.11 37.1379L138.197 32.4043Z" fill="#1D1D1B"/>
<path d="M58.7519 37.0369C49.2871 31.9508 40.2249 22.7857 39.9229 11.556C44.5042 20.9225 52.3581 27.4186 61.0677 32.4544L58.7519 37.0369Z" fill="#1D1D1B"/>
</svg>
