<svg width="189" height="199" viewBox="0 0 189 199" fill="none" xmlns="http://www.w3.org/2000/svg">
<path d="M164.23 20.4046C173.586 29.4466 180.572 41.2323 183.753 54.8887C187.183 69.5429 188.867 84.4465 188.867 99.3501C188.867 114.254 187.183 129.22 183.753 143.811C183.254 145.869 182.692 147.865 182.069 149.86C178.7 160.149 173.149 169.129 166.038 176.487C100.359 166.51 103.914 106.459 103.914 106.459L103.914 105.025C105.536 103.403 106.971 101.034 106.971 101.034C107.345 100.535 107.782 99.7243 107.782 99.3501C107.782 99.0383 107.095 97.8535 106.784 97.2923C106.784 97.2923 105.287 94.9226 103.79 93.426L103.79 92.6154C103.79 92.6154 98.5503 30.3196 164.23 20.4046Z" fill="white"/>
<path d="M164.417 20.4045C98.7374 30.3195 103.977 92.6154 103.977 92.6154L103.977 93.4259C105.474 94.9225 106.971 97.2922 106.971 97.2922C107.283 97.8534 107.969 99.0383 107.969 99.35C107.969 99.7242 107.532 100.535 107.158 101.034C107.158 101.034 105.723 103.403 104.102 105.025L104.102 106.459C104.102 106.459 100.546 166.51 166.163 176.487C147.701 195.818 118.759 204.112 91.2526 195.195L59.7539 184.968C57.9451 184.344 56.1363 183.721 54.3898 182.972C50.086 183.97 44.7843 185.841 27.1949 189.458C5.23939 193.947 7.79354e-06 178.295 7.79354e-06 178.295C11.2896 164.078 20.1467 147.615 20.1467 147.615C17.3399 140.382 15.8429 132.587 15.8429 124.543L15.8429 74.2196C15.8429 64.2423 22.3298 46.2208 22.3921 46.0961C22.3921 46.0961 12.35 27.9499 1.18509 13.6075C1.18509 13.6075 6.54924 -2.10673 28.4424 2.69485C50.3355 7.43408 64.8685 12.1109 64.8685 12.1109L91.3149 3.56787C117.824 -5.03756 145.829 2.44539 164.417 20.4045Z" fill="#5054DB"/>
<path d="M101.918 92.3036C102.48 92.3036 103.103 92.8024 103.789 93.426C105.286 94.9226 106.783 97.2923 106.783 97.2923C107.095 97.8535 107.781 99.0383 107.781 99.3501C107.781 99.7243 107.345 100.535 106.97 101.034C106.97 101.034 105.536 103.403 103.914 105.025C103.041 105.898 102.043 106.584 101.232 106.397C100.858 106.209 100.608 105.96 100.421 105.586C100.359 105.524 100.296 105.461 100.296 105.336C100.234 105.212 100.172 105.025 100.109 104.9L100.109 104.775C99.8598 103.279 100.546 101.346 100.546 99.3501C100.546 97.7288 99.8598 96.1074 100.172 94.299C100.296 93.3013 101.045 92.3036 101.918 92.3036Z" fill="#1D1D1B" stroke="#1D1D1B" stroke-width="7" stroke-miterlimit="10"/>
<path d="M142.586 111.198L123.562 101.408L125.371 101.969L108.966 101.969L108.966 95.7333L125.371 95.7333L126.556 95.7333L127.179 96.3568L142.586 111.198Z" fill="#1D1D1B"/>
<path d="M123.624 96.2945L142.586 87.5019L127.117 101.47L123.624 96.2945Z" fill="#1D1D1B"/>
<path d="M88.6328 72.9725L88.6328 45.0984C96.3048 45.0984 102.542 51.3343 102.542 59.0044C102.542 66.6744 96.3048 72.9102 88.6328 72.9102L88.6328 72.9725Z" fill="#1D1D1B" stroke="#1D1D1B" stroke-width="0.25" stroke-miterlimit="10"/>
<path d="M88.6328 152.603L88.6328 124.729C96.3048 124.729 102.542 130.965 102.542 138.635C102.542 146.305 96.3048 152.541 88.6328 152.541L88.6328 152.603Z" fill="#1D1D1B" stroke="#1D1D1B" stroke-width="0.25" stroke-miterlimit="10"/>
<path d="M54.2651 17.91C54.2651 17.91 40.3558 27.4508 28.8167 36.8046L16.9033 18.0348C16.9033 18.0348 21.8309 10.0529 41.3538 24.4577C41.3538 24.4577 44.1606 22.3375 54.2651 17.91Z" fill="#1D1D1B"/>
<path d="M52.2687 176.05C52.2687 176.05 39.1703 164.888 27.6311 155.535L15.7178 174.304C15.7178 174.304 20.0839 182.66 39.6692 168.256C39.6692 168.256 42.0394 169.939 52.2687 176.113L52.2687 176.05Z" fill="#1D1D1B"/>
<path d="M126.494 58.9416C122.128 67.1729 122.003 74.9677 123.687 84.0096C117.45 76.9008 118.51 64.2421 126.494 58.9416Z" fill="#1D1D1B"/>
<path d="M140.778 65.4893C132.42 69.5425 127.679 75.716 123.687 84.0096C122.814 74.5936 131.172 64.9904 140.778 65.4893Z" fill="#1D1D1B"/>
<path d="M126.494 138.761C118.51 133.46 117.45 120.801 123.687 113.693C122.003 122.735 122.128 130.467 126.494 138.761Z" fill="#1D1D1B"/>
<path d="M140.778 132.275C131.235 132.712 122.876 123.171 123.687 113.755C127.679 122.049 132.357 128.222 140.778 132.275Z" fill="#1D1D1B"/>
</svg>
