<svg width="547" height="534" viewBox="0 0 547 534" fill="none" xmlns="http://www.w3.org/2000/svg">
<path d="M331.938 155.163C331.938 155.163 313.08 188.351 314.764 214.981C315.763 230.821 320.267 243.803 331.938 243.979C343.609 244.155 355.104 232.975 355.104 214.158C355.104 195.342 327.238 167.166 294.849 167.166C294.849 167.166 284.725 167.42 279.849 169.163C274.973 170.905 256.996 177.269 233.36 163.249C232.871 162.956 232.264 162.936 231.774 163.249C229.072 164.894 220.593 171.532 221.415 189.33C222.414 210.497 232.244 217.487 251.748 227.825C271.252 238.164 255.586 264.48 255.253 281.651C254.92 298.823 256.428 316.485 262.42 333.813C268.413 351.142 292.342 387.385 292.342 410.392C292.342 433.399 285.958 440.643 285.958 440.643C285.958 440.643 266.454 440.134 266.454 459.264H305.443" stroke="#FF43A1" stroke-width="5.0119" stroke-miterlimit="10"/>
<path d="M328.276 257.273C328.276 257.273 328.922 285.136 378.916 320.811C428.91 356.487 438.583 390.791 438.583 411.468C438.583 432.145 428.087 457.952 404.589 457.952H332.584C332.584 457.952 328.022 438.841 358.413 438.626C358.492 438.626 358.531 438.528 358.453 438.509C354.066 437.392 322.068 428.62 322.068 409.393C322.068 396.019 323.811 381.765 346.449 372.268C369.086 362.772 391.41 383.801 402.239 398.467C413.068 413.132 436.743 454.29 463.394 454.29C490.046 454.29 501.384 411.801 480.901 379.963" stroke="#FF43A1" stroke-width="5.0119" stroke-miterlimit="10"/>
<path d="M123.94 333.072C123.94 333.072 136.411 287.929 182.056 269.601C182.056 269.601 175.55 284.351 186.691 291.653C197.832 298.955 197.042 308.774 197.167 312.768C197.271 316.2 199.557 319.924 201.033 321.568C201.386 321.963 201.407 322.545 201.075 322.941C198.144 326.498 184.758 340.79 167.922 328.1C167.818 328.017 167.672 328.121 167.756 328.245C170.084 331.74 181.64 350.879 173.014 374.054C163.557 399.455 149.797 414.1 169.356 447.323C169.626 447.781 169.294 448.342 168.774 448.301C160.917 447.489 117.891 443.204 104.568 443.994C89.8932 444.889 73.9715 446.304 74.6782 454.625C75.3849 462.946 98.2073 468.521 122.215 455.249C146.222 441.976 142.418 410.376 141.545 403.99C140.672 397.603 133.584 374.595 119.076 369.81C104.568 365.026 82.0986 369.269 63.3501 389.116C44.6016 408.962 36.1003 435.153 43.7078 453.377C51.3153 471.6 63.4332 485.767 91.556 488.971C119.679 492.175 136.141 487.515 145.827 490.157C145.827 490.157 163.931 492.736 165.469 511.792C167.007 530.848 150.088 531.056 150.088 531.056" stroke="#FF43A1" stroke-width="5.0119" stroke-miterlimit="10"/>
<path d="M461.53 259.329C461.53 259.329 488.877 254.827 505.941 224.052C523.004 193.276 525.813 167.163 525.813 167.163C525.813 167.163 482.32 178.194 463.582 196.28C444.845 214.366 444.153 241.14 446.627 255.86C449.101 270.579 463.63 301.199 496.171 317.481C496.171 317.481 500.55 302.424 461.391 292.434C422.231 282.443 396.459 267.428 395.491 251.35C394.523 235.271 401.022 224.83 403.686 218.31C406.35 211.79 406.951 205.182 404.777 202.805C402.742 200.584 401.895 196.226 402.519 192.791C402.519 192.791 397.011 184.805 391.609 187.628C391.609 187.628 396.573 175.88 411.13 181.108C411.13 181.108 420.043 173.711 431.919 183.365C443.795 193.018 438.782 202.883 438.782 202.883" stroke="#FF43A1" stroke-width="5.0119" stroke-miterlimit="10"/>
<path d="M66.3991 247.194C66.4963 247.488 66.5691 247.77 66.6235 248.058C65.1307 249.897 63.7296 251.829 62.4261 253.871C61.6084 255.161 60.8395 256.476 60.132 257.79C56.1739 258.528 52.1806 256.258 50.8799 252.324C49.4638 248.04 51.7903 243.416 56.0746 242C60.3589 240.584 64.9829 242.91 66.3991 247.194Z" stroke="#FF43A1" stroke-width="5.0119" stroke-miterlimit="10"/>
<path d="M194.369 237.256C179.821 226.259 161.939 221.341 145.726 219.807M145.726 219.807C129.171 218.224 114.327 220.153 106.586 222.712C93.1078 227.168 77.7964 234.901 67.0769 248.01C65.5841 249.849 64.183 251.781 62.8796 253.823C62.0618 255.113 61.293 256.428 60.5854 257.743C54.6357 268.744 52.4019 280.374 51.5035 289.379M145.726 219.807C150.419 245.973 120.622 254.681 105.746 259.598C89.9143 264.832 76.4518 265.509 58.1153 282.911C55.8011 285.103 53.5971 287.26 51.5035 289.379M145.726 219.807C145.406 218.098 144.957 216.309 144.337 214.434C142.824 209.856 140.549 206.121 137.77 203.083M51.5035 289.379C51.1203 293.218 50.9709 296.592 50.8846 299.231C50.5728 308.777 42.5433 333.478 35.0331 324.519C28.4633 316.677 37.0137 304.04 51.5035 289.379ZM137.77 203.083C135.703 204.541 133.501 205.779 131.055 206.587C120.961 209.924 101.624 206.16 90.5535 190.812C90.5535 190.812 122.105 185.929 137.77 203.083ZM137.77 203.083C144.138 198.591 149.072 192.045 155.729 189.845C164.536 186.933 185.315 191.913 188.688 202.117C192.062 212.322 166.274 216.869 166.274 216.869" stroke="#FF43A1" stroke-width="5.0119" stroke-miterlimit="10"/>
<path d="M435.9 139.561C437.23 141.351 437.995 143.498 438.095 145.726L437.105 165.028C437.161 165.978 437.459 166.899 437.971 167.702C438.482 168.505 439.19 169.164 440.028 169.616C440.866 170.069 441.805 170.3 442.757 170.287C443.709 170.275 444.642 170.02 445.468 169.546L462.45 159.221C464.33 158.295 466.432 157.916 468.516 158.127C481.487 160.422 494.852 158.062 506.252 151.463C517.653 144.864 526.356 134.451 530.827 122.061C535.298 109.67 535.249 96.0988 530.689 83.7409C526.129 71.383 517.351 61.0328 505.903 54.5165C494.455 48.0001 481.074 45.7363 468.12 48.1245C455.166 50.5127 443.471 57.3994 435.1 67.5695C426.728 77.7397 422.218 90.5398 422.364 103.711C422.511 116.883 427.304 129.58 435.9 139.561Z" stroke="#5054DB" stroke-width="3.34127" stroke-linecap="round" stroke-linejoin="round"/>
<path d="M285.109 111.445C286.519 113.359 287.324 115.65 287.422 118.024L286.279 138.59C286.335 139.603 286.648 140.585 287.19 141.443C287.731 142.301 288.483 143.006 289.374 143.492C290.264 143.978 291.264 144.228 292.279 144.22C293.293 144.211 294.289 143.943 295.171 143.441L313.314 132.515C315.322 131.537 317.563 131.142 319.784 131.377C333.596 133.881 347.849 131.425 360.027 124.445C372.206 117.464 381.528 106.406 386.348 93.2221C391.168 80.0383 391.177 65.5757 386.373 52.386C381.569 39.1963 372.261 28.1272 360.091 21.1316C347.921 14.136 333.671 11.6635 319.855 14.1503C306.04 16.6371 293.547 23.9234 284.58 34.7237C275.614 45.5239 270.749 59.1441 270.846 73.1811C270.943 87.2181 275.995 100.77 285.109 111.445Z" stroke="#5054DB" stroke-width="3.34127" stroke-linecap="round" stroke-linejoin="round"/>
<path d="M220.9 358.168C219.386 358.347 217.852 358.07 216.497 357.371L205.386 350.211C204.804 349.92 204.156 349.784 203.506 349.814C202.856 349.844 202.224 350.039 201.67 350.382C201.116 350.725 200.66 351.203 200.343 351.772C200.026 352.34 199.86 352.981 199.86 353.632L200.2 367.219C200.109 368.649 199.618 370.025 198.783 371.189C193.005 378.1 189.854 386.83 189.886 395.838C189.917 404.846 193.129 413.554 198.955 420.424C204.781 427.295 212.847 431.887 221.728 433.391C230.61 434.894 239.738 433.212 247.5 428.642C255.263 424.072 261.162 416.907 264.157 408.411C267.151 399.915 267.049 390.635 263.868 382.207C260.687 373.779 254.632 366.746 246.77 362.347C238.909 357.949 229.747 356.469 220.9 358.168Z" stroke="#5054DB" stroke-width="3.34127" stroke-linecap="round" stroke-linejoin="round"/>
<path d="M146.209 135.214C145.157 137.162 144.712 139.381 144.932 141.585L148.664 160.411C148.745 161.353 148.583 162.3 148.195 163.162C147.808 164.024 147.206 164.773 146.447 165.337C145.689 165.902 144.799 166.263 143.862 166.387C142.924 166.511 141.971 166.393 141.092 166.046L122.929 158.327C120.949 157.686 118.829 157.614 116.811 158.119C104.393 162.228 90.9228 161.819 78.777 156.964C66.6312 152.109 56.5904 143.12 50.4262 131.583C44.262 120.047 42.3704 106.704 45.0853 93.9086C47.8002 81.1133 54.947 69.6881 65.2649 61.6486C75.5827 53.6092 88.4085 49.4722 101.479 49.9676C114.55 50.463 127.026 55.5589 136.706 64.3563C146.386 73.1536 152.647 85.0871 154.386 98.0511C156.124 111.015 153.228 124.177 146.209 135.214Z" stroke="#5054DB" stroke-width="3.34127" stroke-linecap="round" stroke-linejoin="round"/>
<path d="M340.14 99.6405C338.75 101.485 336.235 100.19 334.363 100.453C332.831 100.669 331.448 101.484 330.517 102.72C329.586 103.955 329.184 105.51 329.4 107.042C329.615 108.574 330.43 109.958 331.666 110.889C332.902 111.82 334.457 112.222 335.989 112.006C336.295 111.963 336.606 112.043 336.853 112.23C337.1 112.416 337.263 112.692 337.306 112.999C337.522 114.531 338.337 115.914 339.573 116.845C340.809 117.776 342.363 118.178 343.895 117.963C345.427 117.747 346.811 116.932 347.742 115.696C348.673 114.461 349.075 112.906 348.859 111.374C348.596 109.502 346.657 107.442 348.047 105.597L361.946 87.1479C363.336 85.303 365.851 86.5986 367.722 86.3353C369.254 86.1198 370.638 85.3045 371.569 84.0689C372.5 82.8332 372.901 81.2783 372.686 79.7463C372.47 78.2143 371.655 76.8306 370.42 75.8997C369.184 74.9688 367.629 74.5669 366.097 74.7824C365.45 74.8734 364.87 74.4366 364.779 73.7896C364.564 72.2576 363.748 70.874 362.513 69.943C361.277 69.0121 359.722 68.6102 358.19 68.8257C356.658 69.0412 355.274 69.8565 354.344 71.0922C353.413 72.3279 353.011 73.8828 353.226 75.4148C353.489 77.2863 355.429 79.3463 354.039 81.1912L340.14 99.6405Z" stroke="#4D3D3D" stroke-width="3.5" stroke-linecap="round" stroke-linejoin="round"/>
<path d="M313.367 75.6367L317.542 74.6998L315.923 77.2556L313.367 75.6367Z" stroke="#4D3D3D" stroke-width="3.5" stroke-linecap="round" stroke-linejoin="round"/>
<path d="M325.182 66.4077L325.495 67.7993" stroke="#4D3D3D" stroke-width="3.5" stroke-linecap="round" stroke-linejoin="round"/>
<path d="M291.233 65.9794C291.129 69.1619 291.431 72.3448 292.131 75.4511C294.737 87.0624 306.125 91.1483 318.421 88.3887C330.717 85.6291 339.267 77.0684 336.661 65.4572C335.947 62.3406 334.789 59.3428 333.222 56.5557" stroke="#4D3D3D" stroke-width="3.5" stroke-linecap="round" stroke-linejoin="round"/>
<path d="M302.917 71.405L303.23 72.7966" stroke="#4D3D3D" stroke-width="3.5" stroke-linecap="round" stroke-linejoin="round"/>
<path d="M300.873 55.7855C300.46 58.9476 299.126 62.1062 295.911 64.2075C290.988 67.423 285.773 65.6145 285.111 63.7079C284.176 61.0121 284.308 44.7988 291.872 41.7275C297.023 39.6329 302.561 41.7987 303.429 45.6673C306.748 43.9833 310.45 43.1949 314.167 43.38C313.299 39.5115 317.677 34.9976 323.229 34.6899C331.38 34.2346 338.428 48.8363 338.734 51.6734C338.951 53.6799 335.009 57.5434 329.184 56.7401C325.379 56.2141 323.115 53.8632 321.391 51.1808" stroke="#4D3D3D" stroke-width="3.5" stroke-linecap="round" stroke-linejoin="round"/>
<path d="M455.032 139.925C452.604 139.931 450.238 139.179 448.285 137.782C446.331 136.384 444.893 134.415 444.182 132.164C443.471 129.914 443.526 127.501 444.339 125.283C445.151 123.066 446.677 121.16 448.693 119.847C447.45 118.342 446.704 116.51 446.55 114.588C446.397 112.666 446.844 110.744 447.834 109.072C448.823 107.4 450.308 106.056 452.097 105.213C453.886 104.371 455.895 104.07 457.862 104.349V104.267C457.862 102.084 458.757 99.9913 460.349 98.448C461.941 96.9048 464.101 96.0378 466.352 96.0378C468.604 96.0378 470.764 96.9048 472.356 98.448C473.948 99.9913 474.843 102.084 474.843 104.267V104.376C476.81 104.097 478.819 104.398 480.608 105.241C482.396 106.083 483.882 107.428 484.871 109.1C485.86 110.772 486.307 112.694 486.154 114.615C486.001 116.537 485.254 118.369 484.012 119.874C486.015 121.191 487.529 123.096 488.333 125.309C489.137 127.521 489.189 129.925 488.479 132.168C487.77 134.411 486.338 136.375 484.393 137.771C482.448 139.167 480.093 139.922 477.673 139.925H455.032Z" stroke="#4D3D3D" stroke-width="3.5" stroke-linecap="round" stroke-linejoin="round"/>
<path d="M466.352 139.927V148.155" stroke="#4D3D3D" stroke-width="3.5" stroke-linecap="round" stroke-linejoin="round"/>
<path d="M488.679 67.3909H488.66" stroke="#4D3D3D" stroke-width="3.5" stroke-linecap="round" stroke-linejoin="round"/>
<path d="M518.06 93.0415H498.006C493.058 93.0415 488.313 91.076 484.814 87.5774C481.316 84.0789 479.35 79.3338 479.35 74.386V67.3902C479.345 65.4032 479.975 63.4664 481.147 61.8621C482.319 60.2578 483.973 59.0698 485.868 58.4712C487.763 57.8726 489.799 57.8947 491.68 58.5342C493.562 59.1738 495.19 60.3974 496.327 62.0268L521.325 97.7054" stroke="#4D3D3D" stroke-width="3.5" stroke-linecap="round" stroke-linejoin="round"/>
<path d="M479.351 67.3909L474.687 68.5568L479.351 69.7228" stroke="#4D3D3D" stroke-width="3.5" stroke-linecap="round" stroke-linejoin="round"/>
<path d="M502.671 93.042V100.038" stroke="#4D3D3D" stroke-width="3.5" stroke-linecap="round" stroke-linejoin="round"/>
<path d="M493.342 92.459V100.038" stroke="#4D3D3D" stroke-width="3.5" stroke-linecap="round" stroke-linejoin="round"/>
<path d="M509.666 93.0429C506.79 93.0427 503.985 92.1566 501.631 90.505C499.277 88.8535 497.489 86.5168 496.51 83.8129C495.532 81.1089 495.41 78.1692 496.162 75.3936C496.913 72.6181 498.502 70.1415 500.711 68.301" stroke="#4D3D3D" stroke-width="3.5" stroke-linecap="round" stroke-linejoin="round"/>
<path d="M216.577 398.408C216.364 389.759 223.861 381.127 232.093 378.671C240.325 376.216 247.858 380.365 252.418 387.717C252.638 396.389 248.603 403.964 240.371 406.419C232.139 408.875 221.144 405.784 216.577 398.408Z" stroke="#4D3D3D" stroke-width="3.5" stroke-linecap="round" stroke-linejoin="round"/>
<path d="M243.169 390.476L243.514 391.632" stroke="#4D3D3D" stroke-width="3.5" stroke-linecap="round" stroke-linejoin="round"/>
<path d="M242.635 405.568C238.453 402.527 235.386 398.195 233.908 393.239C232.429 388.283 232.622 382.979 234.455 378.144" stroke="#4D3D3D" stroke-width="3.5" stroke-linecap="round" stroke-linejoin="round"/>
<path d="M216.816 394.988C214.975 388.814 210.291 385.1 203.377 385.979C202.099 390.137 204.513 398.23 208.392 400.85C206.559 405.174 208.974 413.267 212.344 416.039C218.61 412.986 220.493 407.313 218.651 401.139" stroke="#4D3D3D" stroke-width="3.5" stroke-linecap="round" stroke-linejoin="round"/>
<path d="M222.465 384.716C220.911 381.705 217.399 378.623 213.838 376.563L227.249 372.562C228.345 372.231 229.523 372.3 230.573 372.757C231.623 373.214 232.476 374.03 232.98 375.058L234.477 378.137" stroke="#4D3D3D" stroke-width="3.5" stroke-linecap="round" stroke-linejoin="round"/>
<path d="M242.658 405.561L243.092 408.956C243.234 410.093 242.967 411.242 242.339 412.2C241.712 413.157 240.764 413.861 239.665 414.184L229.722 417.15C231.205 413.941 231.454 410.299 230.423 406.919" stroke="#4D3D3D" stroke-width="3.5" stroke-linecap="round" stroke-linejoin="round"/>
<path d="M72.2036 96.0262L66.1745 92.0324M89.1222 95.1842L81.8814 90.3622M60.3711 118.037C60.3711 118.037 82.8496 104.603 88.4557 96.185C89.2759 94.9555 89.8459 93.5765 90.1332 92.1267C90.4204 90.6769 90.4193 89.1847 90.1298 87.7354C89.8404 86.286 89.2684 84.9079 88.4463 83.6796C87.6243 82.4514 86.5684 81.397 85.3389 80.5769C84.1094 79.7567 82.7304 79.1867 81.2806 78.8994C79.8308 78.6122 78.3386 78.6133 76.8893 78.9027C75.4399 79.1922 74.0618 79.7642 72.8335 80.5863C71.6053 81.4083 70.5509 82.4642 69.7308 83.6937C64.105 92.1413 60.3711 118.037 60.3711 118.037Z" stroke="#4D3D3D" stroke-width="3.5" stroke-linecap="round" stroke-linejoin="round"/>
<path d="M102.502 77.2001C102.502 77.2001 98.2578 72.9504 92.9374 74.0172C88.9165 74.8234 85.3394 80.6414 85.3394 80.6414C85.3394 80.6414 89.5835 84.8911 94.9039 83.8243C100.224 82.7575 102.502 77.2001 102.502 77.2001Z" stroke="#4D3D3D" stroke-width="3.5" stroke-linecap="round" stroke-linejoin="round"/>
<path d="M81.8984 63.478C81.8984 63.478 77.6487 67.7221 78.7155 73.0425C79.7823 78.3628 85.3397 80.6405 85.3397 80.6405C85.3397 80.6405 89.3387 75.146 88.5226 71.076C87.4558 65.7556 81.8984 63.478 81.8984 63.478Z" stroke="#4D3D3D" stroke-width="3.5" stroke-linecap="round" stroke-linejoin="round"/>
<path d="M114.88 128.284C116.628 128.281 118.34 128.786 119.808 129.735C121.277 130.685 122.438 132.039 123.153 133.635C123.868 135.231 124.106 137 123.837 138.727C123.568 140.455 122.805 142.068 121.639 143.371" stroke="#4D3D3D" stroke-width="3.5" stroke-linecap="round" stroke-linejoin="round"/>
<path d="M129.967 116.213H129.998" stroke="#4D3D3D" stroke-width="3.5" stroke-linecap="round" stroke-linejoin="round"/>
<path d="M129.967 143.371H105.827C102.626 143.371 99.5558 142.099 97.2922 139.835C95.0286 137.572 93.7569 134.502 93.7569 131.3C93.7569 125.698 95.9823 120.326 99.9436 116.364C103.905 112.403 109.278 110.178 114.88 110.178H115.483L104.62 99.3145C104.065 98.7597 103.625 98.1011 103.325 97.3762C103.025 96.6514 102.87 95.8745 102.87 95.0899C102.87 93.5054 103.5 91.9858 104.62 90.8653C105.74 89.7449 107.26 89.1155 108.845 89.1155C109.629 89.1155 110.406 89.27 111.131 89.5703C111.856 89.8705 112.514 90.3106 113.069 90.8653L123.329 101.125H123.932C133.89 101.125 142.038 109.272 142.038 119.23V122.248C142.038 123.848 141.402 125.383 140.27 126.515C139.138 127.647 137.603 128.283 136.002 128.283H132.985C130.584 128.283 128.281 129.237 126.584 130.934C124.886 132.632 123.932 134.935 123.932 137.335" stroke="#4D3D3D" stroke-width="3.5" stroke-linecap="round" stroke-linejoin="round"/>
<path d="M136.003 105.773V92.0729C136.003 90.4723 135.367 88.9373 134.235 87.8055C133.103 86.6737 131.568 86.0378 129.968 86.0378C128.367 86.0378 126.832 86.6737 125.7 87.8055C124.568 88.9373 123.932 90.4723 123.932 92.0729V101.126" stroke="#4D3D3D" stroke-width="3.5" stroke-linecap="round" stroke-linejoin="round"/>
<path d="M98.6206 117.795C97.7721 116.293 96.5122 115.065 94.9893 114.256C93.4664 113.446 91.7438 113.088 90.0243 113.224C88.3048 113.36 86.6601 113.985 85.2836 115.024C83.9072 116.064 82.8563 117.475 82.2548 119.091C81.6533 120.708 81.5262 122.463 81.8883 124.149C82.2505 125.836 83.0869 127.383 84.2991 128.611C85.5113 129.838 87.0489 130.693 88.7307 131.075C90.4126 131.458 92.1688 131.352 93.7926 130.771" stroke="#4D3D3D" stroke-width="3.5" stroke-linecap="round" stroke-linejoin="round"/>
</svg>
