<svg width="119" height="114" viewBox="0 0 119 114" fill="none" xmlns="http://www.w3.org/2000/svg">
<path d="M106.59 98.3452C101.187 103.948 94.1443 108.131 85.9835 110.036C77.2265 112.09 68.3204 113.099 59.4143 113.099C50.5083 113.099 41.565 112.09 32.8452 110.036C31.6155 109.737 30.4231 109.401 29.2306 109.028C23.0821 107.011 17.7161 103.686 13.319 99.4284C19.2812 60.0979 55.1663 62.2269 55.1663 62.2269H56.0234C56.9922 63.198 58.4083 64.0571 58.4083 64.0571C58.7064 64.2812 59.1908 64.5426 59.4143 64.5426C59.6007 64.5426 60.3087 64.1318 60.6441 63.945C60.6441 63.945 62.0601 63.0486 62.9544 62.1522H63.4388C63.4388 62.1522 100.665 59.0147 106.59 98.3452Z" fill="white"/>
<path d="M106.59 98.457C100.665 59.1265 63.4388 62.264 63.4388 62.264H62.9544C62.0601 63.1604 60.644 64.0568 60.644 64.0568C60.3086 64.2436 59.6006 64.6545 59.4143 64.6545C59.1907 64.6545 58.7063 64.393 58.4082 64.1689C58.4082 64.1689 56.9922 63.3098 56.0233 62.3387H55.1662C55.1662 62.3387 19.2811 60.2097 13.3189 99.5029C1.76711 88.447 -3.18898 71.1162 2.13975 54.6444L8.25102 35.7822C8.62366 34.699 8.99632 33.6158 9.44349 32.57C8.84727 29.9928 7.72932 26.818 5.56802 16.285C2.88502 3.13748 12.2383 0 12.2383 0C20.7344 6.76052 30.5721 12.0643 30.5721 12.0643C34.8947 10.3836 39.5527 9.48714 44.3597 9.48714H74.4317C80.3939 9.48714 91.1631 13.3716 91.2376 13.409C91.2376 13.409 102.081 7.39548 110.652 0.709662C110.652 0.709662 120.043 3.92185 117.173 17.032C114.341 30.1422 111.546 38.845 111.546 38.845L116.652 54.6818C121.794 70.5559 117.322 87.3265 106.59 98.457Z" fill="#FCB43E"/>
<path d="M63.6243 61.0314C63.6243 61.3676 63.3262 61.7411 62.9536 62.1519C62.0593 63.0484 60.6432 63.9448 60.6432 63.9448C60.3078 64.1315 59.5998 64.5424 59.4135 64.5424C59.1899 64.5424 58.7055 64.281 58.4074 64.0568C58.4074 64.0568 56.9914 63.1978 56.0225 62.2266C55.5008 61.7037 55.0909 61.1061 55.2027 60.6206C55.3145 60.3964 55.4635 60.247 55.6871 60.135C55.7244 60.0976 55.7617 60.0603 55.8362 60.0603C55.9107 60.0229 56.0225 59.9856 56.097 59.9482H56.1715C57.0659 59.7988 58.221 60.2097 59.4135 60.2097C60.3823 60.2097 61.3513 59.7988 62.4319 59.9856C63.0281 60.0603 63.6243 60.5085 63.6243 61.0314Z" fill="#1D1D1B" stroke="#1D1D1B" stroke-width="5.67625" stroke-miterlimit="10"/>
<path d="M52.3339 85.3846L58.1843 73.9926L57.8489 75.0757V65.2524H61.5753V75.0757V75.7854L61.2027 76.1589L52.3339 85.3846Z" fill="#1D1D1B"/>
<path d="M61.2399 74.0298L66.4941 85.3845L58.147 76.1214L61.2399 74.0298Z" fill="#1D1D1B"/>
<path d="M75.1763 53.0762H91.8332C91.8332 57.6703 88.1068 61.4054 83.5233 61.4054C78.9399 61.4054 75.2135 57.6703 75.2135 53.0762H75.1763Z" fill="#1D1D1B" stroke="#1D1D1B" stroke-width="0.202723" stroke-miterlimit="10"/>
<path d="M27.5905 53.0762H44.2474C44.2474 57.6703 40.521 61.4054 35.9376 61.4054C31.3541 61.4054 27.6277 57.6703 27.6277 53.0762H27.5905Z" fill="#1D1D1B" stroke="#1D1D1B" stroke-width="0.202723" stroke-miterlimit="10"/>
<path d="M108.081 32.4963C108.081 32.4963 102.379 24.167 96.7898 17.2571L108.006 10.123C108.006 10.123 112.776 13.0738 104.168 24.7646C104.168 24.7646 105.435 26.4454 108.081 32.4963Z" fill="#1D1D1B"/>
<path d="M13.5793 31.2998C13.5793 31.2998 20.2495 23.4561 25.8391 16.5461L14.6227 9.41211C14.6227 9.41211 9.62935 12.0267 18.2373 23.7549C18.2373 23.7549 17.2311 25.1742 13.542 31.2998H13.5793Z" fill="#1D1D1B"/>
<path d="M83.5616 75.7481C78.6428 73.1336 73.9848 73.0589 68.5815 74.0674C72.8296 70.3323 80.3942 70.9672 83.5616 75.7481Z" fill="#1D1D1B"/>
<path d="M79.6489 84.3011C77.2268 79.296 73.5376 76.4574 68.5815 74.0669C74.2084 73.544 79.947 78.549 79.6489 84.3011Z" fill="#1D1D1B"/>
<path d="M35.8633 75.7481C39.0307 70.9672 46.5953 70.3323 50.8434 74.0674C45.4401 73.0589 40.8194 73.1336 35.8633 75.7481Z" fill="#1D1D1B"/>
<path d="M39.7385 84.3019C39.4776 78.5872 45.179 73.5822 50.8059 74.0678C45.8498 76.4582 42.1606 79.2596 39.7385 84.3019Z" fill="#1D1D1B"/>
</svg>
