<svg width="1147" height="745" viewBox="0 0 1147 745" fill="none" xmlns="http://www.w3.org/2000/svg">
<path d="M176.006 167.48L189.15 181.884L180.135 191.765L168.58 179.101C165.402 175.619 161.649 174.034 158.331 177.67C155.014 181.306 156.532 185.341 159.709 188.823L171.264 201.487L162.249 211.367L150.694 198.704C147.516 195.221 143.835 193.558 140.517 197.194C137.2 200.83 138.646 204.944 141.823 208.426L153.378 221.09L144.363 230.97L131.219 216.565C124.214 208.888 122.331 197.655 130.986 188.17C135.746 182.953 141.013 181.296 145.633 182.881C144.186 177.66 145.987 171.729 150.314 166.986C158.969 157.501 169.218 159.565 176.223 167.242L176.006 167.48Z" fill="white" fill-opacity="0.2"/>
<path d="M248.618 306.504L235.475 292.099L244.49 282.219L256.045 294.882C259.222 298.365 262.976 299.95 266.294 296.314C269.611 292.678 268.093 288.643 264.916 285.16L253.361 272.497L262.376 262.616L273.931 275.28C277.108 278.762 280.79 280.426 284.107 276.79C287.425 273.154 285.979 269.04 282.802 265.557L271.247 252.894L280.262 243.013L293.406 257.418C300.41 265.095 302.294 276.328 293.639 285.814C288.879 291.03 283.612 292.688 278.992 291.102C280.439 296.324 278.638 302.255 274.311 306.997C265.656 316.482 255.407 314.419 248.402 306.741L248.618 306.504Z" fill="white" fill-opacity="0.2"/>
<path d="M180.976 271.415L144.218 231.129L153.233 221.249L165.582 234.783C166.374 231.857 167.816 229.011 170.124 226.481C177.985 217.866 186.718 218.742 194.806 227.607L207.877 241.932L198.79 251.892L186.73 238.674C183.913 235.587 179.871 234.477 177.131 237.481C174.246 240.642 174.826 244.914 177.931 248.317L189.991 261.535L180.976 271.415Z" fill="white" fill-opacity="0.2"/>
<path d="M207.876 241.932L244.634 282.218L235.619 292.099L223.27 278.565C222.478 281.491 221.036 284.337 218.728 286.866C210.867 295.482 202.134 294.606 194.046 285.741L180.975 271.416L190.062 261.456L202.122 274.674C204.939 277.76 208.981 278.871 211.721 275.867C214.606 272.705 214.026 268.434 210.921 265.03L198.861 251.813L207.876 241.932Z" fill="white" fill-opacity="0.2"/>
<path d="M216.822 232.127L180.064 191.841L189.08 181.961L201.428 195.495C202.221 192.569 203.662 189.723 205.97 187.193C213.831 178.578 222.564 179.454 230.652 188.318L243.723 202.644L234.636 212.604L222.576 199.386C219.76 196.299 215.718 195.189 212.977 198.193C210.092 201.354 210.672 205.626 213.777 209.029L225.837 222.247L216.822 232.127Z" fill="white" fill-opacity="0.2"/>
<path d="M243.723 202.645L280.481 242.931L271.466 252.812L259.117 239.277C258.325 242.203 256.883 245.05 254.575 247.579C246.714 256.195 237.981 255.319 229.893 246.454L216.822 232.128L225.909 222.169L237.969 235.387C240.786 238.473 244.828 239.584 247.568 236.58C250.453 233.418 249.873 229.147 246.768 225.743L234.708 212.526L243.723 202.645Z" fill="white" fill-opacity="0.2"/>
<path d="M184.305 284.699L197.448 299.104L188.433 308.984L176.879 296.321C173.701 292.838 169.948 291.254 166.63 294.89C163.312 298.526 164.83 302.561 168.008 306.043L179.562 318.707L170.547 328.587L158.993 315.924C155.815 312.441 152.134 310.777 148.816 314.413C145.499 318.049 146.944 322.163 150.122 325.646L161.676 338.31L152.661 348.19L139.518 333.785C132.513 326.108 130.63 314.875 139.285 305.39C144.045 300.173 149.312 298.516 153.932 300.101C152.485 294.88 154.286 288.949 158.613 284.206C167.267 274.721 177.517 276.785 184.522 284.462L184.305 284.699Z" fill="white" fill-opacity="0.2"/>
<path d="M256.99 423.802L243.846 409.398L252.861 399.517L264.416 412.181C267.593 415.663 271.347 417.248 274.665 413.612C277.982 409.976 276.464 405.941 273.287 402.458L261.732 389.795L270.747 379.914L282.302 392.578C285.479 396.061 289.161 397.724 292.479 394.088C295.796 390.452 294.35 386.338 291.173 382.856L279.618 370.192L288.633 360.312L301.777 374.717C308.782 382.394 310.665 393.627 302.01 403.112C297.25 408.329 291.983 409.986 287.363 408.401C288.81 413.622 287.009 419.553 282.682 424.296C274.027 433.781 263.778 431.717 256.773 424.04L256.99 423.802Z" fill="white" fill-opacity="0.2"/>
<path d="M189.276 388.636L152.518 348.35L161.533 338.47L173.882 352.004C174.674 349.078 176.116 346.232 178.424 343.702C186.285 335.086 195.018 335.963 203.106 344.827L216.177 359.153L207.09 369.112L195.03 355.895C192.214 352.808 188.171 351.698 185.431 354.701C182.546 357.863 183.126 362.135 186.231 365.538L198.291 378.756L189.276 388.636Z" fill="white" fill-opacity="0.2"/>
<path d="M216.177 359.152L252.935 399.438L243.92 409.318L231.571 395.784C230.779 398.71 229.337 401.557 227.029 404.086C219.168 412.702 210.435 411.825 202.347 402.961L189.276 388.635L198.363 378.676L210.423 391.893C213.24 394.98 217.282 396.09 220.022 393.087C222.907 389.925 222.327 385.653 219.222 382.25L207.162 369.033L216.177 359.152Z" fill="white" fill-opacity="0.2"/>
<path d="M225.122 349.349L188.364 309.063L197.379 299.183L209.728 312.717C210.52 309.791 211.962 306.944 214.27 304.415C222.131 295.799 230.864 296.676 238.952 305.54L252.023 319.866L242.936 329.825L230.876 316.608C228.06 313.521 224.017 312.411 221.277 315.414C218.392 318.576 218.972 322.848 222.077 326.251L234.137 339.469L225.122 349.349Z" fill="white" fill-opacity="0.2"/>
<path d="M252.023 319.865L288.781 360.151L279.765 370.031L267.417 356.497C266.624 359.423 265.183 362.27 262.875 364.799C255.014 373.415 246.281 372.538 238.193 363.674L225.122 349.348L234.209 339.389L246.269 352.606C249.085 355.693 253.127 356.803 255.868 353.8C258.753 350.638 258.173 346.366 255.068 342.963L243.008 329.745L252.023 319.865Z" fill="white" fill-opacity="0.2"/>
<path d="M317.389 175.252L330.532 189.657L321.517 199.537L309.963 186.874C306.785 183.391 303.032 181.807 299.714 185.443C296.396 189.079 297.914 193.113 301.092 196.596L312.646 209.259L303.631 219.14L292.077 206.476C288.899 202.994 285.218 201.33 281.9 204.966C278.583 208.602 280.028 212.716 283.206 216.199L294.76 228.862L285.745 238.743L272.602 224.338C265.597 216.661 263.714 205.428 272.369 195.943C277.129 190.726 282.396 189.068 287.016 190.654C285.569 185.432 287.37 179.501 291.697 174.759C300.351 165.274 310.601 167.338 317.606 175.015L317.389 175.252Z" fill="white" fill-opacity="0.2"/>
<path d="M390.073 314.355L376.93 299.95L385.945 290.069L397.499 302.733C400.677 306.216 404.431 307.8 407.748 304.164C411.066 300.528 409.548 296.493 406.37 293.011L394.816 280.347L403.831 270.467L415.385 283.13C418.563 286.613 422.244 288.276 425.562 284.64C428.88 281.004 427.434 276.89 424.256 273.408L412.702 260.744L421.717 250.864L434.86 265.269C441.865 272.946 443.748 284.179 435.094 293.664C430.334 298.881 425.066 300.538 420.447 298.953C421.893 304.174 420.092 310.105 415.765 314.848C407.111 324.333 396.862 322.269 389.857 314.592L390.073 314.355Z" fill="white" fill-opacity="0.2"/>
<path d="M322.359 279.187L285.601 238.901L294.616 229.02L306.965 242.555C307.757 239.629 309.199 236.782 311.507 234.253C319.368 225.637 328.101 226.514 336.189 235.378L349.26 249.704L340.173 259.663L328.113 246.446C325.297 243.359 321.254 242.249 318.514 245.252C315.629 248.414 316.209 252.685 319.314 256.089L331.374 269.306L322.359 279.187Z" fill="white" fill-opacity="0.2"/>
<path d="M349.26 249.704L386.018 289.99L377.003 299.87L364.654 286.336C363.862 289.262 362.42 292.108 360.112 294.638C352.251 303.254 343.518 302.377 335.43 293.513L322.359 279.187L331.446 269.228L343.506 282.445C346.323 285.532 350.365 286.642 353.106 283.638C355.99 280.477 355.41 276.205 352.305 272.802L340.245 259.584L349.26 249.704Z" fill="white" fill-opacity="0.2"/>
<path d="M358.206 239.901L321.448 199.615L330.463 189.735L342.812 203.269C343.604 200.343 345.046 197.497 347.353 194.967C355.215 186.352 363.947 187.228 372.036 196.092L385.107 210.418L376.019 220.377L363.959 207.16C361.143 204.073 357.101 202.963 354.36 205.967C351.475 209.128 352.055 213.4 355.161 216.803L367.221 230.021L358.206 239.901Z" fill="white" fill-opacity="0.2"/>
<path d="M385.107 210.418L421.865 250.704L412.85 260.584L400.501 247.05C399.709 249.976 398.267 252.822 395.959 255.352C388.098 263.967 379.365 263.091 371.277 254.227L358.206 239.901L367.293 229.941L379.353 243.159C382.17 246.246 386.212 247.356 388.952 244.352C391.837 241.191 391.257 236.919 388.152 233.516L376.092 220.298L385.107 210.418Z" fill="white" fill-opacity="0.2"/>
<path d="M325.76 292.557L338.903 306.962L329.888 316.842L318.333 304.179C315.156 300.696 311.402 299.112 308.084 302.748C304.767 306.384 306.285 310.419 309.462 313.901L321.017 326.565L312.002 336.445L300.447 323.782C297.27 320.299 293.588 318.635 290.271 322.271C286.953 325.907 288.399 330.021 291.576 333.504L303.131 346.167L294.116 356.048L280.972 341.643C273.967 333.966 272.084 322.733 280.739 313.248C285.499 308.031 290.766 306.374 295.386 307.959C293.939 302.738 295.74 296.807 300.067 292.064C308.722 282.579 318.971 284.643 325.976 292.32L325.76 292.557Z" fill="white" fill-opacity="0.2"/>
<path d="M398.371 431.582L385.228 417.177L394.243 407.297L405.798 419.96C408.975 423.443 412.729 425.027 416.047 421.391C419.364 417.755 417.846 413.72 414.669 410.238L403.114 397.574L412.129 387.694L423.684 400.357C426.861 403.84 430.543 405.503 433.86 401.868C437.178 398.232 435.732 394.117 432.555 390.635L421 377.971L430.015 368.091L443.158 382.496C450.163 390.173 452.047 401.406 443.392 410.891C438.632 416.108 433.365 417.765 428.745 416.18C430.192 421.401 428.391 427.332 424.064 432.075C415.409 441.56 405.16 439.496 398.155 431.819L398.371 431.582Z" fill="white" fill-opacity="0.2"/>
<path d="M330.659 396.413L293.901 356.127L302.916 346.247L315.265 359.781C316.057 356.855 317.499 354.008 319.807 351.479C327.668 342.863 336.401 343.74 344.489 352.604L357.56 366.93L348.473 376.889L336.413 363.672C333.596 360.585 329.554 359.475 326.813 362.478C323.929 365.64 324.509 369.912 327.614 373.315L339.674 386.532L330.659 396.413Z" fill="white" fill-opacity="0.2"/>
<path d="M357.56 366.929L394.318 407.215L385.303 417.096L372.954 403.562C372.162 406.488 370.72 409.334 368.412 411.863C360.551 420.479 351.818 419.603 343.73 410.738L330.659 396.413L339.746 386.453L351.806 399.671C354.623 402.757 358.665 403.868 361.405 400.864C364.29 397.702 363.71 393.431 360.605 390.027L348.545 376.81L357.56 366.929Z" fill="white" fill-opacity="0.2"/>
<path d="M366.505 357.127L329.747 316.841L338.762 306.96L351.111 320.495C351.903 317.569 353.345 314.722 355.653 312.193C363.514 303.577 372.247 304.453 380.335 313.318L393.406 327.644L384.319 337.603L372.259 324.385C369.442 321.299 365.4 320.188 362.66 323.192C359.775 326.354 360.355 330.625 363.46 334.029L375.52 347.246L366.505 357.127Z" fill="white" fill-opacity="0.2"/>
<path d="M393.406 327.645L430.163 367.931L421.148 377.811L408.799 364.277C408.007 367.203 406.566 370.049 404.258 372.579C396.397 381.194 387.664 380.318 379.575 371.454L366.504 357.128L375.592 347.168L387.652 360.386C390.468 363.473 394.51 364.583 397.251 361.579C400.136 358.418 399.556 354.146 396.45 350.743L384.39 337.525L393.406 327.645Z" fill="white" fill-opacity="0.2"/>
<path d="M193.11 402.481L206.253 416.886L197.238 426.767L185.683 414.103C182.506 410.621 178.752 409.036 175.435 412.672C172.117 416.308 173.635 420.343 176.813 423.825L188.367 436.489L179.352 446.369L167.798 433.706C164.62 430.223 160.938 428.56 157.621 432.196C154.303 435.832 155.749 439.946 158.927 443.428L170.481 456.092L161.466 465.972L148.323 451.567C141.318 443.89 139.435 432.657 148.089 423.172C152.849 417.955 158.116 416.298 162.736 417.883C161.29 412.662 163.09 406.731 167.418 401.988C176.072 392.503 186.321 394.567 193.326 402.244L193.11 402.481Z" fill="white" fill-opacity="0.2"/>
<path d="M265.794 541.585L252.65 527.18L261.666 517.299L273.22 529.963C276.398 533.445 280.151 535.03 283.469 531.394C286.786 527.758 285.268 523.723 282.091 520.241L270.536 507.577L279.552 497.697L291.106 510.36C294.284 513.843 297.965 515.506 301.283 511.87C304.6 508.234 303.154 504.12 299.977 500.638L288.422 487.974L297.438 478.094L310.581 492.499C317.586 500.176 319.469 511.409 310.814 520.894C306.054 526.111 300.787 527.768 296.167 526.183C297.614 531.404 295.813 537.335 291.486 542.078C282.831 551.563 272.582 549.499 265.577 541.822L265.794 541.585Z" fill="white" fill-opacity="0.2"/>
<path d="M198.08 506.415L161.323 466.129L170.338 456.248L182.687 469.783C183.479 466.857 184.92 464.01 187.228 461.481C195.089 452.865 203.822 453.742 211.91 462.606L224.981 476.932L215.894 486.891L203.834 473.674C201.018 470.587 196.976 469.477 194.235 472.48C191.35 475.642 191.93 479.914 195.035 483.317L207.095 496.534L198.08 506.415Z" fill="white" fill-opacity="0.2"/>
<path d="M224.981 476.932L261.739 517.218L252.724 527.099L240.375 513.565C239.583 516.491 238.141 519.337 235.833 521.866C227.972 530.482 219.239 529.606 211.151 520.741L198.08 506.416L207.167 496.456L219.227 509.674C222.044 512.76 226.086 513.871 228.826 510.867C231.711 507.705 231.131 503.434 228.026 500.03L215.966 486.813L224.981 476.932Z" fill="white" fill-opacity="0.2"/>
<path d="M233.926 467.13L197.168 426.844L206.183 416.964L218.532 430.498C219.324 427.572 220.766 424.726 223.074 422.196C230.935 413.581 239.668 414.457 247.756 423.321L260.827 437.647L251.74 447.607L239.68 434.389C236.863 431.302 232.821 430.192 230.081 433.196C227.196 436.357 227.776 440.629 230.881 444.032L242.941 457.25L233.926 467.13Z" fill="white" fill-opacity="0.2"/>
<path d="M260.827 437.647L297.585 477.933L288.57 487.813L276.221 474.279C275.429 477.205 273.987 480.051 271.679 482.581C263.818 491.196 255.085 490.32 246.997 481.456L233.926 467.13L243.013 457.17L255.073 470.388C257.89 473.475 261.932 474.585 264.672 471.581C267.557 468.42 266.977 464.148 263.872 460.745L251.812 447.527L260.827 437.647Z" fill="white" fill-opacity="0.2"/>
<path d="M334.564 410.334L347.708 424.738L338.692 434.619L327.138 421.955C323.96 418.473 320.207 416.888 316.889 420.524C313.572 424.16 315.089 428.195 318.267 431.678L329.822 444.341L320.806 454.221L309.252 441.558C306.074 438.075 302.393 436.412 299.075 440.048C295.758 443.684 297.203 447.798 300.381 451.28L311.936 463.944L302.92 473.824L289.777 459.419C282.772 451.742 280.889 440.509 289.544 431.024C294.304 425.807 299.571 424.15 304.191 425.735C302.744 420.514 304.545 414.583 308.872 409.84C317.527 400.355 327.776 402.419 334.781 410.096L334.564 410.334Z" fill="white" fill-opacity="0.2"/>
<path d="M407.248 549.438L394.105 535.033L403.12 525.153L414.674 537.817C417.852 541.299 421.606 542.884 424.923 539.248C428.241 535.612 426.723 531.577 423.545 528.094L411.991 515.431L421.006 505.55L432.56 518.214C435.738 521.696 439.419 523.36 442.737 519.724C446.055 516.088 444.609 511.974 441.431 508.491L429.877 495.828L438.892 485.947L452.035 500.352C459.04 508.03 460.923 519.262 452.269 528.748C447.509 533.964 442.241 535.622 437.622 534.036C439.068 539.258 437.268 545.189 432.94 549.931C424.286 559.416 414.037 557.353 407.032 549.675L407.248 549.438Z" fill="white" fill-opacity="0.2"/>
<path d="M339.535 514.268L302.777 473.982L311.792 464.102L324.141 477.636C324.933 474.71 326.375 471.863 328.683 469.334C336.544 460.718 345.277 461.595 353.365 470.459L366.436 484.785L357.349 494.744L345.289 481.527C342.472 478.44 338.43 477.33 335.69 480.333C332.805 483.495 333.385 487.767 336.49 491.17L348.55 504.387L339.535 514.268Z" fill="white" fill-opacity="0.2"/>
<path d="M366.436 484.785L403.194 525.071L394.179 534.952L381.83 521.418C381.038 524.344 379.596 527.19 377.288 529.719C369.427 538.335 360.694 537.459 352.606 528.594L339.535 514.269L348.622 504.309L360.682 517.527C363.499 520.613 367.541 521.724 370.282 518.72C373.166 515.558 372.586 511.287 369.481 507.883L357.421 494.666L366.436 484.785Z" fill="white" fill-opacity="0.2"/>
<path d="M375.381 474.982L338.623 434.696L347.638 424.815L359.987 438.35C360.779 435.424 362.221 432.577 364.529 430.048C372.39 421.432 381.123 422.308 389.211 431.173L402.282 445.499L393.195 455.458L381.135 442.24C378.319 439.154 374.276 438.043 371.536 441.047C368.651 444.209 369.231 448.48 372.336 451.884L384.396 465.101L375.381 474.982Z" fill="white" fill-opacity="0.2"/>
<path d="M402.281 445.499L439.039 485.785L430.024 495.666L417.675 482.131C416.883 485.057 415.442 487.904 413.134 490.433C405.272 499.049 396.54 498.173 388.451 489.308L375.38 474.982L384.468 465.023L396.528 478.241C399.344 481.327 403.386 482.438 406.127 479.434C409.012 476.272 408.432 472.001 405.326 468.597L393.266 455.38L402.281 445.499Z" fill="white" fill-opacity="0.2"/>
<path d="M458.413 182.63L471.556 197.035L462.541 206.915L450.986 194.252C447.809 190.769 444.055 189.184 440.737 192.82C437.42 196.456 438.938 200.491 442.115 203.974L453.67 216.637L444.655 226.518L433.1 213.854C429.923 210.372 426.241 208.708 422.924 212.344C419.606 215.98 421.052 220.094 424.229 223.577L435.784 236.24L426.769 246.121L413.626 231.716C406.621 224.039 404.737 212.806 413.392 203.32C418.152 198.104 423.419 196.446 428.039 198.032C426.592 192.81 428.393 186.879 432.72 182.137C441.375 172.652 451.624 174.715 458.629 182.393L458.413 182.63Z" fill="white" fill-opacity="0.2"/>
<path d="M531.097 321.733L517.954 307.328L526.969 297.448L538.523 310.111C541.701 313.594 545.455 315.179 548.772 311.543C552.09 307.907 550.572 303.872 547.394 300.389L535.84 287.726L544.855 277.845L556.409 290.509C559.587 293.991 563.268 295.655 566.586 292.019C569.904 288.383 568.458 284.269 565.28 280.786L553.726 268.123L562.741 258.242L575.884 272.647C582.889 280.325 584.772 291.557 576.118 301.043C571.358 306.259 566.09 307.917 561.471 306.331C562.917 311.553 561.116 317.484 556.789 322.226C548.135 331.711 537.886 329.648 530.881 321.97L531.097 321.733Z" fill="white" fill-opacity="0.2"/>
<path d="M463.384 286.564L426.626 246.278L435.641 236.398L447.99 249.932C448.782 247.006 450.224 244.16 452.531 241.63C460.393 233.015 469.125 233.891 477.214 242.755L490.285 257.081L481.197 267.041L469.137 253.823C466.321 250.736 462.279 249.626 459.538 252.63C456.653 255.791 457.233 260.063 460.339 263.466L472.399 276.684L463.384 286.564Z" fill="white" fill-opacity="0.2"/>
<path d="M490.285 257.081L527.042 297.367L518.027 307.248L505.678 293.714C504.886 296.639 503.445 299.486 501.137 302.015C493.276 310.631 484.543 309.755 476.455 300.89L463.384 286.564L472.471 276.605L484.531 289.823C487.347 292.909 491.389 294.02 494.13 291.016C497.015 287.854 496.435 283.583 493.33 280.179L481.27 266.962L490.285 257.081Z" fill="white" fill-opacity="0.2"/>
<path d="M499.229 247.278L462.471 206.992L471.487 197.112L483.835 210.646C484.628 207.72 486.069 204.874 488.377 202.344C496.238 193.729 504.971 194.605 513.059 203.469L526.13 217.795L517.043 227.754L504.983 214.537C502.167 211.45 498.125 210.34 495.384 213.344C492.499 216.505 493.079 220.777 496.184 224.18L508.244 237.398L499.229 247.278Z" fill="white" fill-opacity="0.2"/>
<path d="M526.13 217.795L562.888 258.081L553.873 267.962L541.524 254.427C540.732 257.353 539.29 260.2 536.983 262.729C529.121 271.345 520.388 270.468 512.3 261.604L499.229 247.278L508.316 237.319L520.377 250.536C523.193 253.623 527.235 254.733 529.976 251.73C532.86 248.568 532.281 244.297 529.175 240.893L517.115 227.676L526.13 217.795Z" fill="white" fill-opacity="0.2"/>
<path d="M466.781 299.934L479.924 314.338L470.909 324.219L459.355 311.555C456.177 308.073 452.423 306.488 449.106 310.124C445.788 313.76 447.306 317.795 450.484 321.278L462.038 333.941L453.023 343.822L441.469 331.158C438.291 327.676 434.61 326.012 431.292 329.648C427.974 333.284 429.42 337.398 432.598 340.88L444.152 353.544L435.137 363.424L421.994 349.019C414.989 341.342 413.106 330.109 421.76 320.624C426.52 315.407 431.788 313.75 436.407 315.335C434.961 310.114 436.762 304.183 441.089 299.441C449.743 289.955 459.992 292.019 466.997 299.696L466.781 299.934Z" fill="white" fill-opacity="0.2"/>
<path d="M539.465 439.037L526.321 424.633L535.336 414.752L546.891 427.416C550.068 430.898 553.822 432.483 557.14 428.847C560.457 425.211 558.939 421.176 555.762 417.693L544.207 405.03L553.222 395.149L564.777 407.813C567.954 411.295 571.636 412.959 574.954 409.323C578.271 405.687 576.825 401.573 573.648 398.091L562.093 385.427L571.108 375.547L584.252 389.951C591.257 397.629 593.14 408.862 584.485 418.347C579.725 423.564 574.458 425.221 569.838 423.636C571.285 428.857 569.484 434.788 565.157 439.53C556.502 449.016 546.253 446.952 539.248 439.274L539.465 439.037Z" fill="white" fill-opacity="0.2"/>
<path d="M471.751 403.868L434.994 363.583L444.009 353.702L456.358 367.236C457.15 364.31 458.591 361.464 460.899 358.935C468.76 350.319 477.493 351.195 485.582 360.06L498.653 374.385L489.565 384.345L477.505 371.127C474.689 368.04 470.647 366.93 467.906 369.934C465.021 373.096 465.601 377.367 468.707 380.77L480.767 393.988L471.751 403.868Z" fill="white" fill-opacity="0.2"/>
<path d="M498.653 374.386L535.411 414.671L526.396 424.552L514.047 411.018C513.255 413.944 511.813 416.79 509.505 419.319C501.644 427.935 492.911 427.059 484.823 418.194L471.752 403.869L480.839 393.909L492.899 407.127C495.715 410.214 499.758 411.324 502.498 408.32C505.383 405.158 504.803 400.887 501.698 397.483L489.638 384.266L498.653 374.386Z" fill="white" fill-opacity="0.2"/>
<path d="M507.597 364.582L470.839 324.296L479.854 314.416L492.203 327.95C492.995 325.024 494.437 322.178 496.745 319.648C504.606 311.033 513.339 311.909 521.427 320.774L534.498 335.099L525.411 345.059L513.351 331.841C510.534 328.754 506.492 327.644 503.751 330.648C500.867 333.809 501.446 338.081 504.552 341.484L516.612 354.702L507.597 364.582Z" fill="white" fill-opacity="0.2"/>
<path d="M534.498 335.1L571.256 375.386L562.241 385.266L549.892 371.732C549.1 374.658 547.658 377.504 545.35 380.034C537.489 388.649 528.756 387.773 520.668 378.909L507.597 364.583L516.684 354.624L528.744 367.841C531.561 370.928 535.603 372.038 538.344 369.034C541.228 365.873 540.648 361.601 537.543 358.198L525.483 344.98L534.498 335.1Z" fill="white" fill-opacity="0.2"/>
<path d="M475.584 417.714L488.727 432.119L479.712 442L468.157 429.336C464.98 425.854 461.226 424.269 457.909 427.905C454.591 431.541 456.109 435.576 459.287 439.058L470.841 451.722L461.826 461.602L450.271 448.939C447.094 445.456 443.412 443.793 440.095 447.429C436.777 451.065 438.223 455.179 441.401 458.661L452.955 471.325L443.94 481.205L430.797 466.8C423.792 459.123 421.909 447.89 430.563 438.405C435.323 433.188 440.59 431.531 445.21 433.116C443.764 427.895 445.564 421.964 449.892 417.221C458.546 407.736 468.795 409.8 475.8 417.477L475.584 417.714Z" fill="white" fill-opacity="0.2"/>
<path d="M548.268 556.818L535.125 542.413L544.14 532.532L555.694 545.196C558.872 548.678 562.626 550.263 565.943 546.627C569.261 542.991 567.743 538.956 564.565 535.474L553.011 522.81L562.026 512.93L573.58 525.593C576.758 529.076 580.44 530.739 583.757 527.103C587.075 523.467 585.629 519.353 582.451 515.871L570.897 503.207L579.912 493.327L593.055 507.732C600.06 515.409 601.943 526.642 593.289 536.127C588.529 541.344 583.261 543.001 578.642 541.416C580.088 546.637 578.288 552.568 573.96 557.311C565.306 566.796 555.057 564.732 548.052 557.055L548.268 556.818Z" fill="white" fill-opacity="0.2"/>
<path d="M480.555 521.649L443.797 481.363L452.812 471.483L465.161 485.017C465.953 482.091 467.395 479.245 469.703 476.715C477.564 468.1 486.297 468.976 494.385 477.84L507.456 492.166L498.369 502.126L486.309 488.908C483.492 485.821 479.45 484.711 476.71 487.715C473.825 490.876 474.405 495.148 477.51 498.551L489.57 511.769L480.555 521.649Z" fill="white" fill-opacity="0.2"/>
<path d="M507.456 492.166L544.213 532.452L535.198 542.332L522.849 528.798C522.057 531.724 520.616 534.57 518.308 537.1C510.447 545.715 501.714 544.839 493.626 535.975L480.554 521.649L489.642 511.689L501.702 524.907C504.518 527.994 508.56 529.104 511.301 526.1C514.186 522.939 513.606 518.667 510.5 515.264L498.44 502.046L507.456 492.166Z" fill="white" fill-opacity="0.2"/>
<path d="M516.401 482.363L479.643 442.077L488.658 432.196L501.007 445.73C501.799 442.804 503.241 439.958 505.548 437.429C513.41 428.813 522.143 429.689 530.231 438.554L543.302 452.879L534.215 462.839L522.154 449.621C519.338 446.535 515.296 445.424 512.555 448.428C509.671 451.59 510.25 455.861 513.356 459.265L525.416 472.482L516.401 482.363Z" fill="white" fill-opacity="0.2"/>
<path d="M543.302 452.877L580.06 493.163L571.045 503.044L558.696 489.509C557.904 492.435 556.462 495.282 554.154 497.811C546.293 506.427 537.56 505.551 529.472 496.686L516.401 482.36L525.488 472.401L537.548 485.618C540.365 488.705 544.407 489.815 547.147 486.812C550.032 483.65 549.452 479.379 546.347 475.975L534.287 462.758L543.302 452.877Z" fill="white" fill-opacity="0.2"/>
<path d="M597.93 187.584L611.073 201.989L602.058 211.869L590.504 199.206C587.326 195.723 583.573 194.139 580.255 197.775C576.937 201.411 578.455 205.446 581.633 208.928L593.187 221.592L584.172 231.472L572.618 218.808C569.44 215.326 565.759 213.662 562.441 217.298C559.124 220.934 560.569 225.048 563.747 228.531L575.301 241.194L566.286 251.075L553.143 236.67C546.138 228.993 544.255 217.76 552.91 208.275C557.67 203.058 562.937 201.4 567.557 202.986C566.11 197.764 567.911 191.834 572.238 187.091C580.892 177.606 591.142 179.67 598.147 187.347L597.93 187.584Z" fill="white" fill-opacity="0.2"/>
<path d="M670.542 326.609L657.399 312.204L666.414 302.323L677.969 314.987C681.146 318.469 684.9 320.054 688.217 316.418C691.535 312.782 690.017 308.747 686.839 305.265L675.285 292.601L684.3 282.721L695.855 295.384C699.032 298.867 702.714 300.53 706.031 296.894C709.349 293.258 707.903 289.144 704.726 285.662L693.171 272.998L702.186 263.118L715.329 277.523C722.334 285.2 724.217 296.433 715.563 305.918C710.803 311.135 705.536 312.792 700.916 311.207C702.362 316.428 700.562 322.359 696.234 327.102C687.58 336.587 677.331 334.523 670.326 326.846L670.542 326.609Z" fill="white" fill-opacity="0.2"/>
<path d="M602.9 291.52L566.142 251.234L575.157 241.353L587.506 254.888C588.298 251.962 589.74 249.115 592.048 246.586C599.909 237.97 608.642 238.847 616.73 247.711L629.801 262.037L620.714 271.996L608.654 258.779C605.838 255.692 601.795 254.582 599.055 257.585C596.17 260.747 596.75 265.019 599.855 268.422L611.915 281.639L602.9 291.52Z" fill="white" fill-opacity="0.2"/>
<path d="M629.801 262.037L666.559 302.323L657.543 312.203L645.195 298.669C644.402 301.595 642.961 304.441 640.653 306.971C632.792 315.587 624.059 314.71 615.971 305.846L602.9 291.52L611.987 281.561L624.047 294.778C626.863 297.865 630.905 298.975 633.646 295.971C636.531 292.81 635.951 288.538 632.846 285.135L620.786 271.917L629.801 262.037Z" fill="white" fill-opacity="0.2"/>
<path d="M638.746 252.233L601.989 211.947L611.004 202.066L623.353 215.601C624.145 212.675 625.586 209.828 627.894 207.299C635.755 198.683 644.488 199.559 652.576 208.424L665.647 222.75L656.56 232.709L644.5 219.491C641.684 216.405 637.642 215.294 634.901 218.298C632.016 221.46 632.596 225.731 635.701 229.135L647.761 242.352L638.746 252.233Z" fill="white" fill-opacity="0.2"/>
<path d="M665.647 222.75L702.405 263.036L693.39 272.917L681.041 259.382C680.249 262.308 678.808 265.155 676.5 267.684C668.638 276.3 659.906 275.424 651.817 266.559L638.746 252.233L647.834 242.274L659.894 255.492C662.71 258.578 666.752 259.689 669.493 256.685C672.378 253.523 671.798 249.252 668.692 245.848L656.632 232.631L665.647 222.75Z" fill="white" fill-opacity="0.2"/>
<path d="M606.229 304.805L619.372 319.21L610.357 329.09L598.802 316.427C595.625 312.944 591.871 311.36 588.553 314.996C585.236 318.632 586.754 322.667 589.931 326.149L601.486 338.813L592.471 348.693L580.916 336.03C577.739 332.547 574.057 330.883 570.74 334.519C567.422 338.155 568.868 342.269 572.045 345.752L583.6 358.415L574.585 368.296L561.441 353.891C554.436 346.214 552.553 334.981 561.208 325.496C565.968 320.279 571.235 318.622 575.855 320.207C574.408 314.986 576.209 309.055 580.536 304.312C589.191 294.827 599.44 296.891 606.445 304.568L606.229 304.805Z" fill="white" fill-opacity="0.2"/>
<path d="M678.913 443.908L665.77 429.504L674.785 419.623L686.339 432.287C689.517 435.769 693.271 437.354 696.588 433.718C699.906 430.082 698.388 426.047 695.21 422.564L683.656 409.901L692.671 400.02L704.225 412.684C707.403 416.166 711.085 417.83 714.402 414.194C717.72 410.558 716.274 406.444 713.096 402.962L701.542 390.298L710.557 380.418L723.7 394.823C730.705 402.5 732.588 413.733 723.934 423.218C719.174 428.435 713.906 430.092 709.287 428.507C710.733 433.728 708.933 439.659 704.605 444.401C695.951 453.887 685.702 451.823 678.697 444.146L678.913 443.908Z" fill="white" fill-opacity="0.2"/>
<path d="M611.2 408.742L574.442 368.456L583.457 358.575L595.806 372.109C596.598 369.183 598.039 366.337 600.347 363.808C608.208 355.192 616.941 356.068 625.03 364.933L638.101 379.258L629.013 389.218L616.953 376C614.137 372.913 610.095 371.803 607.354 374.807C604.469 377.969 605.049 382.24 608.155 385.644L620.215 398.861L611.2 408.742Z" fill="white" fill-opacity="0.2"/>
<path d="M638.101 379.257L674.858 419.543L665.843 429.423L653.494 415.889C652.702 418.815 651.261 421.662 648.953 424.191C641.092 432.807 632.359 431.93 624.271 423.066L611.199 408.74L620.287 398.781L632.347 411.998C635.163 415.085 639.205 416.195 641.946 413.192C644.831 410.03 644.251 405.758 641.145 402.355L629.085 389.138L638.101 379.257Z" fill="white" fill-opacity="0.2"/>
<path d="M647.046 369.455L610.288 329.169L619.303 319.289L631.652 332.823C632.444 329.897 633.886 327.05 636.193 324.521C644.055 315.905 652.788 316.782 660.876 325.646L673.947 339.972L664.86 349.931L652.8 336.714C649.983 333.627 645.941 332.517 643.2 335.52C640.316 338.682 640.895 342.954 644.001 346.357L656.061 359.574L647.046 369.455Z" fill="white" fill-opacity="0.2"/>
<path d="M673.946 339.971L710.704 380.257L701.689 390.137L689.34 376.603C688.548 379.529 687.106 382.375 684.798 384.905C676.937 393.521 668.204 392.644 660.116 383.78L647.045 369.454L656.132 359.495L668.192 372.712C671.009 375.799 675.051 376.909 677.792 373.906C680.676 370.744 680.096 366.472 676.991 363.069L664.931 349.851L673.946 339.971Z" fill="white" fill-opacity="0.2"/>
<path d="M739.313 195.359L752.457 209.764L743.441 219.644L731.887 206.981C728.709 203.498 724.956 201.913 721.638 205.549C718.321 209.185 719.839 213.22 723.016 216.703L734.571 229.366L725.555 239.247L714.001 226.583C710.823 223.101 707.142 221.437 703.824 225.073C700.507 228.709 701.953 232.823 705.13 236.306L716.685 248.969L707.669 258.85L694.526 244.445C687.521 236.768 685.638 225.535 694.293 216.049C699.053 210.833 704.32 209.175 708.94 210.761C707.493 205.539 709.294 199.608 713.621 194.866C722.276 185.381 732.525 187.444 739.53 195.122L739.313 195.359Z" fill="white" fill-opacity="0.2"/>
<path d="M811.997 334.462L798.854 320.057L807.869 310.176L819.423 322.84C822.601 326.322 826.354 327.907 829.672 324.271C832.99 320.635 831.472 316.6 828.294 313.118L816.74 300.454L825.755 290.574L837.309 303.237C840.487 306.72 844.168 308.383 847.486 304.747C850.803 301.111 849.358 296.997 846.18 293.515L834.626 280.851L843.641 270.971L856.784 285.376C863.789 293.053 865.672 304.286 857.017 313.771C852.257 318.988 846.99 320.645 842.37 319.06C843.817 324.281 842.016 330.212 837.689 334.955C829.035 344.44 818.785 342.376 811.78 334.699L811.997 334.462Z" fill="white" fill-opacity="0.2"/>
<path d="M744.283 299.293L707.525 259.007L716.541 249.127L728.889 262.661C729.682 259.735 731.123 256.889 733.431 254.359C741.292 245.744 750.025 246.62 758.113 255.484L771.184 269.81L762.097 279.77L750.037 266.552C747.221 263.465 743.179 262.355 740.438 265.359C737.553 268.52 738.133 272.792 741.238 276.195L753.298 289.413L744.283 299.293Z" fill="white" fill-opacity="0.2"/>
<path d="M771.184 269.81L807.942 310.096L798.927 319.977L786.578 306.442C785.786 309.368 784.344 312.215 782.037 314.744C774.175 323.36 765.442 322.484 757.354 313.619L744.283 299.293L753.37 289.334L765.43 302.552C768.247 305.638 772.289 306.749 775.03 303.745C777.914 300.583 777.335 296.312 774.229 292.908L762.169 279.691L771.184 269.81Z" fill="white" fill-opacity="0.2"/>
<path d="M780.13 260.008L743.372 219.722L752.387 209.842L764.736 223.376C765.528 220.45 766.97 217.604 769.277 215.074C777.139 206.458 785.872 207.335 793.96 216.199L807.031 230.525L797.944 240.484L785.884 227.267C783.067 224.18 779.025 223.07 776.284 226.073C773.4 229.235 773.979 233.507 777.085 236.91L789.145 250.128L780.13 260.008Z" fill="white" fill-opacity="0.2"/>
<path d="M807.031 230.524L843.789 270.81L834.774 280.69L822.425 267.156C821.633 270.082 820.191 272.928 817.883 275.458C810.022 284.073 801.289 283.197 793.201 274.332L780.13 260.007L789.217 250.047L801.277 263.265C804.094 266.352 808.136 267.462 810.876 264.458C813.761 261.297 813.181 257.025 810.076 253.622L798.016 240.404L807.031 230.524Z" fill="white" fill-opacity="0.2"/>
<path d="M747.683 312.663L760.826 327.068L751.811 336.948L740.257 324.285C737.079 320.802 733.326 319.218 730.008 322.854C726.69 326.49 728.208 330.525 731.386 334.007L742.94 346.671L733.925 356.551L722.371 343.887C719.193 340.405 715.512 338.741 712.194 342.377C708.877 346.013 710.322 350.127 713.5 353.61L725.054 366.273L716.039 376.154L702.896 361.749C695.891 354.072 694.008 342.839 702.662 333.354C707.422 328.137 712.69 326.48 717.309 328.065C715.863 322.843 717.664 316.913 721.991 312.17C730.645 302.685 740.895 304.749 747.899 312.426L747.683 312.663Z" fill="white" fill-opacity="0.2"/>
<path d="M820.295 451.687L807.151 437.282L816.167 427.402L827.721 440.066C830.899 443.548 834.652 445.133 837.97 441.497C841.287 437.861 839.769 433.826 836.592 430.343L825.037 417.68L834.053 407.799L845.607 420.463C848.785 423.945 852.466 425.609 855.784 421.973C859.101 418.337 857.655 414.223 854.478 410.74L842.923 398.077L851.939 388.197L865.082 402.601C872.087 410.279 873.97 421.511 865.315 430.997C860.555 436.214 855.288 437.871 850.668 436.286C852.115 441.507 850.314 447.438 845.987 452.18C837.332 461.665 827.083 459.602 820.078 451.924L820.295 451.687Z" fill="white" fill-opacity="0.2"/>
<path d="M752.582 416.519L715.824 376.233L724.84 366.352L737.188 379.887C737.981 376.961 739.422 374.114 741.73 371.585C749.591 362.969 758.324 363.846 766.412 372.71L779.483 387.036L770.396 396.995L758.336 383.778C755.52 380.691 751.478 379.581 748.737 382.584C745.852 385.746 746.432 390.018 749.537 393.421L761.597 406.638L752.582 416.519Z" fill="white" fill-opacity="0.2"/>
<path d="M779.484 387.035L816.242 427.321L807.227 437.202L794.878 423.668C794.086 426.594 792.644 429.44 790.336 431.969C782.475 440.585 773.742 439.709 765.654 430.844L752.583 416.519L761.67 406.559L773.73 419.777C776.546 422.863 780.589 423.974 783.329 420.97C786.214 417.808 785.634 413.537 782.529 410.133L770.469 396.916L779.484 387.035Z" fill="white" fill-opacity="0.2"/>
<path d="M788.428 377.233L751.67 336.947L760.685 327.066L773.034 340.601C773.826 337.675 775.268 334.828 777.576 332.299C785.437 323.683 794.17 324.559 802.258 333.424L815.329 347.75L806.242 357.709L794.182 344.491C791.365 341.405 787.323 340.294 784.583 343.298C781.698 346.46 782.278 350.731 785.383 354.135L797.443 367.352L788.428 377.233Z" fill="white" fill-opacity="0.2"/>
<path d="M815.329 347.751L852.087 388.037L843.072 397.918L830.723 384.383C829.931 387.309 828.489 390.156 826.181 392.685C818.32 401.301 809.587 400.425 801.499 391.56L788.428 377.234L797.515 367.275L809.575 380.493C812.391 383.579 816.434 384.689 819.174 381.686C822.059 378.524 821.479 374.253 818.374 370.849L806.314 357.632L815.329 347.751Z" fill="white" fill-opacity="0.2"/>
<path d="M615.034 422.587L628.177 436.992L619.162 446.872L607.608 434.209C604.43 430.726 600.676 429.141 597.359 432.777C594.041 436.413 595.559 440.448 598.737 443.931L610.291 456.594L601.276 466.475L589.722 453.811C586.544 450.329 582.862 448.665 579.545 452.301C576.227 455.937 577.673 460.051 580.851 463.534L592.405 476.197L583.39 486.078L570.247 471.673C563.242 463.996 561.359 452.763 570.013 443.277C574.773 438.061 580.041 436.403 584.66 437.989C583.214 432.767 585.014 426.836 589.342 422.094C597.996 412.609 608.245 414.673 615.25 422.35L615.034 422.587Z" fill="white" fill-opacity="0.2"/>
<path d="M687.718 561.69L674.575 547.285L683.59 537.405L695.144 550.068C698.322 553.551 702.075 555.136 705.393 551.5C708.711 547.864 707.193 543.829 704.015 540.346L692.461 527.683L701.476 517.802L713.03 530.466C716.208 533.948 719.889 535.612 723.207 531.976C726.524 528.34 725.079 524.226 721.901 520.743L710.347 508.08L719.362 498.199L732.505 512.604C739.51 520.282 741.393 531.514 732.738 541C727.978 546.216 722.711 547.874 718.091 546.288C719.538 551.51 717.737 557.441 713.41 562.183C704.756 571.668 694.506 569.605 687.501 561.927L687.718 561.69Z" fill="white" fill-opacity="0.2"/>
<path d="M620.004 526.522L583.246 486.236L592.261 476.355L604.61 489.89C605.402 486.964 606.844 484.117 609.152 481.588C617.013 472.972 625.746 473.849 633.834 482.713L646.905 497.039L637.818 506.998L625.758 493.781C622.942 490.694 618.9 489.584 616.159 492.587C613.274 495.749 613.854 500.02 616.959 503.424L629.019 516.641L620.004 526.522Z" fill="white" fill-opacity="0.2"/>
<path d="M646.905 497.039L683.663 537.325L674.648 547.205L662.299 533.671C661.507 536.597 660.065 539.443 657.757 541.973C649.896 550.588 641.163 549.712 633.075 540.848L620.004 526.522L629.091 516.563L641.151 529.78C643.968 532.867 648.01 533.977 650.75 530.973C653.635 527.812 653.055 523.54 649.95 520.137L637.89 506.919L646.905 497.039Z" fill="white" fill-opacity="0.2"/>
<path d="M655.85 487.235L619.092 446.949L628.107 437.068L640.456 450.603C641.248 447.677 642.69 444.83 644.997 442.301C652.859 433.685 661.592 434.561 669.68 443.426L682.751 457.752L673.664 467.711L661.603 454.493C658.787 451.407 654.745 450.296 652.004 453.3C649.12 456.462 649.699 460.733 652.805 464.137L664.865 477.354L655.85 487.235Z" fill="white" fill-opacity="0.2"/>
<path d="M682.751 457.752L719.509 498.038L710.494 507.918L698.145 494.384C697.353 497.31 695.911 500.156 693.603 502.686C685.742 511.301 677.009 510.425 668.921 501.561L655.85 487.235L664.937 477.275L676.997 490.493C679.814 493.58 683.856 494.69 686.596 491.686C689.481 488.525 688.901 484.253 685.796 480.85L673.736 467.632L682.751 457.752Z" fill="white" fill-opacity="0.2"/>
<path d="M756.488 430.437L769.631 444.842L760.616 454.722L749.062 442.059C745.884 438.576 742.13 436.992 738.813 440.628C735.495 444.264 737.013 448.299 740.191 451.781L751.745 464.445L742.73 474.325L731.176 461.661C727.998 458.179 724.317 456.515 720.999 460.151C717.681 463.787 719.127 467.901 722.305 471.384L733.859 484.047L724.844 493.928L711.701 479.523C704.696 471.846 702.813 460.613 711.467 451.128C716.227 445.911 721.495 444.254 726.114 445.839C724.668 440.617 726.469 434.687 730.796 429.944C739.45 420.459 749.699 422.523 756.704 430.2L756.488 430.437Z" fill="white" fill-opacity="0.2"/>
<path d="M829.172 569.542L816.029 555.137L825.044 545.256L836.598 557.92C839.776 561.403 843.529 562.987 846.847 559.351C850.165 555.715 848.647 551.68 845.469 548.198L833.915 535.534L842.93 525.654L854.484 538.317C857.662 541.8 861.343 543.463 864.661 539.827C867.978 536.191 866.533 532.077 863.355 528.595L851.801 515.931L860.816 506.051L873.959 520.456C880.964 528.133 882.847 539.366 874.193 548.851C869.433 554.068 864.165 555.725 859.546 554.14C860.992 559.361 859.191 565.292 854.864 570.035C846.21 579.52 835.96 577.456 828.956 569.779L829.172 569.542Z" fill="white" fill-opacity="0.2"/>
<path d="M761.459 534.372L724.701 494.086L733.716 484.206L746.065 497.74C746.857 494.814 748.299 491.968 750.607 489.438C758.468 480.823 767.201 481.699 775.289 490.564L788.36 504.889L779.273 514.849L767.213 501.631C764.396 498.544 760.354 497.434 757.614 500.438C754.729 503.599 755.309 507.871 758.414 511.274L770.474 524.492L761.459 534.372Z" fill="white" fill-opacity="0.2"/>
<path d="M788.36 504.889L825.118 545.175L816.103 555.056L803.754 541.522C802.962 544.448 801.52 547.294 799.212 549.823C791.351 558.439 782.618 557.563 774.53 548.698L761.459 534.373L770.546 524.413L782.606 537.631C785.422 540.717 789.465 541.828 792.205 538.824C795.09 535.662 794.51 531.391 791.405 527.987L779.345 514.77L788.36 504.889Z" fill="white" fill-opacity="0.2"/>
<path d="M797.305 495.087L760.547 454.801L769.562 444.92L781.911 458.455C782.703 455.529 784.145 452.682 786.453 450.153C794.314 441.537 803.047 442.413 811.135 451.278L824.206 465.604L815.119 475.563L803.059 462.345C800.242 459.259 796.2 458.148 793.46 461.152C790.575 464.314 791.155 468.585 794.26 471.989L806.32 485.206L797.305 495.087Z" fill="white" fill-opacity="0.2"/>
<path d="M824.206 465.604L860.963 505.89L851.948 515.771L839.599 502.236C838.807 505.162 837.366 508.009 835.058 510.538C827.197 519.154 818.464 518.278 810.375 509.413L797.304 495.087L806.392 485.128L818.452 498.346C821.268 501.432 825.31 502.543 828.051 499.539C830.936 496.377 830.356 492.106 827.25 488.702L815.19 475.485L824.206 465.604Z" fill="white" fill-opacity="0.2"/>
<path d="M880.337 202.735L893.48 217.14L884.465 227.021L872.91 214.357C869.733 210.875 865.979 209.29 862.662 212.926C859.344 216.562 860.862 220.597 864.039 224.079L875.594 236.743L866.579 246.623L855.024 233.96C851.847 230.477 848.165 228.814 844.848 232.45C841.53 236.086 842.976 240.2 846.153 243.682L857.708 256.346L848.693 266.226L835.55 251.821C828.545 244.144 826.662 232.911 835.316 223.426C840.076 218.209 845.343 216.552 849.963 218.137C848.517 212.916 850.317 206.985 854.644 202.242C863.299 192.757 873.548 194.821 880.553 202.498L880.337 202.735Z" fill="white" fill-opacity="0.2"/>
<path d="M953.021 341.839L939.877 327.434L948.893 317.553L960.447 330.217C963.625 333.699 967.378 335.284 970.696 331.648C974.013 328.012 972.495 323.977 969.318 320.495L957.763 307.831L966.779 297.951L978.333 310.614C981.511 314.097 985.192 315.76 988.51 312.124C991.827 308.488 990.381 304.374 987.204 300.892L975.649 288.228L984.665 278.348L997.808 292.753C1004.81 300.43 1006.7 311.663 998.041 321.148C993.281 326.365 988.014 328.022 983.394 326.437C984.841 331.658 983.04 337.589 978.713 342.332C970.058 351.817 959.809 349.753 952.804 342.076L953.021 341.839Z" fill="white" fill-opacity="0.2"/>
<path d="M885.308 306.67L848.55 266.384L857.565 256.503L869.914 270.038C870.706 267.112 872.148 264.265 874.455 261.736C882.317 253.12 891.05 253.996 899.138 262.861L912.209 277.187L903.122 287.146L891.061 273.928C888.245 270.842 884.203 269.731 881.462 272.735C878.578 275.897 879.157 280.168 882.263 283.572L894.323 296.789L885.308 306.67Z" fill="white" fill-opacity="0.2"/>
<path d="M912.209 277.187L948.967 317.473L939.951 327.353L927.603 313.819C926.81 316.745 925.369 319.591 923.061 322.121C915.2 330.736 906.467 329.86 898.379 320.996L885.308 306.67L894.395 296.71L906.455 309.928C909.271 313.015 913.313 314.125 916.054 311.121C918.939 307.96 918.359 303.688 915.254 300.285L903.194 287.067L912.209 277.187Z" fill="white" fill-opacity="0.2"/>
<path d="M921.153 267.383L884.395 227.097L893.41 217.217L905.759 230.751C906.551 227.825 907.993 224.979 910.301 222.449C918.162 213.833 926.895 214.71 934.983 223.574L948.054 237.9L938.967 247.859L926.907 234.642C924.09 231.555 920.048 230.445 917.308 233.448C914.423 236.61 915.003 240.882 918.108 244.285L930.168 257.503L921.153 267.383Z" fill="white" fill-opacity="0.2"/>
<path d="M948.054 237.9L984.812 278.186L975.797 288.066L963.448 274.532C962.656 277.458 961.214 280.304 958.906 282.834C951.045 291.449 942.312 290.573 934.224 281.708L921.153 267.383L930.24 257.423L942.3 270.641C945.117 273.728 949.159 274.838 951.899 271.834C954.784 268.673 954.204 264.401 951.099 260.998L939.039 247.78L948.054 237.9Z" fill="white" fill-opacity="0.2"/>
<path d="M888.705 320.039L901.848 334.443L892.833 344.324L881.278 331.66C878.101 328.178 874.347 326.593 871.03 330.229C867.712 333.865 869.23 337.9 872.408 341.383L883.962 354.046L874.947 363.927L863.392 351.263C860.215 347.781 856.533 346.117 853.216 349.753C849.898 353.389 851.344 357.503 854.522 360.985L866.076 373.649L857.061 383.529L843.918 369.124C836.913 361.447 835.03 350.214 843.684 340.729C848.444 335.512 853.711 333.855 858.331 335.44C856.885 330.219 858.685 324.288 863.013 319.546C871.667 310.06 881.916 312.124 888.921 319.801L888.705 320.039Z" fill="white" fill-opacity="0.2"/>
<path d="M961.388 459.143L948.245 444.738L957.26 434.858L968.815 447.521C971.992 451.004 975.746 452.588 979.064 448.952C982.381 445.316 980.863 441.281 977.686 437.799L966.131 425.135L975.146 415.255L986.701 427.918C989.878 431.401 993.56 433.065 996.877 429.429C1000.19 425.793 998.749 421.679 995.572 418.196L984.017 405.533L993.032 395.652L1006.18 410.057C1013.18 417.734 1015.06 428.967 1006.41 438.452C1001.65 443.669 996.382 445.326 991.762 443.741C993.209 448.962 991.408 454.893 987.081 459.636C978.426 469.121 968.177 467.057 961.172 459.38L961.388 459.143Z" fill="white" fill-opacity="0.2"/>
<path d="M893.675 423.973L856.917 383.688L865.933 373.807L878.281 387.341C879.074 384.415 880.515 381.569 882.823 379.04C890.684 370.424 899.417 371.3 907.505 380.165L920.576 394.49L911.489 404.45L899.429 391.232C896.613 388.145 892.571 387.035 889.83 390.039C886.945 393.201 887.525 397.472 890.63 400.875L902.69 414.093L893.675 423.973Z" fill="white" fill-opacity="0.2"/>
<path d="M920.577 394.49L957.335 434.776L948.32 444.656L935.971 431.122C935.179 434.048 933.737 436.895 931.429 439.424C923.568 448.04 914.835 447.163 906.747 438.299L893.676 423.973L902.763 414.014L914.823 427.231C917.639 430.318 921.682 431.428 924.422 428.425C927.307 425.263 926.727 420.991 923.622 417.588L911.562 404.37L920.577 394.49Z" fill="white" fill-opacity="0.2"/>
<path d="M929.521 384.687L892.763 344.401L901.778 334.521L914.127 348.055C914.919 345.129 916.36 342.283 918.668 339.753C926.53 331.138 935.262 332.014 943.351 340.879L956.422 355.204L947.334 365.164L935.274 351.946C932.458 348.859 928.416 347.749 925.675 350.753C922.79 353.914 923.37 358.186 926.476 361.589L938.536 374.807L929.521 384.687Z" fill="white" fill-opacity="0.2"/>
<path d="M956.422 355.205L993.18 395.491L984.165 405.371L971.816 391.837C971.024 394.763 969.582 397.609 967.274 400.139C959.413 408.754 950.68 407.878 942.592 399.014L929.521 384.688L938.608 374.729L950.668 387.946C953.485 391.033 957.527 392.143 960.267 389.139C963.152 385.978 962.572 381.706 959.467 378.303L947.407 365.085L956.422 355.205Z" fill="white" fill-opacity="0.2"/>
<path d="M897.507 437.818L910.651 452.223L901.636 462.103L890.081 449.44C886.903 445.957 883.15 444.372 879.832 448.008C876.515 451.644 878.033 455.679 881.21 459.162L892.765 471.825L883.75 481.706L872.195 469.042C869.017 465.56 865.336 463.896 862.018 467.532C858.701 471.168 860.147 475.282 863.324 478.765L874.879 491.428L865.864 501.309L852.72 486.904C845.715 479.227 843.832 467.994 852.487 458.508C857.247 453.292 862.514 451.634 867.134 453.22C865.687 447.998 867.488 442.067 871.815 437.325C880.47 427.84 890.719 429.903 897.724 437.581L897.507 437.818Z" fill="white" fill-opacity="0.2"/>
<path d="M970.192 576.922L957.048 562.517L966.064 552.636L977.618 565.3C980.796 568.782 984.549 570.367 987.867 566.731C991.184 563.095 989.666 559.06 986.489 555.578L974.934 542.914L983.95 533.034L995.504 545.697C998.682 549.18 1002.36 550.843 1005.68 547.207C1009 543.571 1007.55 539.457 1004.37 535.975L992.82 523.311L1001.84 513.431L1014.98 527.836C1021.98 535.513 1023.87 546.746 1015.21 556.231C1010.45 561.448 1005.19 563.105 1000.57 561.52C1002.01 566.741 1000.21 572.672 995.884 577.415C987.229 586.9 976.98 584.836 969.975 577.159L970.192 576.922Z" fill="white" fill-opacity="0.2"/>
<path d="M902.479 541.754L865.721 501.468L874.736 491.587L887.085 505.122C887.877 502.196 889.318 499.349 891.626 496.82C899.488 488.204 908.22 489.08 916.309 497.945L929.38 512.271L920.292 522.23L908.232 509.012C905.416 505.926 901.374 504.815 898.633 507.819C895.748 510.981 896.328 515.252 899.434 518.656L911.494 531.873L902.479 541.754Z" fill="white" fill-opacity="0.2"/>
<path d="M929.379 512.27L966.137 552.556L957.122 562.436L944.773 548.902C943.981 551.828 942.539 554.674 940.231 557.204C932.37 565.819 923.637 564.943 915.549 556.079L902.478 541.753L911.565 531.793L923.625 545.011C926.442 548.098 930.484 549.208 933.224 546.204C936.109 543.043 935.529 538.771 932.424 535.368L920.364 522.15L929.379 512.27Z" fill="white" fill-opacity="0.2"/>
<path d="M938.324 502.467L901.566 462.181L910.582 452.301L922.93 465.835C923.723 462.909 925.164 460.063 927.472 457.533C935.333 448.917 944.066 449.794 952.154 458.658L965.225 472.984L956.138 482.943L944.078 469.726C941.262 466.639 937.22 465.529 934.479 468.532C931.594 471.694 932.174 475.966 935.279 479.369L947.339 492.587L938.324 502.467Z" fill="white" fill-opacity="0.2"/>
<path d="M965.226 472.982L1001.98 513.268L992.969 523.148L980.62 509.614C979.828 512.54 978.386 515.386 976.078 517.916C968.217 526.531 959.484 525.655 951.396 516.791L938.325 502.465L947.412 492.505L959.472 505.723C962.288 508.81 966.33 509.92 969.071 506.916C971.956 503.755 971.376 499.483 968.271 496.08L956.211 482.862L965.226 472.982Z" fill="white" fill-opacity="0.2"/>
</svg>
