<svg width="1172" height="1102" viewBox="0 0 1172 1102" fill="none" xmlns="http://www.w3.org/2000/svg">
<path d="M176.007 167.48L189.15 181.885L180.135 191.766L168.58 179.102C165.403 175.62 161.649 174.035 158.331 177.671C155.014 181.307 156.532 185.342 159.709 188.824L171.264 201.488L162.249 211.368L150.694 198.705C147.517 195.222 143.835 193.559 140.518 197.195C137.2 200.831 138.646 204.945 141.823 208.427L153.378 221.091L144.363 230.971L131.219 216.566C124.215 208.889 122.331 197.656 130.986 188.171C135.746 182.954 141.013 181.297 145.633 182.882C144.186 177.661 145.987 171.73 150.314 166.987C158.969 157.502 169.218 159.566 176.223 167.243L176.007 167.48Z" fill="white" fill-opacity="0.2"/>
<path d="M248.619 306.505L235.476 292.1L244.491 282.22L256.045 294.883C259.223 298.366 262.977 299.951 266.294 296.315C269.612 292.679 268.094 288.644 264.916 285.161L253.362 272.498L262.377 262.617L273.931 275.281C277.109 278.763 280.79 280.427 284.108 276.791C287.425 273.155 285.98 269.041 282.802 265.558L271.248 252.895L280.263 243.014L293.406 257.419C300.411 265.096 302.294 276.329 293.64 285.815C288.88 291.031 283.612 292.689 278.993 291.103C280.439 296.325 278.638 302.256 274.311 306.998C265.657 316.483 255.407 314.419 248.403 306.742L248.619 306.505Z" fill="white" fill-opacity="0.2"/>
<path d="M180.976 271.417L144.218 231.131L153.233 221.25L165.582 234.785C166.374 231.859 167.816 229.012 170.124 226.483C177.985 217.867 186.718 218.743 194.806 227.608L207.877 241.934L198.79 251.893L186.73 238.675C183.914 235.589 179.871 234.478 177.131 237.482C174.246 240.644 174.826 244.915 177.931 248.319L189.991 261.536L180.976 271.417Z" fill="white" fill-opacity="0.2"/>
<path d="M207.876 241.933L244.634 282.219L235.619 292.099L223.27 278.565C222.478 281.491 221.036 284.338 218.728 286.867C210.867 295.483 202.134 294.606 194.046 285.742L180.975 271.416L190.062 261.457L202.122 274.674C204.939 277.761 208.981 278.871 211.721 275.868C214.606 272.706 214.026 268.434 210.921 265.031L198.861 251.814L207.876 241.933Z" fill="white" fill-opacity="0.2"/>
<path d="M216.822 232.128L180.064 191.842L189.08 181.962L201.428 195.496C202.221 192.57 203.662 189.724 205.97 187.194C213.831 178.579 222.564 179.455 230.652 188.319L243.723 202.645L234.636 212.604L222.576 199.387C219.76 196.3 215.718 195.19 212.977 198.194C210.092 201.355 210.672 205.627 213.777 209.03L225.837 222.248L216.822 232.128Z" fill="white" fill-opacity="0.2"/>
<path d="M243.723 202.646L280.481 242.932L271.466 252.813L259.117 239.278C258.325 242.204 256.883 245.051 254.576 247.58C246.714 256.196 237.981 255.319 229.893 246.455L216.822 232.129L225.91 222.17L237.97 235.387C240.786 238.474 244.828 239.584 247.569 236.581C250.453 233.419 249.874 229.148 246.768 225.744L234.708 212.527L243.723 202.646Z" fill="white" fill-opacity="0.2"/>
<path d="M184.305 284.699L197.449 299.104L188.434 308.984L176.879 296.321C173.702 292.838 169.948 291.254 166.63 294.89C163.313 298.526 164.831 302.56 168.008 306.043L179.563 318.707L170.548 328.587L158.993 315.923C155.816 312.441 152.134 310.777 148.816 314.413C145.499 318.049 146.945 322.163 150.122 325.646L161.677 338.309L152.662 348.19L139.518 333.785C132.513 326.108 130.63 314.875 139.285 305.39C144.045 300.173 149.312 298.515 153.932 300.101C152.485 294.879 154.286 288.949 158.613 284.206C167.268 274.721 177.517 276.785 184.522 284.462L184.305 284.699Z" fill="white" fill-opacity="0.2"/>
<path d="M256.99 423.803L243.847 409.398L252.862 399.517L264.416 412.181C267.594 415.664 271.348 417.248 274.665 413.612C277.983 409.976 276.465 405.941 273.287 402.459L261.733 389.795L270.748 379.915L282.302 392.578C285.48 396.061 289.161 397.724 292.479 394.088C295.797 390.452 294.351 386.338 291.173 382.856L279.619 370.192L288.634 360.312L301.777 374.717C308.782 382.394 310.665 393.627 302.011 403.112C297.251 408.329 291.983 409.986 287.364 408.401C288.81 413.622 287.009 419.553 282.682 424.296C274.028 433.781 263.779 431.717 256.774 424.04L256.99 423.803Z" fill="white" fill-opacity="0.2"/>
<path d="M189.276 388.636L152.519 348.35L161.534 338.469L173.883 352.003C174.675 349.077 176.116 346.231 178.424 343.702C186.285 335.086 195.018 335.962 203.106 344.827L216.178 359.152L207.09 369.112L195.03 355.894C192.214 352.808 188.172 351.697 185.431 354.701C182.546 357.863 183.126 362.134 186.231 365.538L198.292 378.755L189.276 388.636Z" fill="white" fill-opacity="0.2"/>
<path d="M216.177 359.152L252.935 399.438L243.92 409.318L231.571 395.784C230.779 398.71 229.338 401.557 227.03 404.086C219.168 412.702 210.436 411.825 202.347 402.961L189.276 388.635L198.364 378.676L210.424 391.893C213.24 394.98 217.282 396.09 220.023 393.087C222.908 389.925 222.328 385.653 219.222 382.25L207.162 369.032L216.177 359.152Z" fill="white" fill-opacity="0.2"/>
<path d="M225.123 349.349L188.365 309.063L197.38 299.182L209.729 312.717C210.521 309.791 211.963 306.944 214.27 304.415C222.132 295.799 230.864 296.675 238.953 305.54L252.024 319.866L242.936 329.825L230.876 316.607C228.06 313.521 224.018 312.41 221.277 315.414C218.392 318.576 218.972 322.847 222.078 326.251L234.138 339.468L225.123 349.349Z" fill="white" fill-opacity="0.2"/>
<path d="M252.023 319.865L288.781 360.15L279.766 370.031L267.417 356.497C266.625 359.423 265.183 362.269 262.875 364.798C255.014 373.414 246.281 372.538 238.193 363.673L225.122 349.348L234.209 339.388L246.269 352.606C249.086 355.693 253.128 356.803 255.868 353.799C258.753 350.637 258.173 346.366 255.068 342.963L243.008 329.745L252.023 319.865Z" fill="white" fill-opacity="0.2"/>
<path d="M317.389 175.252L330.532 189.657L321.517 199.537L309.963 186.874C306.785 183.391 303.031 181.807 299.714 185.443C296.396 189.079 297.914 193.114 301.092 196.596L312.646 209.26L303.631 219.14L292.077 206.477C288.899 202.994 285.217 201.331 281.9 204.967C278.582 208.603 280.028 212.717 283.206 216.199L294.76 228.863L285.745 238.743L272.602 224.338C265.597 216.661 263.714 205.428 272.368 195.943C277.128 190.726 282.396 189.069 287.015 190.654C285.569 185.433 287.369 179.502 291.697 174.759C300.351 165.274 310.6 167.338 317.605 175.015L317.389 175.252Z" fill="white" fill-opacity="0.2"/>
<path d="M390.073 314.355L376.93 299.95L385.945 290.069L397.499 302.733C400.677 306.216 404.431 307.8 407.748 304.164C411.066 300.528 409.548 296.493 406.37 293.011L394.816 280.347L403.831 270.467L415.385 283.13C418.563 286.613 422.244 288.276 425.562 284.64C428.88 281.004 427.434 276.89 424.256 273.408L412.702 260.744L421.717 250.864L434.86 265.269C441.865 272.946 443.748 284.179 435.094 293.664C430.334 298.881 425.066 300.538 420.447 298.953C421.893 304.174 420.092 310.105 415.765 314.848C407.111 324.333 396.862 322.269 389.857 314.592L390.073 314.355Z" fill="white" fill-opacity="0.2"/>
<path d="M322.359 279.187L285.601 238.901L294.616 229.02L306.965 242.555C307.757 239.629 309.199 236.782 311.507 234.253C319.368 225.637 328.101 226.514 336.189 235.378L349.26 249.704L340.173 259.663L328.113 246.446C325.296 243.359 321.254 242.249 318.514 245.252C315.629 248.414 316.209 252.685 319.314 256.089L331.374 269.306L322.359 279.187Z" fill="white" fill-opacity="0.2"/>
<path d="M349.26 249.704L386.018 289.99L377.003 299.87L364.654 286.336C363.862 289.262 362.421 292.108 360.113 294.638C352.251 303.253 343.519 302.377 335.43 293.513L322.359 279.187L331.447 269.227L343.507 282.445C346.323 285.532 350.365 286.642 353.106 283.638C355.991 280.477 355.411 276.205 352.305 272.802L340.245 259.584L349.26 249.704Z" fill="white" fill-opacity="0.2"/>
<path d="M358.206 239.902L321.448 199.616L330.463 189.735L342.812 203.269C343.604 200.343 345.046 197.497 347.353 194.968C355.215 186.352 363.947 187.228 372.036 196.093L385.107 210.418L376.019 220.378L363.959 207.16C361.143 204.074 357.101 202.963 354.36 205.967C351.475 209.129 352.055 213.4 355.161 216.804L367.221 230.021L358.206 239.902Z" fill="white" fill-opacity="0.2"/>
<path d="M385.107 210.418L421.865 250.704L412.849 260.585L400.5 247.051C399.708 249.977 398.267 252.823 395.959 255.352C388.098 263.968 379.365 263.092 371.277 254.227L358.206 239.902L367.293 229.942L379.353 243.16C382.169 246.246 386.211 247.357 388.952 244.353C391.837 241.191 391.257 236.92 388.152 233.516L376.092 220.299L385.107 210.418Z" fill="white" fill-opacity="0.2"/>
<path d="M325.76 292.558L338.903 306.962L329.888 316.843L318.333 304.179C315.156 300.697 311.402 299.112 308.084 302.748C304.767 306.384 306.285 310.419 309.462 313.901L321.017 326.565L312.002 336.445L300.447 323.782C297.27 320.299 293.588 318.636 290.271 322.272C286.953 325.908 288.399 330.022 291.576 333.504L303.131 346.168L294.116 356.048L280.972 341.643C273.967 333.966 272.084 322.733 280.739 313.248C285.499 308.031 290.766 306.374 295.386 307.959C293.939 302.738 295.74 296.807 300.067 292.064C308.722 282.579 318.971 284.643 325.976 292.32L325.76 292.558Z" fill="white" fill-opacity="0.2"/>
<path d="M398.371 431.582L385.228 417.177L394.243 407.297L405.798 419.96C408.975 423.443 412.729 425.027 416.047 421.391C419.364 417.755 417.846 413.72 414.669 410.238L403.114 397.574L412.129 387.694L423.684 400.358C426.861 403.84 430.543 405.504 433.86 401.868C437.178 398.232 435.732 394.118 432.555 390.635L421 377.972L430.015 368.091L443.158 382.496C450.163 390.173 452.047 401.406 443.392 410.891C438.632 416.108 433.365 417.766 428.745 416.18C430.192 421.402 428.391 427.332 424.064 432.075C415.409 441.56 405.16 439.496 398.155 431.819L398.371 431.582Z" fill="white" fill-opacity="0.2"/>
<path d="M330.659 396.414L293.901 356.128L302.916 346.247L315.265 359.782C316.057 356.856 317.499 354.009 319.807 351.48C327.668 342.864 336.401 343.74 344.489 352.605L357.56 366.931L348.473 376.89L336.413 363.672C333.596 360.586 329.554 359.475 326.813 362.479C323.929 365.641 324.509 369.912 327.614 373.316L339.674 386.533L330.659 396.414Z" fill="white" fill-opacity="0.2"/>
<path d="M357.56 366.931L394.318 407.217L385.303 417.097L372.954 403.563C372.162 406.489 370.72 409.335 368.412 411.864C360.551 420.48 351.818 419.604 343.73 410.739L330.659 396.414L339.746 386.454L351.806 399.672C354.622 402.759 358.664 403.869 361.405 400.865C364.29 397.703 363.71 393.432 360.605 390.029L348.545 376.811L357.56 366.931Z" fill="white" fill-opacity="0.2"/>
<path d="M366.505 357.127L329.747 316.841L338.762 306.961L351.111 320.495C351.903 317.569 353.345 314.723 355.653 312.193C363.514 303.578 372.247 304.454 380.335 313.318L393.406 327.644L384.319 337.604L372.259 324.386C369.442 321.299 365.4 320.189 362.66 323.193C359.775 326.354 360.355 330.626 363.46 334.029L375.52 347.247L366.505 357.127Z" fill="white" fill-opacity="0.2"/>
<path d="M393.406 327.645L430.163 367.931L421.148 377.812L408.799 364.277C408.007 367.203 406.566 370.05 404.258 372.579C396.397 381.195 387.664 380.319 379.575 371.454L366.504 357.128L375.592 347.169L387.652 360.387C390.468 363.473 394.51 364.584 397.251 361.58C400.136 358.418 399.556 354.147 396.45 350.743L384.39 337.526L393.406 327.645Z" fill="white" fill-opacity="0.2"/>
<path d="M193.11 402.481L206.253 416.886L197.238 426.767L185.684 414.103C182.506 410.621 178.753 409.036 175.435 412.672C172.117 416.308 173.635 420.343 176.813 423.825L188.367 436.489L179.352 446.369L167.798 433.706C164.62 430.223 160.939 428.56 157.621 432.196C154.304 435.832 155.749 439.946 158.927 443.428L170.481 456.092L161.466 465.972L148.323 451.567C141.318 443.89 139.435 432.657 148.089 423.172C152.849 417.955 158.117 416.298 162.736 417.883C161.29 412.662 163.091 406.731 167.418 401.988C176.072 392.503 186.322 394.567 193.326 402.244L193.11 402.481Z" fill="white" fill-opacity="0.2"/>
<path d="M265.794 541.585L252.651 527.18L261.666 517.3L273.221 529.963C276.398 533.446 280.152 535.031 283.469 531.395C286.787 527.759 285.269 523.724 282.091 520.241L270.537 507.578L279.552 497.697L291.107 510.361C294.284 513.843 297.966 515.507 301.283 511.871C304.601 508.235 303.155 504.121 299.977 500.638L288.423 487.975L297.438 478.094L310.581 492.499C317.586 500.177 319.469 511.409 310.815 520.895C306.055 526.111 300.788 527.769 296.168 526.183C297.614 531.405 295.814 537.336 291.486 542.078C282.832 551.563 272.583 549.5 265.578 541.822L265.794 541.585Z" fill="white" fill-opacity="0.2"/>
<path d="M198.08 506.415L161.322 466.129L170.337 456.249L182.686 469.783C183.478 466.857 184.92 464.011 187.228 461.481C195.089 452.866 203.822 453.742 211.91 462.607L224.981 476.932L215.894 486.892L203.834 473.674C201.018 470.587 196.975 469.477 194.235 472.481C191.35 475.642 191.93 479.914 195.035 483.317L207.095 496.535L198.08 506.415Z" fill="white" fill-opacity="0.2"/>
<path d="M224.981 476.933L261.739 517.219L252.724 527.099L240.375 513.565C239.583 516.491 238.141 519.338 235.833 521.867C227.972 530.483 219.239 529.606 211.151 520.742L198.08 506.416L207.167 496.457L219.227 509.674C222.044 512.761 226.086 513.871 228.826 510.868C231.711 507.706 231.131 503.434 228.026 500.031L215.966 486.814L224.981 476.933Z" fill="white" fill-opacity="0.2"/>
<path d="M233.926 467.13L197.168 426.844L206.183 416.964L218.532 430.498C219.324 427.572 220.766 424.725 223.074 422.196C230.935 413.58 239.668 414.457 247.756 423.321L260.827 437.647L251.74 447.606L239.68 434.389C236.863 431.302 232.821 430.192 230.081 433.195C227.196 436.357 227.776 440.629 230.881 444.032L242.941 457.25L233.926 467.13Z" fill="white" fill-opacity="0.2"/>
<path d="M260.827 437.647L297.585 477.933L288.57 487.814L276.221 474.279C275.429 477.205 273.987 480.052 271.68 482.581C263.818 491.197 255.085 490.321 246.997 481.456L233.926 467.13L243.014 457.171L255.074 470.389C257.89 473.475 261.932 474.585 264.673 471.582C267.557 468.42 266.978 464.149 263.872 460.745L251.812 447.528L260.827 437.647Z" fill="white" fill-opacity="0.2"/>
<path d="M334.564 410.334L347.708 424.738L338.692 434.619L327.138 421.955C323.96 418.473 320.207 416.888 316.889 420.524C313.572 424.16 315.089 428.195 318.267 431.678L329.822 444.341L320.806 454.221L309.252 441.558C306.074 438.075 302.393 436.412 299.075 440.048C295.758 443.684 297.203 447.798 300.381 451.28L311.936 463.944L302.92 473.824L289.777 459.419C282.772 451.742 280.889 440.509 289.544 431.024C294.304 425.807 299.571 424.15 304.191 425.735C302.744 420.514 304.545 414.583 308.872 409.84C317.527 400.355 327.776 402.419 334.781 410.096L334.564 410.334Z" fill="white" fill-opacity="0.2"/>
<path d="M407.248 549.438L394.105 535.033L403.12 525.153L414.674 537.817C417.852 541.299 421.605 542.884 424.923 539.248C428.241 535.612 426.723 531.577 423.545 528.094L411.991 515.431L421.006 505.55L432.56 518.214C435.738 521.696 439.419 523.36 442.737 519.724C446.054 516.088 444.609 511.974 441.431 508.491L429.877 495.828L438.892 485.947L452.035 500.352C459.04 508.03 460.923 519.262 452.268 528.748C447.508 533.964 442.241 535.622 437.621 534.036C439.068 539.258 437.267 545.189 432.94 549.931C424.286 559.416 414.036 557.353 407.031 549.675L407.248 549.438Z" fill="white" fill-opacity="0.2"/>
<path d="M339.535 514.267L302.777 473.981L311.792 464.101L324.141 477.635C324.933 474.709 326.375 471.863 328.683 469.333C336.544 460.718 345.277 461.594 353.365 470.459L366.436 484.784L357.349 494.744L345.289 481.526C342.472 478.439 338.43 477.329 335.689 480.333C332.805 483.494 333.384 487.766 336.49 491.169L348.55 504.387L339.535 514.267Z" fill="white" fill-opacity="0.2"/>
<path d="M366.436 484.785L403.194 525.071L394.179 534.952L381.83 521.418C381.037 524.344 379.596 527.19 377.288 529.719C369.427 538.335 360.694 537.459 352.606 528.594L339.535 514.269L348.622 504.309L360.682 517.527C363.498 520.613 367.54 521.724 370.281 518.72C373.166 515.558 372.586 511.287 369.481 507.883L357.421 494.666L366.436 484.785Z" fill="white" fill-opacity="0.2"/>
<path d="M375.381 474.982L338.623 434.696L347.638 424.815L359.987 438.349C360.779 435.423 362.221 432.577 364.529 430.048C372.39 421.432 381.123 422.308 389.211 431.173L402.282 445.498L393.195 455.458L381.135 442.24C378.318 439.153 374.276 438.043 371.536 441.047C368.651 444.209 369.231 448.48 372.336 451.883L384.396 465.101L375.381 474.982Z" fill="white" fill-opacity="0.2"/>
<path d="M402.281 445.499L439.039 485.785L430.024 495.665L417.675 482.131C416.883 485.057 415.442 487.904 413.134 490.433C405.272 499.049 396.54 498.172 388.451 489.308L375.38 474.982L384.468 465.023L396.528 478.24C399.344 481.327 403.386 482.437 406.127 479.434C409.012 476.272 408.432 472 405.326 468.597L393.266 455.379L402.281 445.499Z" fill="white" fill-opacity="0.2"/>
<path d="M458.413 182.63L471.556 197.035L462.541 206.915L450.986 194.252C447.809 190.769 444.055 189.185 440.738 192.821C437.42 196.457 438.938 200.491 442.116 203.974L453.67 216.637L444.655 226.518L433.1 213.854C429.923 210.372 426.241 208.708 422.924 212.344C419.606 215.98 421.052 220.094 424.23 223.577L435.784 236.24L426.769 246.121L413.626 231.716C406.621 224.039 404.738 212.806 413.392 203.32C418.152 198.104 423.42 196.446 428.039 198.032C426.593 192.81 428.393 186.879 432.721 182.137C441.375 172.652 451.624 174.716 458.629 182.393L458.413 182.63Z" fill="white" fill-opacity="0.2"/>
<path d="M531.097 321.734L517.954 307.329L526.969 297.448L538.524 310.112C541.701 313.594 545.455 315.179 548.773 311.543C552.09 307.907 550.572 303.872 547.395 300.39L535.84 287.726L544.855 277.846L556.41 290.509C559.587 293.992 563.269 295.655 566.586 292.019C569.904 288.383 568.458 284.269 565.281 280.787L553.726 268.123L562.741 258.243L575.885 272.648C582.889 280.325 584.773 291.558 576.118 301.043C571.358 306.26 566.091 307.917 561.471 306.332C562.918 311.553 561.117 317.484 556.79 322.227C548.135 331.712 537.886 329.648 530.881 321.971L531.097 321.734Z" fill="white" fill-opacity="0.2"/>
<path d="M463.383 286.564L426.625 246.278L435.641 236.397L447.99 249.931C448.782 247.005 450.223 244.159 452.531 241.63C460.392 233.014 469.125 233.89 477.213 242.755L490.284 257.08L481.197 267.04L469.137 253.822C466.321 250.736 462.279 249.625 459.538 252.629C456.653 255.791 457.233 260.062 460.338 263.466L472.398 276.683L463.383 286.564Z" fill="white" fill-opacity="0.2"/>
<path d="M490.285 257.081L527.043 297.367L518.028 307.247L505.679 293.713C504.887 296.639 503.445 299.485 501.137 302.015C493.276 310.63 484.543 309.754 476.455 300.89L463.384 286.564L472.471 276.604L484.531 289.822C487.347 292.909 491.39 294.019 494.13 291.015C497.015 287.854 496.435 283.582 493.33 280.179L481.27 266.961L490.285 257.081Z" fill="white" fill-opacity="0.2"/>
<path d="M499.229 247.278L462.471 206.992L471.486 197.111L483.835 210.646C484.627 207.72 486.069 204.873 488.377 202.344C496.238 193.728 504.971 194.604 513.059 203.469L526.13 217.795L517.043 227.754L504.983 214.536C502.166 211.45 498.124 210.339 495.384 213.343C492.499 216.505 493.079 220.776 496.184 224.18L508.244 237.397L499.229 247.278Z" fill="white" fill-opacity="0.2"/>
<path d="M526.131 217.795L562.888 258.081L553.873 267.961L541.524 254.427C540.732 257.353 539.291 260.199 536.983 262.729C529.122 271.344 520.389 270.468 512.301 261.603L499.229 247.278L508.317 237.318L520.377 250.536C523.193 253.623 527.235 254.733 529.976 251.729C532.861 248.568 532.281 244.296 529.176 240.893L517.115 227.675L526.131 217.795Z" fill="white" fill-opacity="0.2"/>
<path d="M466.781 299.934L479.924 314.338L470.909 324.219L459.355 311.555C456.177 308.073 452.423 306.488 449.106 310.124C445.788 313.76 447.306 317.795 450.484 321.278L462.038 333.941L453.023 343.822L441.469 331.158C438.291 327.676 434.61 326.012 431.292 329.648C427.974 333.284 429.42 337.398 432.598 340.88L444.152 353.544L435.137 363.424L421.994 349.019C414.989 341.342 413.106 330.109 421.76 320.624C426.52 315.407 431.788 313.75 436.407 315.335C434.961 310.114 436.762 304.183 441.089 299.441C449.743 289.955 459.992 292.019 466.997 299.696L466.781 299.934Z" fill="white" fill-opacity="0.2"/>
<path d="M539.465 439.037L526.321 424.633L535.336 414.752L546.891 427.416C550.068 430.898 553.822 432.483 557.14 428.847C560.457 425.211 558.939 421.176 555.762 417.693L544.207 405.03L553.222 395.149L564.777 407.813C567.954 411.295 571.636 412.959 574.954 409.323C578.271 405.687 576.825 401.573 573.648 398.091L562.093 385.427L571.108 375.547L584.252 389.951C591.257 397.629 593.14 408.862 584.485 418.347C579.725 423.564 574.458 425.221 569.838 423.636C571.285 428.857 569.484 434.788 565.157 439.53C556.502 449.016 546.253 446.952 539.248 439.274L539.465 439.037Z" fill="white" fill-opacity="0.2"/>
<path d="M471.751 403.868L434.994 363.582L444.009 353.702L456.358 367.236C457.15 364.31 458.591 361.464 460.899 358.934C468.76 350.319 477.493 351.195 485.582 360.06L498.653 374.385L489.565 384.345L477.505 371.127C474.689 368.04 470.647 366.93 467.906 369.934C465.021 373.095 465.601 377.367 468.707 380.77L480.767 393.988L471.751 403.868Z" fill="white" fill-opacity="0.2"/>
<path d="M498.653 374.385L535.411 414.671L526.396 424.552L514.047 411.017C513.255 413.943 511.813 416.79 509.505 419.319C501.644 427.935 492.911 427.059 484.823 418.194L471.752 403.868L480.839 393.909L492.899 407.127C495.716 410.213 499.758 411.324 502.498 408.32C505.383 405.158 504.803 400.887 501.698 397.483L489.638 384.266L498.653 374.385Z" fill="white" fill-opacity="0.2"/>
<path d="M507.596 364.584L470.838 324.298L479.853 314.418L492.202 327.952C492.994 325.026 494.436 322.18 496.744 319.65C504.605 311.035 513.338 311.911 521.426 320.775L534.497 335.101L525.41 345.06L513.35 331.843C510.534 328.756 506.492 327.646 503.751 330.65C500.866 333.811 501.446 338.083 504.551 341.486L516.611 354.704L507.596 364.584Z" fill="white" fill-opacity="0.2"/>
<path d="M534.498 335.102L571.256 375.388L562.241 385.269L549.892 371.734C549.099 374.66 547.658 377.507 545.35 380.036C537.489 388.652 528.756 387.775 520.668 378.911L507.597 364.585L516.684 354.626L528.744 367.843C531.56 370.93 535.602 372.04 538.343 369.037C541.228 365.875 540.648 361.604 537.543 358.2L525.483 344.983L534.498 335.102Z" fill="white" fill-opacity="0.2"/>
<path d="M475.584 417.715L488.727 432.12L479.712 442L468.157 429.337C464.98 425.854 461.226 424.269 457.909 427.905C454.591 431.541 456.109 435.576 459.287 439.059L470.841 451.722L461.826 461.603L450.271 448.939C447.094 445.457 443.412 443.793 440.095 447.429C436.777 451.065 438.223 455.179 441.401 458.662L452.955 471.325L443.94 481.206L430.797 466.801C423.792 459.123 421.909 447.891 430.563 438.405C435.323 433.189 440.59 431.531 445.21 433.117C443.764 427.895 445.564 421.964 449.892 417.222C458.546 407.737 468.795 409.8 475.8 417.478L475.584 417.715Z" fill="white" fill-opacity="0.2"/>
<path d="M548.268 556.818L535.125 542.413L544.14 532.532L555.694 545.196C558.872 548.678 562.625 550.263 565.943 546.627C569.261 542.991 567.743 538.956 564.565 535.474L553.011 522.81L562.026 512.93L573.58 525.593C576.758 529.076 580.439 530.739 583.757 527.103C587.074 523.467 585.629 519.353 582.451 515.871L570.897 503.207L579.912 493.327L593.055 507.732C600.06 515.409 601.943 526.642 593.288 536.127C588.529 541.344 583.261 543.001 578.641 541.416C580.088 546.637 578.287 552.568 573.96 557.311C565.306 566.796 555.056 564.732 548.051 557.055L548.268 556.818Z" fill="white" fill-opacity="0.2"/>
<path d="M480.555 521.65L443.797 481.364L452.812 471.483L465.161 485.018C465.953 482.092 467.395 479.245 469.703 476.716C477.564 468.1 486.297 468.976 494.385 477.841L507.456 492.167L498.369 502.126L486.309 488.908C483.493 485.822 479.451 484.711 476.71 487.715C473.825 490.877 474.405 495.148 477.51 498.552L489.57 511.769L480.555 521.65Z" fill="white" fill-opacity="0.2"/>
<path d="M507.455 492.166L544.213 532.452L535.198 542.332L522.849 528.798C522.057 531.724 520.615 534.57 518.308 537.1C510.446 545.715 501.713 544.839 493.625 535.975L480.554 521.649L489.641 511.689L501.701 524.907C504.518 527.994 508.56 529.104 511.301 526.1C514.185 522.939 513.606 518.667 510.5 515.264L498.44 502.046L507.455 492.166Z" fill="white" fill-opacity="0.2"/>
<path d="M516.4 482.362L479.643 442.076L488.658 432.196L501.007 445.73C501.799 442.804 503.24 439.958 505.548 437.428C513.409 428.813 522.142 429.689 530.23 438.554L543.302 452.879L534.214 462.839L522.154 449.621C519.338 446.534 515.296 445.424 512.555 448.428C509.67 451.589 510.25 455.861 513.355 459.264L525.416 472.482L516.4 482.362Z" fill="white" fill-opacity="0.2"/>
<path d="M543.302 452.878L580.06 493.164L571.045 503.044L558.696 489.51C557.904 492.436 556.462 495.282 554.154 497.812C546.293 506.427 537.56 505.551 529.472 496.687L516.401 482.361L525.488 472.401L537.548 485.619C540.365 488.706 544.407 489.816 547.147 486.812C550.032 483.651 549.452 479.379 546.347 475.976L534.287 462.758L543.302 452.878Z" fill="white" fill-opacity="0.2"/>
<path d="M597.93 187.585L611.073 201.99L602.058 211.87L590.504 199.207C587.326 195.724 583.572 194.14 580.255 197.776C576.937 201.412 578.455 205.447 581.633 208.929L593.187 221.593L584.172 231.473L572.618 218.81C569.44 215.327 565.758 213.663 562.441 217.299C559.123 220.935 560.569 225.049 563.747 228.532L575.301 241.195L566.286 251.076L553.143 236.671C546.138 228.994 544.255 217.761 552.909 208.276C557.669 203.059 562.937 201.402 567.556 202.987C566.11 197.766 567.91 191.835 572.238 187.092C580.892 177.607 591.141 179.671 598.146 187.348L597.93 187.585Z" fill="white" fill-opacity="0.2"/>
<path d="M670.542 326.61L657.399 312.205L666.414 302.325L677.969 314.988C681.146 318.471 684.9 320.055 688.217 316.419C691.535 312.783 690.017 308.748 686.839 305.266L675.285 292.602L684.3 282.722L695.855 295.385C699.032 298.868 702.714 300.532 706.031 296.896C709.349 293.26 707.903 289.146 704.726 285.663L693.171 273L702.186 263.119L715.329 277.524C722.334 285.201 724.217 296.434 715.563 305.919C710.803 311.136 705.536 312.793 700.916 311.208C702.362 316.429 700.562 322.36 696.234 327.103C687.58 336.588 677.331 334.524 670.326 326.847L670.542 326.61Z" fill="white" fill-opacity="0.2"/>
<path d="M602.9 291.522L566.142 251.236L575.157 241.356L587.506 254.89C588.298 251.964 589.74 249.117 592.048 246.588C599.909 237.972 608.642 238.849 616.73 247.713L629.801 262.039L620.714 271.998L608.654 258.781C605.837 255.694 601.795 254.584 599.055 257.587C596.17 260.749 596.75 265.021 599.855 268.424L611.915 281.642L602.9 291.522Z" fill="white" fill-opacity="0.2"/>
<path d="M629.801 262.039L666.558 302.325L657.543 312.205L645.194 298.671C644.402 301.597 642.961 304.443 640.653 306.973C632.792 315.589 624.059 314.712 615.97 305.848L602.899 291.522L611.987 281.563L624.047 294.78C626.863 297.867 630.905 298.977 633.646 295.974C636.531 292.812 635.951 288.54 632.845 285.137L620.785 271.919L629.801 262.039Z" fill="white" fill-opacity="0.2"/>
<path d="M638.746 252.234L601.988 211.948L611.003 202.067L623.352 215.602C624.144 212.676 625.586 209.829 627.894 207.3C635.755 198.684 644.488 199.561 652.576 208.425L665.647 222.751L656.56 232.71L644.5 219.493C641.684 216.406 637.641 215.296 634.901 218.299C632.016 221.461 632.596 225.732 635.701 229.136L647.761 242.353L638.746 252.234Z" fill="white" fill-opacity="0.2"/>
<path d="M665.647 222.752L702.405 263.038L693.39 272.918L681.041 259.384C680.249 262.31 678.807 265.156 676.499 267.686C668.638 276.301 659.905 275.425 651.817 266.561L638.746 252.235L647.833 242.276L659.893 255.493C662.71 258.58 666.752 259.69 669.492 256.686C672.377 253.525 671.797 249.253 668.692 245.85L656.632 232.632L665.647 222.752Z" fill="white" fill-opacity="0.2"/>
<path d="M606.229 304.807L619.372 319.212L610.357 329.092L598.802 316.429C595.625 312.946 591.871 311.361 588.554 314.997C585.236 318.633 586.754 322.668 589.932 326.151L601.486 338.814L592.471 348.695L580.916 336.031C577.739 332.549 574.057 330.885 570.74 334.521C567.422 338.157 568.868 342.271 572.046 345.754L583.6 358.417L574.585 368.298L561.442 353.893C554.437 346.216 552.554 334.983 561.208 325.497C565.968 320.281 571.235 318.623 575.855 320.209C574.409 314.987 576.209 309.056 580.537 304.314C589.191 294.829 599.44 296.892 606.445 304.57L606.229 304.807Z" fill="white" fill-opacity="0.2"/>
<path d="M678.913 443.91L665.77 429.505L674.785 419.624L686.34 432.288C689.517 435.77 693.271 437.355 696.588 433.719C699.906 430.083 698.388 426.048 695.211 422.566L683.656 409.902L692.671 400.022L704.226 412.685C707.403 416.168 711.085 417.831 714.402 414.195C717.72 410.559 716.274 406.445 713.097 402.963L701.542 390.299L710.557 380.419L723.7 394.824C730.705 402.501 732.588 413.734 723.934 423.219C719.174 428.436 713.907 430.093 709.287 428.508C710.733 433.729 708.933 439.66 704.606 444.403C695.951 453.888 685.702 451.824 678.697 444.147L678.913 443.91Z" fill="white" fill-opacity="0.2"/>
<path d="M611.2 408.743L574.442 368.457L583.457 358.576L595.806 372.11C596.598 369.184 598.04 366.338 600.348 363.809C608.209 355.193 616.942 356.069 625.03 364.934L638.101 379.259L629.014 389.219L616.954 376.001C614.137 372.915 610.095 371.804 607.354 374.808C604.47 377.97 605.05 382.241 608.155 385.645L620.215 398.862L611.2 408.743Z" fill="white" fill-opacity="0.2"/>
<path d="M638.101 379.259L674.859 419.545L665.844 429.425L653.495 415.891C652.703 418.817 651.261 421.663 648.953 424.193C641.092 432.808 632.359 431.932 624.271 423.068L611.2 408.742L620.287 398.782L632.347 412C635.163 415.087 639.205 416.197 641.946 413.193C644.831 410.032 644.251 405.76 641.146 402.357L629.086 389.139L638.101 379.259Z" fill="white" fill-opacity="0.2"/>
<path d="M647.046 369.457L610.288 329.171L619.303 319.29L631.652 332.824C632.444 329.898 633.886 327.052 636.194 324.523C644.055 315.907 652.788 316.783 660.876 325.648L673.947 339.973L664.86 349.933L652.8 336.715C649.983 333.629 645.941 332.518 643.201 335.522C640.316 338.684 640.896 342.955 644.001 346.359L656.061 359.576L647.046 369.457Z" fill="white" fill-opacity="0.2"/>
<path d="M673.947 339.973L710.704 380.259L701.689 390.139L689.34 376.605C688.548 379.531 687.107 382.377 684.799 384.907C676.938 393.522 668.205 392.646 660.116 383.781L647.045 369.456L656.133 359.496L668.193 372.714C671.009 375.801 675.051 376.911 677.792 373.907C680.677 370.746 680.097 366.474 676.991 363.071L664.931 349.853L673.947 339.973Z" fill="white" fill-opacity="0.2"/>
<path d="M739.313 195.359L752.457 209.763L743.441 219.644L731.887 206.98C728.709 203.498 724.956 201.913 721.638 205.549C718.321 209.185 719.839 213.22 723.016 216.703L734.571 229.366L725.555 239.247L714.001 226.583C710.823 223.101 707.142 221.437 703.824 225.073C700.507 228.709 701.953 232.823 705.13 236.305L716.685 248.969L707.669 258.849L694.526 244.444C687.521 236.767 685.638 225.534 694.293 216.049C699.053 210.832 704.32 209.175 708.94 210.76C707.493 205.539 709.294 199.608 713.621 194.866C722.276 185.38 732.525 187.444 739.53 195.121L739.313 195.359Z" fill="white" fill-opacity="0.2"/>
<path d="M811.997 334.461L798.854 320.056L807.869 310.176L819.423 322.84C822.601 326.322 826.354 327.907 829.672 324.271C832.99 320.635 831.472 316.6 828.294 313.117L816.74 300.454L825.755 290.573L837.309 303.237C840.487 306.719 844.168 308.383 847.486 304.747C850.803 301.111 849.358 296.997 846.18 293.515L834.626 280.851L843.641 270.971L856.784 285.375C863.789 293.053 865.672 304.286 857.017 313.771C852.257 318.988 846.99 320.645 842.37 319.06C843.817 324.281 842.016 330.212 837.689 334.954C829.035 344.44 818.785 342.376 811.78 334.698L811.997 334.461Z" fill="white" fill-opacity="0.2"/>
<path d="M744.283 299.293L707.525 259.007L716.541 249.127L728.889 262.661C729.682 259.735 731.123 256.889 733.431 254.359C741.292 245.744 750.025 246.62 758.113 255.484L771.184 269.81L762.097 279.77L750.037 266.552C747.221 263.465 743.179 262.355 740.438 265.359C737.553 268.52 738.133 272.792 741.238 276.195L753.298 289.413L744.283 299.293Z" fill="white" fill-opacity="0.2"/>
<path d="M771.184 269.81L807.942 310.096L798.927 319.977L786.578 306.442C785.786 309.368 784.344 312.215 782.037 314.744C774.175 323.36 765.442 322.484 757.354 313.619L744.283 299.293L753.37 289.334L765.43 302.552C768.247 305.638 772.289 306.749 775.03 303.745C777.914 300.583 777.335 296.312 774.229 292.908L762.169 279.691L771.184 269.81Z" fill="white" fill-opacity="0.2"/>
<path d="M780.129 260.008L743.372 219.722L752.387 209.842L764.736 223.376C765.528 220.45 766.969 217.604 769.277 215.074C777.138 206.458 785.871 207.335 793.959 216.199L807.031 230.525L797.943 240.484L785.883 227.267C783.067 224.18 779.025 223.07 776.284 226.073C773.399 229.235 773.979 233.507 777.085 236.91L789.145 250.128L780.129 260.008Z" fill="white" fill-opacity="0.2"/>
<path d="M807.031 230.524L843.789 270.81L834.774 280.691L822.425 267.156C821.633 270.082 820.191 272.929 817.883 275.458C810.022 284.074 801.289 283.197 793.201 274.333L780.13 260.007L789.217 250.048L801.277 263.265C804.094 266.352 808.136 267.462 810.876 264.459C813.761 261.297 813.181 257.026 810.076 253.622L798.016 240.405L807.031 230.524Z" fill="white" fill-opacity="0.2"/>
<path d="M747.683 312.664L760.827 327.069L751.812 336.949L740.257 324.286C737.079 320.803 733.326 319.219 730.008 322.855C726.691 326.491 728.209 330.526 731.386 334.008L742.941 346.672L733.926 356.552L722.371 343.889C719.193 340.406 715.512 338.742 712.194 342.378C708.877 346.014 710.323 350.128 713.5 353.611L725.055 366.274L716.04 376.155L702.896 361.75C695.891 354.073 694.008 342.84 702.663 333.355C707.423 328.138 712.69 326.481 717.31 328.066C715.863 322.845 717.664 316.914 721.991 312.171C730.646 302.686 740.895 304.75 747.9 312.427L747.683 312.664Z" fill="white" fill-opacity="0.2"/>
<path d="M820.295 451.689L807.152 437.284L816.167 427.404L827.722 440.067C830.899 443.55 834.653 445.134 837.97 441.498C841.288 437.862 839.77 433.827 836.592 430.345L825.038 417.681L834.053 407.801L845.608 420.465C848.785 423.947 852.467 425.611 855.784 421.975C859.102 418.339 857.656 414.225 854.478 410.742L842.924 398.079L851.939 388.198L865.082 402.603C872.087 410.28 873.97 421.513 865.316 430.998C860.556 436.215 855.289 437.872 850.669 436.287C852.115 441.509 850.315 447.439 845.987 452.182C837.333 461.667 827.084 459.603 820.079 451.926L820.295 451.689Z" fill="white" fill-opacity="0.2"/>
<path d="M752.583 416.52L715.825 376.234L724.84 366.354L737.189 379.888C737.981 376.962 739.422 374.116 741.73 371.586C749.592 362.971 758.324 363.847 766.413 372.711L779.484 387.037L770.396 396.997L758.336 383.779C755.52 380.692 751.478 379.582 748.737 382.586C745.852 385.747 746.432 390.019 749.538 393.422L761.598 406.64L752.583 416.52Z" fill="white" fill-opacity="0.2"/>
<path d="M779.484 387.037L816.242 427.323L807.227 437.204L794.878 423.669C794.086 426.595 792.644 429.442 790.336 431.971C782.475 440.587 773.742 439.711 765.654 430.846L752.583 416.52L761.67 406.561L773.73 419.779C776.547 422.865 780.589 423.976 783.329 420.972C786.214 417.81 785.634 413.539 782.529 410.135L770.469 396.918L779.484 387.037Z" fill="white" fill-opacity="0.2"/>
<path d="M788.428 377.234L751.67 336.948L760.685 327.068L773.034 340.602C773.826 337.676 775.268 334.829 777.576 332.3C785.437 323.684 794.17 324.561 802.258 333.425L815.329 347.751L806.242 357.71L794.182 344.493C791.365 341.406 787.323 340.296 784.583 343.299C781.698 346.461 782.278 350.733 785.383 354.136L797.443 367.354L788.428 377.234Z" fill="white" fill-opacity="0.2"/>
<path d="M815.329 347.752L852.087 388.038L843.072 397.918L830.723 384.384C829.931 387.31 828.489 390.156 826.181 392.686C818.32 401.302 809.587 400.425 801.499 391.561L788.428 377.235L797.515 367.276L809.575 380.493C812.391 383.58 816.434 384.69 819.174 381.687C822.059 378.525 821.479 374.253 818.374 370.85L806.314 357.632L815.329 347.752Z" fill="white" fill-opacity="0.2"/>
<path d="M615.034 422.588L628.177 436.993L619.162 446.873L607.608 434.21C604.43 430.727 600.676 429.143 597.359 432.779C594.041 436.415 595.559 440.45 598.737 443.932L610.291 456.596L601.276 466.476L589.722 453.812C586.544 450.33 582.862 448.666 579.545 452.302C576.227 455.938 577.673 460.052 580.851 463.535L592.405 476.198L583.39 486.079L570.247 471.674C563.242 463.997 561.359 452.764 570.013 443.279C574.773 438.062 580.041 436.404 584.66 437.99C583.214 432.768 585.014 426.838 589.342 422.095C597.996 412.61 608.245 414.674 615.25 422.351L615.034 422.588Z" fill="white" fill-opacity="0.2"/>
<path d="M687.718 561.691L674.575 547.286L683.59 537.406L695.144 550.069C698.322 553.552 702.076 555.136 705.393 551.5C708.711 547.864 707.193 543.829 704.015 540.347L692.461 527.683L701.476 517.803L713.03 530.466C716.208 533.949 719.889 535.613 723.207 531.977C726.525 528.341 725.079 524.227 721.901 520.744L710.347 508.081L719.362 498.2L732.505 512.605C739.51 520.282 741.393 531.515 732.739 541C727.979 546.217 722.711 547.874 718.092 546.289C719.538 551.51 717.738 557.441 713.41 562.184C704.756 571.669 694.507 569.605 687.502 561.928L687.718 561.691Z" fill="white" fill-opacity="0.2"/>
<path d="M620.004 526.523L583.246 486.237L592.261 476.357L604.61 489.891C605.402 486.965 606.844 484.118 609.152 481.589C617.013 472.973 625.746 473.85 633.834 482.714L646.905 497.04L637.818 506.999L625.758 493.782C622.941 490.695 618.899 489.585 616.159 492.588C613.274 495.75 613.854 500.022 616.959 503.425L629.019 516.642L620.004 526.523Z" fill="white" fill-opacity="0.2"/>
<path d="M646.905 497.04L683.663 537.326L674.648 547.206L662.299 533.672C661.507 536.598 660.065 539.444 657.757 541.974C649.896 550.59 641.163 549.713 633.075 540.849L620.004 526.523L629.091 516.564L641.151 529.781C643.968 532.868 648.01 533.978 650.75 530.975C653.635 527.813 653.055 523.541 649.95 520.138L637.89 506.92L646.905 497.04Z" fill="white" fill-opacity="0.2"/>
<path d="M655.85 487.236L619.092 446.95L628.107 437.07L640.456 450.604C641.248 447.678 642.69 444.831 644.998 442.302C652.859 433.686 661.592 434.563 669.68 443.427L682.751 457.753L673.664 467.712L661.604 454.495C658.788 451.408 654.745 450.298 652.005 453.301C649.12 456.463 649.7 460.735 652.805 464.138L664.865 477.355L655.85 487.236Z" fill="white" fill-opacity="0.2"/>
<path d="M682.751 457.753L719.509 498.039L710.494 507.919L698.145 494.385C697.353 497.311 695.911 500.157 693.603 502.687C685.742 511.302 677.009 510.426 668.921 501.562L655.85 487.236L664.937 477.277L676.997 490.494C679.814 493.581 683.856 494.691 686.596 491.687C689.481 488.526 688.901 484.254 685.796 480.851L673.736 467.633L682.751 457.753Z" fill="white" fill-opacity="0.2"/>
<path d="M756.488 430.438L769.631 444.843L760.616 454.723L749.062 442.059C745.884 438.577 742.13 436.992 738.813 440.628C735.495 444.264 737.013 448.299 740.191 451.782L751.745 464.445L742.73 474.326L731.176 461.662C727.998 458.18 724.317 456.516 720.999 460.152C717.681 463.788 719.127 467.902 722.305 471.384L733.859 484.048L724.844 493.928L711.701 479.524C704.696 471.846 702.813 460.613 711.467 451.128C716.227 445.911 721.495 444.254 726.114 445.839C724.668 440.618 726.469 434.687 730.796 429.945C739.45 420.459 749.699 422.523 756.704 430.201L756.488 430.438Z" fill="white" fill-opacity="0.2"/>
<path d="M829.172 569.542L816.028 555.138L825.043 545.257L836.598 557.921C839.776 561.403 843.529 562.988 846.847 559.352C850.164 555.716 848.646 551.681 845.469 548.198L833.914 535.535L842.929 525.654L854.484 538.318C857.662 541.801 861.343 543.464 864.661 539.828C867.978 536.192 866.532 532.078 863.355 528.596L851.8 515.932L860.815 506.052L873.959 520.457C880.964 528.134 882.847 539.367 874.192 548.852C869.432 554.069 864.165 555.726 859.545 554.141C860.992 559.362 859.191 565.293 854.864 570.035C846.209 579.521 835.96 577.457 828.955 569.78L829.172 569.542Z" fill="white" fill-opacity="0.2"/>
<path d="M761.459 534.373L724.701 494.088L733.716 484.207L746.065 497.741C746.857 494.815 748.298 491.969 750.606 489.44C758.468 480.824 767.2 481.7 775.289 490.565L788.36 504.89L779.272 514.85L767.212 501.632C764.396 498.545 760.354 497.435 757.613 500.439C754.728 503.601 755.308 507.872 758.414 511.275L770.474 524.493L761.459 534.373Z" fill="white" fill-opacity="0.2"/>
<path d="M788.36 504.891L825.118 545.177L816.103 555.057L803.754 541.523C802.962 544.449 801.52 547.295 799.212 549.825C791.351 558.44 782.618 557.564 774.53 548.7L761.459 534.374L770.546 524.414L782.606 537.632C785.423 540.719 789.465 541.829 792.205 538.825C795.09 535.664 794.51 531.392 791.405 527.989L779.345 514.771L788.36 504.891Z" fill="white" fill-opacity="0.2"/>
<path d="M797.305 495.087L760.547 454.802L769.562 444.921L781.911 458.455C782.703 455.529 784.145 452.683 786.453 450.154C794.314 441.538 803.047 442.414 811.135 451.279L824.206 465.604L815.119 475.564L803.059 462.346C800.242 459.259 796.2 458.149 793.459 461.153C790.575 464.315 791.155 468.586 794.26 471.989L806.32 485.207L797.305 495.087Z" fill="white" fill-opacity="0.2"/>
<path d="M824.205 465.605L860.963 505.891L851.948 515.772L839.599 502.238C838.807 505.163 837.365 508.01 835.058 510.539C827.196 519.155 818.463 518.279 810.375 509.414L797.304 495.089L806.391 485.129L818.451 498.347C821.268 501.433 825.31 502.544 828.051 499.54C830.935 496.378 830.355 492.107 827.25 488.703L815.19 475.486L824.205 465.605Z" fill="white" fill-opacity="0.2"/>
<path d="M880.337 202.737L893.48 217.141L884.465 227.022L872.91 214.358C869.733 210.876 865.979 209.291 862.662 212.927C859.344 216.563 860.862 220.598 864.039 224.081L875.594 236.744L866.579 246.624L855.024 233.961C851.847 230.478 848.165 228.815 844.848 232.451C841.53 236.087 842.976 240.201 846.153 243.683L857.708 256.347L848.693 266.227L835.55 251.822C828.545 244.145 826.662 232.912 835.316 223.427C840.076 218.21 845.343 216.553 849.963 218.138C848.517 212.917 850.317 206.986 854.644 202.243C863.299 192.758 873.548 194.822 880.553 202.499L880.337 202.737Z" fill="white" fill-opacity="0.2"/>
<path d="M953.021 341.839L939.877 327.435L948.893 317.554L960.447 330.218C963.625 333.7 967.378 335.285 970.696 331.649C974.013 328.013 972.495 323.978 969.318 320.495L957.763 307.832L966.779 297.951L978.333 310.615C981.511 314.097 985.192 315.761 988.51 312.125C991.827 308.489 990.381 304.375 987.204 300.893L975.649 288.229L984.665 278.349L997.808 292.753C1004.81 300.431 1006.7 311.664 998.041 321.149C993.281 326.366 988.014 328.023 983.394 326.438C984.841 331.659 983.04 337.59 978.713 342.332C970.058 351.818 959.809 349.754 952.804 342.076L953.021 341.839Z" fill="white" fill-opacity="0.2"/>
<path d="M885.308 306.67L848.55 266.384L857.565 256.504L869.914 270.038C870.706 267.112 872.148 264.266 874.455 261.736C882.317 253.121 891.05 253.997 899.138 262.861L912.209 277.187L903.122 287.147L891.061 273.929C888.245 270.842 884.203 269.732 881.462 272.736C878.578 275.897 879.157 280.169 882.263 283.572L894.323 296.79L885.308 306.67Z" fill="white" fill-opacity="0.2"/>
<path d="M912.209 277.188L948.967 317.473L939.951 327.354L927.603 313.82C926.81 316.746 925.369 319.592 923.061 322.121C915.2 330.737 906.467 329.861 898.379 320.996L885.308 306.671L894.395 296.711L906.455 309.929C909.271 313.016 913.313 314.126 916.054 311.122C918.939 307.96 918.359 303.689 915.254 300.286L903.194 287.068L912.209 277.188Z" fill="white" fill-opacity="0.2"/>
<path d="M921.153 267.384L884.395 227.098L893.41 217.218L905.759 230.752C906.551 227.826 907.993 224.98 910.301 222.45C918.162 213.834 926.895 214.711 934.983 223.575L948.054 237.901L938.967 247.86L926.907 234.643C924.09 231.556 920.048 230.446 917.308 233.449C914.423 236.611 915.003 240.883 918.108 244.286L930.168 257.504L921.153 267.384Z" fill="white" fill-opacity="0.2"/>
<path d="M948.054 237.901L984.812 278.187L975.797 288.068L963.448 274.534C962.656 277.46 961.214 280.306 958.906 282.835C951.045 291.451 942.312 290.575 934.224 281.71L921.153 267.385L930.24 257.425L942.3 270.643C945.117 273.729 949.159 274.84 951.899 271.836C954.784 268.674 954.204 264.403 951.099 260.999L939.039 247.782L948.054 237.901Z" fill="white" fill-opacity="0.2"/>
<path d="M888.705 320.039L901.849 334.444L892.833 344.325L881.279 331.661C878.101 328.179 874.348 326.594 871.03 330.23C867.713 333.866 869.231 337.901 872.408 341.383L883.963 354.047L874.948 363.927L863.393 351.264C860.215 347.781 856.534 346.118 853.216 349.754C849.899 353.39 851.345 357.504 854.522 360.986L866.077 373.65L857.062 383.53L843.918 369.125C836.913 361.448 835.03 350.215 843.685 340.73C848.445 335.513 853.712 333.856 858.332 335.441C856.885 330.22 858.686 324.289 863.013 319.546C871.668 310.061 881.917 312.125 888.922 319.802L888.705 320.039Z" fill="white" fill-opacity="0.2"/>
<path d="M961.389 459.144L948.246 444.739L957.261 434.859L968.815 447.522C971.993 451.005 975.746 452.589 979.064 448.953C982.382 445.317 980.864 441.282 977.686 437.8L966.132 425.136L975.147 415.256L986.701 427.92C989.879 431.402 993.56 433.066 996.878 429.43C1000.2 425.794 998.75 421.68 995.572 418.197L984.018 405.534L993.033 395.653L1006.18 410.058C1013.18 417.735 1015.06 428.968 1006.41 438.453C1001.65 443.67 996.382 445.328 991.763 443.742C993.209 448.964 991.408 454.894 987.081 459.637C978.427 469.122 968.178 467.058 961.173 459.381L961.389 459.144Z" fill="white" fill-opacity="0.2"/>
<path d="M893.676 423.974L856.918 383.688L865.933 373.808L878.282 387.342C879.074 384.416 880.516 381.57 882.824 379.04C890.685 370.424 899.418 371.301 907.506 380.165L920.577 394.491L911.49 404.45L899.43 391.233C896.613 388.146 892.571 387.036 889.831 390.039C886.946 393.201 887.526 397.473 890.631 400.876L902.691 414.094L893.676 423.974Z" fill="white" fill-opacity="0.2"/>
<path d="M920.577 394.49L957.335 434.776L948.32 444.657L935.971 431.123C935.179 434.049 933.737 436.895 931.43 439.424C923.568 448.04 914.835 447.164 906.747 438.299L893.676 423.974L902.764 414.014L914.824 427.232C917.64 430.318 921.682 431.429 924.423 428.425C927.308 425.263 926.728 420.992 923.622 417.588L911.562 404.371L920.577 394.49Z" fill="white" fill-opacity="0.2"/>
<path d="M929.521 384.69L892.763 344.404L901.778 334.524L914.127 348.058C914.919 345.132 916.36 342.285 918.668 339.756C926.53 331.14 935.262 332.017 943.351 340.881L956.422 355.207L947.334 365.166L935.274 351.949C932.458 348.862 928.416 347.752 925.675 350.755C922.79 353.917 923.37 358.189 926.476 361.592L938.536 374.809L929.521 384.69Z" fill="white" fill-opacity="0.2"/>
<path d="M956.422 355.208L993.18 395.494L984.165 405.374L971.816 391.84C971.024 394.766 969.582 397.612 967.274 400.142C959.413 408.758 950.68 407.881 942.592 399.017L929.521 384.691L938.608 374.732L950.668 387.949C953.485 391.036 957.527 392.146 960.267 389.143C963.152 385.981 962.572 381.709 959.467 378.306L947.407 365.088L956.422 355.208Z" fill="white" fill-opacity="0.2"/>
<path d="M897.508 437.819L910.651 452.223L901.636 462.104L890.081 449.44C886.904 445.958 883.15 444.373 879.832 448.009C876.515 451.645 878.033 455.68 881.21 459.163L892.765 471.826L883.75 481.707L872.195 469.043C869.018 465.561 865.336 463.897 862.019 467.533C858.701 471.169 860.147 475.283 863.324 478.765L874.879 491.429L865.864 501.309L852.72 486.905C845.716 479.227 843.832 467.994 852.487 458.509C857.247 453.292 862.514 451.635 867.134 453.22C865.687 447.999 867.488 442.068 871.815 437.326C880.47 427.84 890.719 429.904 897.724 437.582L897.508 437.819Z" fill="white" fill-opacity="0.2"/>
<path d="M970.192 576.922L957.048 562.518L966.064 552.637L977.618 565.301C980.796 568.783 984.549 570.368 987.867 566.732C991.184 563.096 989.666 559.061 986.489 555.578L974.934 542.915L983.95 533.034L995.504 545.698C998.682 549.18 1002.36 550.844 1005.68 547.208C1009 543.572 1007.55 539.458 1004.37 535.976L992.82 523.312L1001.84 513.432L1014.98 527.836C1021.98 535.514 1023.87 546.747 1015.21 556.232C1010.45 561.449 1005.19 563.106 1000.57 561.521C1002.01 566.742 1000.21 572.673 995.884 577.415C987.229 586.901 976.98 584.837 969.975 577.159L970.192 576.922Z" fill="white" fill-opacity="0.2"/>
<path d="M902.479 541.754L865.721 501.468L874.736 491.588L887.085 505.122C887.877 502.196 889.318 499.35 891.626 496.82C899.488 488.205 908.22 489.081 916.309 497.945L929.38 512.271L920.292 522.231L908.232 509.013C905.416 505.926 901.374 504.816 898.633 507.82C895.748 510.981 896.328 515.253 899.434 518.656L911.494 531.874L902.479 541.754Z" fill="white" fill-opacity="0.2"/>
<path d="M929.379 512.271L966.137 552.557L957.122 562.437L944.773 548.903C943.981 551.829 942.539 554.675 940.231 557.205C932.37 565.82 923.637 564.944 915.549 556.08L902.478 541.754L911.565 531.794L923.625 545.012C926.442 548.099 930.484 549.209 933.224 546.205C936.109 543.044 935.529 538.772 932.424 535.369L920.364 522.151L929.379 512.271Z" fill="white" fill-opacity="0.2"/>
<path d="M938.324 502.468L901.566 462.182L910.582 452.302L922.93 465.836C923.723 462.91 925.164 460.064 927.472 457.534C935.333 448.919 944.066 449.795 952.154 458.659L965.225 472.985L956.138 482.945L944.078 469.727C941.262 466.64 937.22 465.53 934.479 468.534C931.594 471.695 932.174 475.967 935.279 479.37L947.339 492.588L938.324 502.468Z" fill="white" fill-opacity="0.2"/>
<path d="M965.226 472.983L1001.98 513.269L992.969 523.149L980.62 509.615C979.828 512.541 978.386 515.388 976.078 517.917C968.217 526.533 959.484 525.656 951.396 516.792L938.325 502.466L947.412 492.507L959.472 505.724C962.288 508.811 966.33 509.921 969.071 506.918C971.956 503.756 971.376 499.484 968.271 496.081L956.211 482.863L965.226 472.983Z" fill="white" fill-opacity="0.2"/>
<path d="M201.413 524.746L214.557 539.151L205.541 549.031L193.987 536.368C190.809 532.885 187.056 531.301 183.738 534.937C180.421 538.573 181.939 542.608 185.116 546.09L196.671 558.754L187.656 568.634L176.101 555.971C172.923 552.488 169.242 550.825 165.924 554.46C162.607 558.096 164.053 562.21 167.23 565.693L178.785 578.357L169.77 588.237L156.626 573.832C149.621 566.155 147.738 554.922 156.393 545.437C161.153 540.22 166.42 538.563 171.04 540.148C169.593 534.927 171.394 528.996 175.721 524.253C184.376 514.768 194.625 516.832 201.63 524.509L201.413 524.746Z" fill="white" fill-opacity="0.2"/>
<path d="M274.026 663.771L260.882 649.366L269.898 639.486L281.452 652.149C284.63 655.632 288.383 657.216 291.701 653.58C295.018 649.944 293.5 645.909 290.323 642.427L278.768 629.763L287.783 619.883L299.338 632.546C302.516 636.029 306.197 637.693 309.515 634.057C312.832 630.421 311.386 626.307 308.209 622.824L296.654 610.161L305.669 600.28L318.813 614.685C325.818 622.362 327.701 633.595 319.046 643.08C314.286 648.297 309.019 649.954 304.399 648.369C305.846 653.59 304.045 659.521 299.718 664.264C291.063 673.749 280.814 671.685 273.809 664.008L274.026 663.771Z" fill="white" fill-opacity="0.2"/>
<path d="M206.383 628.683L169.625 588.397L178.64 578.516L190.989 592.05C191.781 589.124 193.223 586.278 195.531 583.749C203.392 575.133 212.125 576.009 220.213 584.874L233.284 599.199L224.197 609.159L212.137 595.941C209.32 592.855 205.278 591.744 202.538 594.748C199.653 597.91 200.233 602.181 203.338 605.585L215.398 618.802L206.383 628.683Z" fill="white" fill-opacity="0.2"/>
<path d="M233.283 599.199L270.041 639.485L261.026 649.365L248.677 635.831C247.885 638.757 246.443 641.603 244.135 644.133C236.274 652.748 227.541 651.872 219.453 643.008L206.382 628.682L215.469 618.723L227.529 631.94C230.346 635.027 234.388 636.137 237.128 633.133C240.013 629.972 239.433 625.7 236.328 622.297L224.268 609.079L233.283 599.199Z" fill="white" fill-opacity="0.2"/>
<path d="M242.229 589.394L205.471 549.108L214.486 539.228L226.835 552.762C227.627 549.836 229.069 546.989 231.377 544.46C239.238 535.844 247.971 536.721 256.059 545.585L269.13 559.911L260.043 569.87L247.983 556.653C245.166 553.566 241.124 552.456 238.384 555.459C235.499 558.621 236.079 562.893 239.184 566.296L251.244 579.514L242.229 589.394Z" fill="white" fill-opacity="0.2"/>
<path d="M269.13 559.912L305.888 600.198L296.873 610.078L284.524 596.544C283.732 599.47 282.29 602.317 279.982 604.846C272.121 613.462 263.388 612.585 255.3 603.721L242.229 589.395L251.316 579.436L263.376 592.653C266.193 595.74 270.235 596.85 272.975 593.847C275.86 590.685 275.28 586.413 272.175 583.01L260.115 569.792L269.13 559.912Z" fill="white" fill-opacity="0.2"/>
<path d="M209.712 641.965L222.855 656.37L213.84 666.25L202.286 653.586C199.108 650.104 195.355 648.519 192.037 652.155C188.719 655.791 190.237 659.826 193.415 663.309L204.969 675.972L195.954 685.853L184.4 673.189C181.222 669.707 177.541 668.043 174.223 671.679C170.906 675.315 172.351 679.429 175.529 682.911L187.083 695.575L178.068 705.455L164.925 691.051C157.92 683.373 156.037 672.14 164.692 662.655C169.452 657.438 174.719 655.781 179.339 657.366C177.892 652.145 179.693 646.214 184.02 641.472C192.674 631.986 202.924 634.05 209.929 641.728L209.712 641.965Z" fill="white" fill-opacity="0.2"/>
<path d="M282.397 781.068L269.253 766.664L278.269 756.783L289.823 769.447C293.001 772.929 296.754 774.514 300.072 770.878C303.389 767.242 301.871 763.207 298.694 759.724L287.139 747.061L296.155 737.18L307.709 749.844C310.887 753.327 314.568 754.99 317.886 751.354C321.203 747.718 319.757 743.604 316.58 740.122L305.025 727.458L314.041 717.578L327.184 731.983C334.189 739.66 336.072 750.893 327.417 760.378C322.657 765.595 317.39 767.252 312.77 765.667C314.217 770.888 312.416 776.819 308.089 781.562C299.434 791.047 289.185 788.983 282.18 781.306L282.397 781.068Z" fill="white" fill-opacity="0.2"/>
<path d="M214.683 745.901L177.925 705.615L186.94 695.735L199.289 709.269C200.081 706.343 201.523 703.497 203.831 700.967C211.692 692.352 220.425 693.228 228.513 702.093L241.584 716.418L232.497 726.378L220.437 713.16C217.621 710.073 213.578 708.963 210.838 711.967C207.953 715.128 208.533 719.4 211.638 722.803L223.698 736.021L214.683 745.901Z" fill="white" fill-opacity="0.2"/>
<path d="M241.584 716.418L278.342 756.704L269.327 766.584L256.978 753.05C256.186 755.976 254.744 758.822 252.436 761.352C244.575 769.967 235.842 769.091 227.754 760.227L214.683 745.901L223.77 735.941L235.83 749.159C238.647 752.246 242.689 753.356 245.429 750.352C248.314 747.191 247.734 742.919 244.629 739.516L232.569 726.298L241.584 716.418Z" fill="white" fill-opacity="0.2"/>
<path d="M250.529 706.614L213.771 666.328L222.787 656.448L235.136 669.982C235.928 667.056 237.369 664.21 239.677 661.681C247.538 653.065 256.271 653.941 264.359 662.806L277.43 677.131L268.343 687.091L256.283 673.873C253.467 670.786 249.425 669.676 246.684 672.68C243.799 675.842 244.379 680.113 247.484 683.516L259.544 696.734L250.529 706.614Z" fill="white" fill-opacity="0.2"/>
<path d="M277.43 677.13L314.188 717.416L305.173 727.297L292.824 713.762C292.032 716.688 290.59 719.535 288.282 722.064C280.421 730.68 271.688 729.804 263.6 720.939L250.529 706.613L259.616 696.654L271.676 709.872C274.493 712.958 278.535 714.069 281.275 711.065C284.16 707.903 283.58 703.632 280.475 700.228L268.415 687.011L277.43 677.13Z" fill="white" fill-opacity="0.2"/>
<path d="M342.796 532.518L355.939 546.923L346.924 556.804L335.369 544.14C332.192 540.658 328.438 539.073 325.121 542.709C321.803 546.345 323.321 550.38 326.498 553.862L338.053 566.526L329.038 576.406L317.483 563.743C314.306 560.26 310.624 558.597 307.307 562.233C303.989 565.869 305.435 569.983 308.612 573.465L320.167 586.129L311.152 596.009L298.009 581.604C291.004 573.927 289.121 562.694 297.775 553.209C302.535 547.992 307.802 546.335 312.422 547.92C310.976 542.699 312.776 536.768 317.103 532.025C325.758 522.54 336.007 524.604 343.012 532.281L342.796 532.518Z" fill="white" fill-opacity="0.2"/>
<path d="M415.48 671.621L402.336 657.216L411.352 647.336L422.906 659.999C426.084 663.482 429.837 665.066 433.155 661.431C436.472 657.795 434.954 653.76 431.777 650.277L420.222 637.614L429.238 627.733L440.792 640.397C443.97 643.879 447.651 645.543 450.969 641.907C454.286 638.271 452.84 634.157 449.663 630.674L438.108 618.011L447.124 608.13L460.267 622.535C467.272 630.212 469.155 641.445 460.5 650.931C455.74 656.147 450.473 657.805 445.853 656.219C447.3 661.441 445.499 667.372 441.172 672.114C432.517 681.599 422.268 679.535 415.263 671.858L415.48 671.621Z" fill="white" fill-opacity="0.2"/>
<path d="M347.766 636.453L311.008 596.167L320.023 586.287L332.372 599.821C333.164 596.895 334.606 594.049 336.913 591.519C344.775 582.904 353.508 583.78 361.596 592.644L374.667 606.97L365.58 616.93L353.519 603.712C350.703 600.625 346.661 599.515 343.92 602.519C341.036 605.68 341.615 609.952 344.721 613.355L356.781 626.573L347.766 636.453Z" fill="white" fill-opacity="0.2"/>
<path d="M374.667 606.97L411.425 647.256L402.41 657.137L390.061 643.602C389.269 646.528 387.827 649.375 385.519 651.904C377.658 660.52 368.925 659.644 360.837 650.779L347.766 636.453L356.853 626.494L368.913 639.712C371.73 642.798 375.772 643.908 378.512 640.905C381.397 637.743 380.817 633.472 377.712 630.068L365.652 616.851L374.667 606.97Z" fill="white" fill-opacity="0.2"/>
<path d="M383.613 597.167L346.855 556.881L355.87 547.001L368.219 560.535C369.011 557.609 370.453 554.763 372.761 552.234C380.622 543.618 389.355 544.494 397.443 553.359L410.514 567.684L401.427 577.644L389.367 564.426C386.55 561.339 382.508 560.229 379.768 563.233C376.883 566.395 377.463 570.666 380.568 574.069L392.628 587.287L383.613 597.167Z" fill="white" fill-opacity="0.2"/>
<path d="M410.514 567.684L447.272 607.97L438.257 617.851L425.908 604.316C425.116 607.242 423.674 610.089 421.366 612.618C413.505 621.234 404.772 620.358 396.684 611.493L383.613 597.167L392.7 587.208L404.76 600.425C407.577 603.512 411.619 604.622 414.359 601.619C417.244 598.457 416.664 594.186 413.559 590.782L401.499 577.565L410.514 567.684Z" fill="white" fill-opacity="0.2"/>
<path d="M351.166 649.823L364.31 664.228L355.294 674.108L343.74 661.445C340.562 657.962 336.809 656.378 333.491 660.014C330.174 663.65 331.692 667.685 334.869 671.167L346.424 683.831L337.408 693.711L325.854 681.048C322.676 677.565 318.995 675.902 315.677 679.538C312.36 683.174 313.806 687.287 316.983 690.77L328.538 703.434L319.522 713.314L306.379 698.909C299.374 691.232 297.491 679.999 306.146 670.514C310.906 665.297 316.173 663.64 320.793 665.225C319.346 660.004 321.147 654.073 325.474 649.33C334.129 639.845 344.378 641.909 351.383 649.586L351.166 649.823Z" fill="white" fill-opacity="0.2"/>
<path d="M423.778 788.848L410.635 774.443L419.65 764.563L431.204 777.226C434.382 780.709 438.136 782.293 441.453 778.657C444.771 775.021 443.253 770.986 440.075 767.504L428.521 754.84L437.536 744.96L449.09 757.623C452.268 761.106 455.95 762.769 459.267 759.133C462.585 755.498 461.139 751.383 457.961 747.901L446.407 735.237L455.422 725.357L468.565 739.762C475.57 747.439 477.453 758.672 468.799 768.157C464.039 773.374 458.771 775.031 454.152 773.446C455.598 778.667 453.798 784.598 449.47 789.341C440.816 798.826 430.567 796.762 423.562 789.085L423.778 788.848Z" fill="white" fill-opacity="0.2"/>
<path d="M356.065 753.68L319.308 713.394L328.323 703.513L340.672 717.047C341.464 714.121 342.905 711.275 345.213 708.746C353.074 700.13 361.807 701.006 369.896 709.871L382.967 724.196L373.879 734.156L361.819 720.938C359.003 717.851 354.961 716.741 352.22 719.745C349.335 722.907 349.915 727.178 353.021 730.582L365.081 743.799L356.065 753.68Z" fill="white" fill-opacity="0.2"/>
<path d="M382.967 724.196L419.724 764.482L410.709 774.363L398.36 760.828C397.568 763.754 396.127 766.601 393.819 769.13C385.958 777.746 377.225 776.87 369.137 768.005L356.065 753.679L365.153 743.72L377.213 756.938C380.029 760.024 384.071 761.135 386.812 758.131C389.697 754.969 389.117 750.698 386.011 747.294L373.951 734.077L382.967 724.196Z" fill="white" fill-opacity="0.2"/>
<path d="M391.912 714.393L355.154 674.107L364.169 664.227L376.518 677.761C377.31 674.835 378.752 671.988 381.059 669.459C388.921 660.843 397.654 661.72 405.742 670.584L418.813 684.91L409.726 694.869L397.665 681.652C394.849 678.565 390.807 677.455 388.066 680.458C385.182 683.62 385.761 687.892 388.867 691.295L400.927 704.513L391.912 714.393Z" fill="white" fill-opacity="0.2"/>
<path d="M418.812 684.911L455.57 725.197L446.555 735.077L434.206 721.543C433.414 724.469 431.972 727.316 429.664 729.845C421.803 738.461 413.07 737.584 404.982 728.72L391.911 714.394L400.998 704.435L413.058 717.652C415.875 720.739 419.917 721.849 422.658 718.846C425.542 715.684 424.962 711.412 421.857 708.009L409.797 694.791L418.812 684.911Z" fill="white" fill-opacity="0.2"/>
<path d="M218.517 759.747L231.66 774.152L222.645 784.032L211.09 771.369C207.913 767.886 204.159 766.302 200.842 769.938C197.524 773.574 199.042 777.609 202.22 781.091L213.774 793.755L204.759 803.635L193.204 790.972C190.027 787.489 186.345 785.825 183.028 789.461C179.71 793.097 181.156 797.211 184.334 800.694L195.888 813.357L186.873 823.238L173.73 808.833C166.725 801.156 164.842 789.923 173.496 780.438C178.256 775.221 183.523 773.564 188.143 775.149C186.697 769.928 188.497 763.997 192.825 759.254C201.479 749.769 211.728 751.833 218.733 759.51L218.517 759.747Z" fill="white" fill-opacity="0.2"/>
<path d="M291.201 898.851L278.058 884.446L287.073 874.566L298.627 887.229C301.805 890.712 305.559 892.296 308.876 888.66C312.194 885.024 310.676 880.989 307.498 877.507L295.944 864.843L304.959 854.963L316.513 867.627C319.691 871.109 323.372 872.773 326.69 869.137C330.008 865.501 328.562 861.387 325.384 857.904L313.83 845.241L322.845 835.36L335.988 849.765C342.993 857.442 344.876 868.675 336.222 878.16C331.462 883.377 326.194 885.034 321.575 883.449C323.021 888.671 321.22 894.601 316.893 899.344C308.239 908.829 297.99 906.765 290.985 899.088L291.201 898.851Z" fill="white" fill-opacity="0.2"/>
<path d="M223.487 863.681L186.729 823.395L195.744 813.515L208.093 827.049C208.885 824.123 210.327 821.277 212.635 818.747C220.496 810.131 229.229 811.008 237.317 819.872L250.388 834.198L241.301 844.157L229.241 830.94C226.424 827.853 222.382 826.743 219.642 829.746C216.757 832.908 217.337 837.18 220.442 840.583L232.502 853.801L223.487 863.681Z" fill="white" fill-opacity="0.2"/>
<path d="M250.388 834.199L287.146 874.485L278.131 884.365L265.782 870.831C264.99 873.757 263.548 876.603 261.24 879.133C253.379 887.748 244.646 886.872 236.558 878.008L223.487 863.682L232.574 853.723L244.634 866.94C247.451 870.027 251.493 871.137 254.233 868.133C257.118 864.972 256.538 860.7 253.433 857.297L241.373 844.079L250.388 834.199Z" fill="white" fill-opacity="0.2"/>
<path d="M259.333 824.396L222.575 784.11L231.59 774.229L243.939 787.764C244.731 784.838 246.172 781.991 248.48 779.462C256.342 770.846 265.074 771.722 273.163 780.587L286.234 794.913L277.146 804.872L265.086 791.654C262.27 788.568 258.228 787.457 255.487 790.461C252.602 793.623 253.182 797.894 256.288 801.298L268.348 814.515L259.333 824.396Z" fill="white" fill-opacity="0.2"/>
<path d="M286.234 794.913L322.992 835.199L313.977 845.079L301.628 831.545C300.836 834.471 299.394 837.318 297.086 839.847C289.225 848.463 280.492 847.586 272.404 838.722L259.333 824.396L268.42 814.437L280.48 827.654C283.297 830.741 287.339 831.851 290.079 828.848C292.964 825.686 292.384 821.414 289.279 818.011L277.219 804.793L286.234 794.913Z" fill="white" fill-opacity="0.2"/>
<path d="M359.971 767.599L373.114 782.004L364.099 791.884L352.545 779.221C349.367 775.738 345.613 774.154 342.296 777.79C338.978 781.426 340.496 785.461 343.674 788.943L355.228 801.607L346.213 811.487L334.659 798.824C331.481 795.341 327.8 793.678 324.482 797.314C321.164 800.949 322.61 805.064 325.788 808.546L337.342 821.21L328.327 831.09L315.184 816.685C308.179 809.008 306.296 797.775 314.95 788.29C319.71 783.073 324.978 781.416 329.597 783.001C328.151 777.78 329.951 771.849 334.279 767.106C342.933 757.621 353.182 759.685 360.187 767.362L359.971 767.599Z" fill="white" fill-opacity="0.2"/>
<path d="M432.655 906.704L419.511 892.299L428.526 882.419L440.081 895.082C443.258 898.565 447.012 900.149 450.33 896.513C453.647 892.877 452.129 888.842 448.952 885.36L437.397 872.696L446.412 862.816L457.967 875.48C461.144 878.962 464.826 880.626 468.144 876.99C471.461 873.354 470.015 869.24 466.838 865.757L455.283 853.094L464.298 843.213L477.442 857.618C484.447 865.295 486.33 876.528 477.675 886.013C472.915 891.23 467.648 892.887 463.028 891.302C464.475 896.524 462.674 902.454 458.347 907.197C449.692 916.682 439.443 914.618 432.438 906.941L432.655 906.704Z" fill="white" fill-opacity="0.2"/>
<path d="M364.941 871.533L328.184 831.247L337.199 821.367L349.548 834.901C350.34 831.975 351.781 829.129 354.089 826.599C361.95 817.984 370.683 818.86 378.771 827.724L391.843 842.05L382.755 852.009L370.695 838.792C367.879 835.705 363.837 834.595 361.096 837.599C358.211 840.76 358.791 845.032 361.897 848.435L373.957 861.653L364.941 871.533Z" fill="white" fill-opacity="0.2"/>
<path d="M391.843 842.051L428.6 882.337L419.585 892.218L407.236 878.683C406.444 881.609 405.003 884.456 402.695 886.985C394.834 895.601 386.101 894.724 378.012 885.86L364.941 871.534L374.029 861.575L386.089 874.792C388.905 877.879 392.947 878.989 395.688 875.986C398.573 872.824 397.993 868.552 394.887 865.149L382.827 851.932L391.843 842.051Z" fill="white" fill-opacity="0.2"/>
<path d="M400.788 832.247L364.03 791.961L373.045 782.081L385.394 795.615C386.186 792.689 387.628 789.843 389.935 787.313C397.797 778.698 406.529 779.574 414.618 788.438L427.689 802.764L418.601 812.724L406.541 799.506C403.725 796.419 399.683 795.309 396.942 798.313C394.058 801.474 394.637 805.746 397.743 809.149L409.803 822.367L400.788 832.247Z" fill="white" fill-opacity="0.2"/>
<path d="M427.688 802.765L464.446 843.051L455.431 852.931L443.082 839.397C442.29 842.323 440.848 845.169 438.54 847.699C430.679 856.314 421.946 855.438 413.858 846.574L400.787 832.248L409.874 822.288L421.934 835.506C424.751 838.593 428.793 839.703 431.533 836.699C434.418 833.538 433.838 829.266 430.733 825.863L418.673 812.645L427.688 802.765Z" fill="white" fill-opacity="0.2"/>
<path d="M483.82 539.896L496.963 554.301L487.948 564.181L476.393 551.517C473.216 548.035 469.462 546.45 466.144 550.086C462.827 553.722 464.345 557.757 467.522 561.24L479.077 573.903L470.062 583.784L458.507 571.12C455.33 567.638 451.648 565.974 448.331 569.61C445.013 573.246 446.459 577.36 449.636 580.842L461.191 593.506L452.176 603.386L439.032 588.982C432.028 581.304 430.144 570.072 438.799 560.586C443.559 555.369 448.826 553.712 453.446 555.297C451.999 550.076 453.8 544.145 458.127 539.403C466.782 529.918 477.031 531.981 484.036 539.659L483.82 539.896Z" fill="white" fill-opacity="0.2"/>
<path d="M556.504 678.999L543.361 664.595L552.376 654.714L563.931 667.378C567.108 670.86 570.862 672.445 574.179 668.809C577.497 665.173 575.979 661.138 572.801 657.655L561.247 644.992L570.262 635.111L581.817 647.775C584.994 651.257 588.676 652.921 591.993 649.285C595.311 645.649 593.865 641.535 590.687 638.053L579.133 625.389L588.148 615.509L601.291 629.913C608.296 637.591 610.179 648.824 601.525 658.309C596.765 663.526 591.498 665.183 586.878 663.598C588.324 668.819 586.524 674.75 582.196 679.492C573.542 688.978 563.293 686.914 556.288 679.236L556.504 678.999Z" fill="white" fill-opacity="0.2"/>
<path d="M488.79 643.829L452.032 603.543L461.047 593.663L473.396 607.197C474.188 604.271 475.63 601.425 477.938 598.895C485.799 590.28 494.532 591.156 502.62 600.02L515.691 614.346L506.604 624.306L494.544 611.088C491.727 608.001 487.685 606.891 484.945 609.895C482.06 613.056 482.64 617.328 485.745 620.731L497.805 633.949L488.79 643.829Z" fill="white" fill-opacity="0.2"/>
<path d="M515.692 614.347L552.449 654.633L543.434 664.513L531.085 650.979C530.293 653.905 528.852 656.751 526.544 659.28C518.683 667.896 509.95 667.02 501.862 658.155L488.791 643.83L497.878 633.87L509.938 647.088C512.754 650.175 516.796 651.285 519.537 648.281C522.422 645.119 521.842 640.848 518.737 637.445L506.677 624.227L515.692 614.347Z" fill="white" fill-opacity="0.2"/>
<path d="M524.636 604.544L487.878 564.258L496.893 554.377L509.242 567.911C510.034 564.985 511.476 562.139 513.784 559.61C521.645 550.994 530.378 551.87 538.466 560.735L551.537 575.06L542.45 585.02L530.39 571.802C527.573 568.715 523.531 567.605 520.791 570.609C517.906 573.771 518.486 578.042 521.591 581.446L533.651 594.663L524.636 604.544Z" fill="white" fill-opacity="0.2"/>
<path d="M551.537 575.061L588.295 615.347L579.28 625.227L566.931 611.693C566.139 614.619 564.697 617.465 562.39 619.994C554.528 628.61 545.795 627.734 537.707 618.869L524.636 604.544L533.723 594.584L545.783 607.802C548.6 610.889 552.642 611.999 555.383 608.995C558.267 605.833 557.688 601.562 554.582 598.159L542.522 584.941L551.537 575.061Z" fill="white" fill-opacity="0.2"/>
<path d="M492.188 657.199L505.331 671.604L496.316 681.485L484.761 668.821C481.584 665.339 477.83 663.754 474.513 667.39C471.195 671.026 472.713 675.061 475.891 678.543L487.445 691.207L478.43 701.087L466.875 688.424C463.698 684.941 460.016 683.278 456.699 686.914C453.381 690.55 454.827 694.664 458.005 698.146L469.559 710.81L460.544 720.69L447.401 706.285C440.396 698.608 438.513 687.375 447.167 677.89C451.927 672.673 457.194 671.016 461.814 672.601C460.368 667.38 462.168 661.449 466.496 656.706C475.15 647.221 485.399 649.285 492.404 656.962L492.188 657.199Z" fill="white" fill-opacity="0.2"/>
<path d="M564.871 796.303L551.728 781.898L560.743 772.018L572.298 784.681C575.475 788.164 579.229 789.748 582.546 786.112C585.864 782.477 584.346 778.442 581.169 774.959L569.614 762.296L578.629 752.415L590.184 765.079C593.361 768.561 597.043 770.225 600.36 766.589C603.678 762.953 602.232 758.839 599.055 755.356L587.5 742.693L596.515 732.812L609.658 747.217C616.663 754.894 618.546 766.127 609.892 775.613C605.132 780.829 599.865 782.487 595.245 780.901C596.691 786.123 594.891 792.054 590.564 796.796C581.909 806.281 571.66 804.217 564.655 796.54L564.871 796.303Z" fill="white" fill-opacity="0.2"/>
<path d="M497.158 761.134L460.4 720.848L469.416 710.968L481.764 724.502C482.557 721.576 483.998 718.73 486.306 716.2C494.167 707.584 502.9 708.461 510.988 717.325L524.059 731.651L514.972 741.61L502.912 728.393C500.096 725.306 496.054 724.196 493.313 727.199C490.428 730.361 491.008 734.633 494.113 738.036L506.173 751.254L497.158 761.134Z" fill="white" fill-opacity="0.2"/>
<path d="M524.06 731.651L560.818 771.937L551.803 781.817L539.454 768.283C538.662 771.209 537.22 774.056 534.912 776.585C527.051 785.201 518.318 784.324 510.23 775.46L497.159 761.134L506.246 751.175L518.306 764.392C521.122 767.479 525.164 768.589 527.905 765.586C530.79 762.424 530.21 758.152 527.105 754.749L515.045 741.531L524.06 731.651Z" fill="white" fill-opacity="0.2"/>
<path d="M533.003 721.85L496.245 681.564L505.26 671.684L517.609 685.218C518.401 682.292 519.843 679.445 522.151 676.916C530.012 668.3 538.745 669.177 546.833 678.041L559.904 692.367L550.817 702.326L538.757 689.109C535.94 686.022 531.898 684.912 529.158 687.915C526.273 691.077 526.853 695.349 529.958 698.752L542.018 711.97L533.003 721.85Z" fill="white" fill-opacity="0.2"/>
<path d="M559.905 692.368L596.662 732.654L587.647 742.534L575.298 729C574.506 731.926 573.065 734.772 570.757 737.302C562.896 745.918 554.163 745.041 546.074 736.177L533.003 721.851L542.091 711.892L554.151 725.109C556.967 728.196 561.009 729.306 563.75 726.303C566.635 723.141 566.055 718.869 562.949 715.466L550.889 702.248L559.905 692.368Z" fill="white" fill-opacity="0.2"/>
<path d="M500.991 774.981L514.134 789.385L505.119 799.266L493.564 786.602C490.387 783.12 486.633 781.535 483.315 785.171C479.998 788.807 481.516 792.842 484.693 796.325L496.248 808.988L487.233 818.869L475.678 806.205C472.501 802.723 468.819 801.059 465.501 804.695C462.184 808.331 463.63 812.445 466.807 815.927L478.362 828.591L469.347 838.471L456.203 824.067C449.198 816.389 447.315 805.156 455.97 795.671C460.73 790.454 465.997 788.797 470.617 790.382C469.17 785.161 470.971 779.23 475.298 774.488C483.953 765.002 494.202 767.066 501.207 774.743L500.991 774.981Z" fill="white" fill-opacity="0.2"/>
<path d="M573.675 914.083L560.531 899.679L569.546 889.798L581.101 902.462C584.278 905.944 588.032 907.529 591.35 903.893C594.667 900.257 593.149 896.222 589.972 892.739L578.417 880.076L587.432 870.195L598.987 882.859C602.164 886.341 605.846 888.005 609.164 884.369C612.481 880.733 611.035 876.619 607.858 873.137L596.303 860.473L605.318 850.593L618.462 864.997C625.467 872.675 627.35 883.908 618.695 893.393C613.935 898.61 608.668 900.267 604.048 898.682C605.495 903.903 603.694 909.834 599.367 914.576C590.712 924.062 580.463 921.998 573.458 914.32L573.675 914.083Z" fill="white" fill-opacity="0.2"/>
<path d="M505.962 878.915L469.204 838.63L478.219 828.749L490.568 842.283C491.36 839.357 492.802 836.511 495.11 833.982C502.971 825.366 511.704 826.242 519.792 835.107L532.863 849.432L523.776 859.392L511.716 846.174C508.899 843.087 504.857 841.977 502.117 844.981C499.232 848.143 499.812 852.414 502.917 855.817L514.977 869.035L505.962 878.915Z" fill="white" fill-opacity="0.2"/>
<path d="M532.862 849.432L569.62 889.717L560.605 899.598L548.256 886.064C547.464 888.99 546.022 891.836 543.714 894.365C535.853 902.981 527.12 902.105 519.032 893.24L505.961 878.915L515.048 868.955L527.108 882.173C529.925 885.26 533.967 886.37 536.707 883.366C539.592 880.204 539.012 875.933 535.907 872.53L523.847 859.312L532.862 849.432Z" fill="white" fill-opacity="0.2"/>
<path d="M541.807 839.628L505.049 799.342L514.064 789.462L526.413 802.996C527.205 800.07 528.647 797.224 530.955 794.694C538.816 786.078 547.549 786.955 555.637 795.819L568.708 810.145L559.621 820.104L547.561 806.887C544.745 803.8 540.702 802.69 537.962 805.693C535.077 808.855 535.657 813.127 538.762 816.53L550.822 829.748L541.807 839.628Z" fill="white" fill-opacity="0.2"/>
<path d="M568.709 810.143L605.467 850.429L596.451 860.31L584.103 846.776C583.31 849.702 581.869 852.548 579.561 855.077C571.7 863.693 562.967 862.817 554.879 853.952L541.808 839.627L550.895 829.667L562.955 842.885C565.771 845.971 569.813 847.082 572.554 844.078C575.439 840.916 574.859 836.645 571.754 833.241L559.694 820.024L568.709 810.143Z" fill="white" fill-opacity="0.2"/>
<path d="M623.337 544.851L636.48 559.256L627.465 569.136L615.91 556.472C612.733 552.99 608.979 551.405 605.662 555.041C602.344 558.677 603.862 562.712 607.039 566.195L618.594 578.858L609.579 588.739L598.024 576.075C594.847 572.593 591.165 570.929 587.848 574.565C584.53 578.201 585.976 582.315 589.153 585.797L600.708 598.461L591.693 608.341L578.55 593.937C571.545 586.259 569.662 575.026 578.316 565.541C583.076 560.324 588.343 558.667 592.963 560.252C591.517 555.031 593.317 549.1 597.644 544.358C606.299 534.872 616.548 536.936 623.553 544.614L623.337 544.851Z" fill="white" fill-opacity="0.2"/>
<path d="M695.949 683.875L682.806 669.471L691.821 659.59L703.375 672.254C706.553 675.736 710.307 677.321 713.624 673.685C716.942 670.049 715.424 666.014 712.246 662.531L700.692 649.868L709.707 639.987L721.261 652.651C724.439 656.134 728.12 657.797 731.438 654.161C734.756 650.525 733.31 646.411 730.132 642.929L718.578 630.265L727.593 620.385L740.736 634.79C747.741 642.467 749.624 653.7 740.97 663.185C736.21 668.402 730.942 670.059 726.323 668.474C727.769 673.695 725.968 679.626 721.641 684.369C712.987 693.854 702.738 691.79 695.733 684.113L695.949 683.875Z" fill="white" fill-opacity="0.2"/>
<path d="M628.307 648.788L591.549 608.502L600.564 598.621L612.913 612.155C613.705 609.229 615.147 606.383 617.454 603.854C625.316 595.238 634.049 596.114 642.137 604.979L655.208 619.304L646.121 629.264L634.061 616.046C631.244 612.96 627.202 611.849 624.461 614.853C621.577 618.015 622.156 622.286 625.262 625.69L637.322 638.907L628.307 648.788Z" fill="white" fill-opacity="0.2"/>
<path d="M655.207 619.305L691.965 659.591L682.95 669.471L670.601 655.937C669.809 658.863 668.367 661.709 666.059 664.238C658.198 672.854 649.465 671.978 641.377 663.113L628.306 648.788L637.393 638.828L649.453 652.046C652.27 655.133 656.312 656.243 659.053 653.239C661.937 650.077 661.357 645.806 658.252 642.403L646.192 629.185L655.207 619.305Z" fill="white" fill-opacity="0.2"/>
<path d="M664.153 609.499L627.395 569.214L636.41 559.333L648.759 572.867C649.551 569.941 650.993 567.095 653.301 564.566C661.162 555.95 669.895 556.826 677.983 565.691L691.054 580.016L681.967 589.976L669.907 576.758C667.09 573.671 663.048 572.561 660.308 575.565C657.423 578.727 658.003 582.998 661.108 586.401L673.168 599.619L664.153 609.499Z" fill="white" fill-opacity="0.2"/>
<path d="M691.054 580.017L727.812 620.303L718.797 630.184L706.448 616.65C705.656 619.576 704.214 622.422 701.906 624.951C694.045 633.567 685.312 632.691 677.224 623.826L664.153 609.501L673.24 599.541L685.3 612.759C688.117 615.845 692.159 616.956 694.899 613.952C697.784 610.79 697.204 606.519 694.099 603.115L682.039 589.898L691.054 580.017Z" fill="white" fill-opacity="0.2"/>
<path d="M631.636 662.073L644.779 676.477L635.764 686.358L624.209 673.694C621.032 670.212 617.278 668.627 613.96 672.263C610.643 675.899 612.161 679.934 615.338 683.417L626.893 696.08L617.878 705.96L606.323 693.297C603.146 689.814 599.464 688.151 596.147 691.787C592.829 695.423 594.275 699.537 597.452 703.019L609.007 715.683L599.992 725.563L586.848 711.158C579.843 703.481 577.96 692.248 586.615 682.763C591.375 677.546 596.642 675.889 601.262 677.474C599.815 672.253 601.616 666.322 605.943 661.579C614.598 652.094 624.847 654.158 631.852 661.835L631.636 662.073Z" fill="white" fill-opacity="0.2"/>
<path d="M704.32 801.175L691.177 786.77L700.192 776.89L711.746 789.554C714.924 793.036 718.678 794.621 721.995 790.985C725.313 787.349 723.795 783.314 720.617 779.831L709.063 767.168L718.078 757.287L729.632 769.951C732.81 773.433 736.492 775.097 739.809 771.461C743.127 767.825 741.681 763.711 738.503 760.229L726.949 747.565L735.964 737.685L749.107 752.089C756.112 759.767 757.995 771 749.341 780.485C744.581 785.702 739.313 787.359 734.694 785.774C736.14 790.995 734.34 796.926 730.012 801.668C721.358 811.154 711.109 809.09 704.104 801.412L704.32 801.175Z" fill="white" fill-opacity="0.2"/>
<path d="M636.606 766.008L599.849 725.722L608.864 715.842L621.213 729.376C622.005 726.45 623.446 723.604 625.754 721.074C633.615 712.459 642.348 713.335 650.437 722.199L663.508 736.525L654.42 746.485L642.36 733.267C639.544 730.18 635.502 729.07 632.761 732.074C629.876 735.235 630.456 739.507 633.562 742.91L645.622 756.128L636.606 766.008Z" fill="white" fill-opacity="0.2"/>
<path d="M663.508 736.524L700.265 776.81L691.25 786.691L678.901 773.157C678.109 776.083 676.668 778.929 674.36 781.458C666.499 790.074 657.766 789.198 649.678 780.333L636.606 766.008L645.694 756.048L657.754 769.266C660.57 772.352 664.612 773.463 667.353 770.459C670.238 767.297 669.658 763.026 666.552 759.622L654.492 746.405L663.508 736.524Z" fill="white" fill-opacity="0.2"/>
<path d="M672.453 726.722L635.695 686.436L644.71 676.556L657.059 690.09C657.851 687.164 659.293 684.318 661.6 681.788C669.462 673.173 678.195 674.049 686.283 682.913L699.354 697.239L690.267 707.199L678.207 693.981C675.39 690.894 671.348 689.784 668.607 692.788C665.723 695.949 666.302 700.221 669.408 703.624L681.468 716.842L672.453 726.722Z" fill="white" fill-opacity="0.2"/>
<path d="M699.353 697.238L736.111 737.524L727.096 747.405L714.747 733.87C713.955 736.796 712.513 739.643 710.205 742.172C702.344 750.788 693.611 749.912 685.523 741.047L672.452 726.721L681.539 716.762L693.599 729.98C696.416 733.066 700.458 734.177 703.199 731.173C706.083 728.011 705.503 723.74 702.398 720.336L690.338 707.119L699.353 697.238Z" fill="white" fill-opacity="0.2"/>
<path d="M764.72 552.624L777.863 567.029L768.848 576.909L757.294 564.246C754.116 560.763 750.362 559.179 747.045 562.815C743.727 566.451 745.245 570.486 748.423 573.968L759.977 586.632L750.962 596.512L739.408 583.849C736.23 580.366 732.549 578.703 729.231 582.339C725.913 585.975 727.359 590.089 730.537 593.571L742.091 606.235L733.076 616.115L719.933 601.71C712.928 594.033 711.045 582.8 719.699 573.315C724.459 568.098 729.727 566.441 734.346 568.026C732.9 562.805 734.701 556.874 739.028 552.131C747.682 542.646 757.931 544.71 764.936 552.387L764.72 552.624Z" fill="white" fill-opacity="0.2"/>
<path d="M837.404 691.727L824.26 677.322L833.275 667.442L844.83 680.105C848.007 683.588 851.761 685.172 855.079 681.536C858.396 677.9 856.878 673.866 853.701 670.383L842.146 657.719L851.161 647.839L862.716 660.503C865.893 663.985 869.575 665.649 872.893 662.013C876.21 658.377 874.764 654.263 871.587 650.78L860.032 638.117L869.047 628.236L882.191 642.641C889.196 650.318 891.079 661.551 882.424 671.036C877.664 676.253 872.397 677.911 867.777 676.325C869.224 681.547 867.423 687.477 863.096 692.22C854.441 701.705 844.192 699.641 837.187 691.964L837.404 691.727Z" fill="white" fill-opacity="0.2"/>
<path d="M769.69 656.559L732.932 616.273L741.947 606.393L754.296 619.927C755.088 617.001 756.53 614.154 758.838 611.625C766.699 603.009 775.432 603.886 783.52 612.75L796.591 627.076L787.504 637.035L775.444 623.818C772.627 620.731 768.585 619.621 765.845 622.624C762.96 625.786 763.54 630.058 766.645 633.461L778.705 646.678L769.69 656.559Z" fill="white" fill-opacity="0.2"/>
<path d="M796.591 627.076L833.349 667.362L824.334 677.242L811.985 663.708C811.193 666.634 809.751 669.48 807.443 672.01C799.582 680.626 790.849 679.749 782.761 670.885L769.69 656.559L778.777 646.6L790.837 659.817C793.654 662.904 797.696 664.014 800.436 661.011C803.321 657.849 802.741 653.577 799.636 650.174L787.576 636.956L796.591 627.076Z" fill="white" fill-opacity="0.2"/>
<path d="M805.536 617.274L768.778 576.988L777.793 567.107L790.142 580.642C790.934 577.716 792.376 574.869 794.684 572.34C802.545 563.724 811.278 564.6 819.366 573.465L832.437 587.791L823.35 597.75L811.29 584.532C808.474 581.446 804.431 580.335 801.691 583.339C798.806 586.501 799.386 590.772 802.491 594.176L814.551 607.393L805.536 617.274Z" fill="white" fill-opacity="0.2"/>
<path d="M832.438 587.79L869.196 628.076L860.18 637.956L847.832 624.422C847.039 627.348 845.598 630.194 843.29 632.724C835.429 641.339 826.696 640.463 818.608 631.599L805.537 617.273L814.624 607.313L826.684 620.531C829.5 623.618 833.542 624.728 836.283 621.724C839.168 618.563 838.588 614.291 835.483 610.888L823.423 597.67L832.438 587.79Z" fill="white" fill-opacity="0.2"/>
<path d="M773.09 669.93L786.233 684.335L777.218 694.215L765.664 681.551C762.486 678.069 758.733 676.484 755.415 680.12C752.097 683.756 753.615 687.791 756.793 691.274L768.347 703.937L759.332 713.818L747.778 701.154C744.6 697.672 740.919 696.008 737.601 699.644C734.284 703.28 735.729 707.394 738.907 710.877L750.461 723.54L741.446 733.421L728.303 719.016C721.298 711.338 719.415 700.106 728.069 690.62C732.829 685.403 738.097 683.746 742.716 685.332C741.27 680.11 743.071 674.179 747.398 669.437C756.052 659.952 766.302 662.015 773.306 669.693L773.09 669.93Z" fill="white" fill-opacity="0.2"/>
<path d="M845.702 808.955L832.559 794.55L841.574 784.669L853.128 797.333C856.306 800.815 860.06 802.4 863.377 798.764C866.695 795.128 865.177 791.093 861.999 787.611L850.445 774.947L859.46 765.067L871.014 777.73C874.192 781.213 877.873 782.876 881.191 779.24C884.508 775.604 883.063 771.49 879.885 768.008L868.331 755.344L877.346 745.464L890.489 759.869C897.494 767.546 899.377 778.779 890.723 788.264C885.963 793.481 880.695 795.138 876.076 793.553C877.522 798.774 875.721 804.705 871.394 809.448C862.74 818.933 852.49 816.869 845.486 809.192L845.702 808.955Z" fill="white" fill-opacity="0.2"/>
<path d="M777.989 773.786L741.231 733.5L750.247 723.619L762.595 737.154C763.388 734.228 764.829 731.381 767.137 728.852C774.998 720.236 783.731 721.113 791.819 729.977L804.89 744.303L795.803 754.262L783.743 741.045C780.927 737.958 776.885 736.848 774.144 739.851C771.259 743.013 771.839 747.284 774.944 750.688L787.004 763.905L777.989 773.786Z" fill="white" fill-opacity="0.2"/>
<path d="M804.891 744.303L841.649 784.589L832.634 794.469L820.285 780.935C819.493 783.861 818.051 786.707 815.743 789.237C807.882 797.853 799.149 796.976 791.061 788.112L777.99 773.786L787.077 763.827L799.137 777.044C801.953 780.131 805.996 781.241 808.736 778.237C811.621 775.076 811.041 770.804 807.936 767.401L795.876 754.183L804.891 744.303Z" fill="white" fill-opacity="0.2"/>
<path d="M813.835 734.5L777.077 694.214L786.092 684.333L798.441 697.867C799.233 694.941 800.674 692.095 802.982 689.566C810.843 680.95 819.576 681.826 827.665 690.691L840.736 705.016L831.648 714.976L819.588 701.758C816.772 698.672 812.73 697.561 809.989 700.565C807.104 703.727 807.684 707.998 810.79 711.402L822.85 724.619L813.835 734.5Z" fill="white" fill-opacity="0.2"/>
<path d="M840.736 705.018L877.493 745.304L868.478 755.184L856.129 741.65C855.337 744.576 853.896 747.422 851.588 749.951C843.727 758.567 834.994 757.691 826.906 748.826L813.834 734.501L822.922 724.541L834.982 737.759C837.798 740.846 841.84 741.956 844.581 738.952C847.466 735.79 846.886 731.519 843.781 728.116L831.72 714.898L840.736 705.018Z" fill="white" fill-opacity="0.2"/>
<path d="M640.441 779.854L653.584 794.258L644.569 804.139L633.014 791.475C629.837 787.993 626.083 786.408 622.766 790.044C619.448 793.68 620.966 797.715 624.143 801.198L635.698 813.861L626.683 823.742L615.128 811.078C611.951 807.596 608.269 805.932 604.952 809.568C601.634 813.204 603.08 817.318 606.257 820.8L617.812 833.464L608.797 843.344L595.654 828.94C588.649 821.262 586.766 810.029 595.42 800.544C600.18 795.327 605.447 793.67 610.067 795.255C608.621 790.034 610.421 784.103 614.748 779.361C623.403 769.875 633.652 771.939 640.657 779.617L640.441 779.854Z" fill="white" fill-opacity="0.2"/>
<path d="M713.125 918.956L699.982 904.552L708.997 894.671L720.551 907.335C723.729 910.817 727.482 912.402 730.8 908.766C734.117 905.13 732.6 901.095 729.422 897.613L717.867 884.949L726.883 875.069L738.437 887.732C741.615 891.215 745.296 892.878 748.614 889.242C751.931 885.606 750.486 881.492 747.308 878.01L735.753 865.346L744.769 855.466L757.912 869.871C764.917 877.548 766.8 888.781 758.145 898.266C753.385 903.483 748.118 905.14 743.498 903.555C744.945 908.776 743.144 914.707 738.817 919.45C730.163 928.935 719.913 926.871 712.908 919.194L713.125 918.956Z" fill="white" fill-opacity="0.2"/>
<path d="M645.411 883.789L608.653 843.503L617.668 833.622L630.017 847.156C630.809 844.23 632.251 841.384 634.558 838.855C642.42 830.239 651.153 831.115 659.241 839.98L672.312 854.305L663.225 864.265L651.165 851.047C648.348 847.96 644.306 846.85 641.565 849.854C638.681 853.016 639.26 857.287 642.366 860.691L654.426 873.908L645.411 883.789Z" fill="white" fill-opacity="0.2"/>
<path d="M672.312 854.306L709.07 894.592L700.054 904.472L687.706 890.938C686.913 893.864 685.472 896.71 683.164 899.239C675.303 907.855 666.57 906.979 658.482 898.114L645.411 883.789L654.498 873.829L666.558 887.047C669.374 890.134 673.416 891.244 676.157 888.24C679.042 885.078 678.462 880.807 675.357 877.404L663.297 864.186L672.312 854.306Z" fill="white" fill-opacity="0.2"/>
<path d="M681.257 844.502L644.499 804.216L653.514 794.335L665.863 807.869C666.655 804.943 668.097 802.097 670.405 799.568C678.266 790.952 686.999 791.828 695.087 800.693L708.158 815.018L699.071 824.978L687.011 811.76C684.194 808.674 680.152 807.563 677.412 810.567C674.527 813.729 675.107 818 678.212 821.404L690.272 834.621L681.257 844.502Z" fill="white" fill-opacity="0.2"/>
<path d="M708.158 815.018L744.916 855.304L735.901 865.185L723.552 851.651C722.76 854.577 721.318 857.423 719.01 859.952C711.149 868.568 702.416 867.692 694.328 858.827L681.257 844.502L690.344 834.542L702.404 847.76C705.221 850.846 709.263 851.957 712.003 848.953C714.888 845.791 714.308 841.52 711.203 838.116L699.143 824.899L708.158 815.018Z" fill="white" fill-opacity="0.2"/>
<path d="M781.895 787.703L795.038 802.108L786.023 811.989L774.468 799.325C771.291 795.843 767.537 794.258 764.22 797.894C760.902 801.53 762.42 805.565 765.598 809.047L777.152 821.711L768.137 831.591L756.582 818.928C753.405 815.445 749.723 813.782 746.406 817.418C743.088 821.054 744.534 825.168 747.712 828.65L759.266 841.314L750.251 851.194L737.108 836.789C730.103 829.112 728.22 817.879 736.874 808.394C741.634 803.177 746.901 801.52 751.521 803.105C750.075 797.884 751.875 791.953 756.203 787.21C764.857 777.725 775.106 779.789 782.111 787.466L781.895 787.703Z" fill="white" fill-opacity="0.2"/>
<path d="M854.578 926.808L841.435 912.403L850.45 902.523L862.005 915.186C865.182 918.669 868.936 920.253 872.254 916.617C875.571 912.981 874.053 908.947 870.876 905.464L859.321 892.801L868.336 882.92L879.891 895.584C883.068 899.066 886.75 900.73 890.067 897.094C893.385 893.458 891.939 889.344 888.762 885.861L877.207 873.198L886.222 863.317L899.365 877.722C906.37 885.399 908.254 896.632 899.599 906.118C894.839 911.334 889.572 912.992 884.952 911.406C886.399 916.628 884.598 922.559 880.271 927.301C871.616 936.786 861.367 934.722 854.362 927.045L854.578 926.808Z" fill="white" fill-opacity="0.2"/>
<path d="M786.865 891.639L750.107 851.353L759.123 841.473L771.471 855.007C772.264 852.081 773.705 849.235 776.013 846.705C783.874 838.089 792.607 838.966 800.695 847.83L813.766 862.156L804.679 872.115L792.619 858.898C789.803 855.811 785.761 854.701 783.02 857.704C780.135 860.866 780.715 865.138 783.82 868.541L795.88 881.759L786.865 891.639Z" fill="white" fill-opacity="0.2"/>
<path d="M813.767 862.156L850.525 902.442L841.51 912.323L829.161 898.789C828.369 901.714 826.927 904.561 824.619 907.09C816.758 915.706 808.025 914.83 799.937 905.965L786.866 891.64L795.953 881.68L808.013 894.898C810.829 897.984 814.872 899.095 817.612 896.091C820.497 892.929 819.917 888.658 816.812 885.254L804.752 872.037L813.767 862.156Z" fill="white" fill-opacity="0.2"/>
<path d="M822.711 852.353L785.954 812.067L794.969 802.187L807.318 815.721C808.11 812.795 809.551 809.949 811.859 807.419C819.72 798.803 828.453 799.68 836.541 808.544L849.613 822.87L840.525 832.829L828.465 819.612C825.649 816.525 821.607 815.415 818.866 818.418C815.981 821.58 816.561 825.852 819.667 829.255L831.727 842.473L822.711 852.353Z" fill="white" fill-opacity="0.2"/>
<path d="M849.612 822.871L886.37 863.157L877.355 873.037L865.006 859.503C864.214 862.429 862.772 865.276 860.464 867.805C852.603 876.421 843.87 875.544 835.782 866.68L822.711 852.354L831.798 842.395L843.858 855.612C846.675 858.699 850.717 859.809 853.457 856.806C856.342 853.644 855.762 849.372 852.657 845.969L840.597 832.751L849.612 822.871Z" fill="white" fill-opacity="0.2"/>
<path d="M905.743 560.002L918.887 574.407L909.872 584.287L898.317 571.624C895.14 568.141 891.386 566.557 888.068 570.193C884.751 573.829 886.269 577.864 889.446 581.346L901.001 594.01L891.986 603.89L880.431 591.227C877.254 587.744 873.572 586.08 870.254 589.716C866.937 593.352 868.383 597.466 871.56 600.949L883.115 613.612L874.1 623.493L860.956 609.088C853.951 601.411 852.068 590.178 860.723 580.693C865.483 575.476 870.75 573.819 875.37 575.404C873.923 570.183 875.724 564.252 880.051 559.509C888.706 550.024 898.955 552.088 905.96 559.765L905.743 560.002Z" fill="white" fill-opacity="0.2"/>
<path d="M978.428 699.105L965.284 684.7L974.299 674.82L985.854 687.483C989.031 690.966 992.785 692.55 996.103 688.914C999.42 685.278 997.902 681.243 994.725 677.761L983.17 665.097L992.185 655.217L1003.74 667.881C1006.92 671.363 1010.6 673.027 1013.92 669.391C1017.23 665.755 1015.79 661.641 1012.61 658.158L1001.06 645.495L1010.07 635.614L1023.21 650.019C1030.22 657.696 1032.1 668.929 1023.45 678.414C1018.69 683.631 1013.42 685.289 1008.8 683.703C1010.25 688.925 1008.45 694.855 1004.12 699.598C995.465 709.083 985.216 707.019 978.211 699.342L978.428 699.105Z" fill="white" fill-opacity="0.2"/>
<path d="M910.714 663.936L873.957 623.65L882.972 613.769L895.321 627.304C896.113 624.378 897.554 621.531 899.862 619.002C907.723 610.386 916.456 611.263 924.544 620.127L937.615 634.453L928.528 644.412L916.468 631.195C913.652 628.108 909.61 626.998 906.869 630.001C903.984 633.163 904.564 637.435 907.669 640.838L919.73 654.055L910.714 663.936Z" fill="white" fill-opacity="0.2"/>
<path d="M937.615 634.453L974.373 674.739L965.358 684.62L953.009 671.085C952.217 674.011 950.776 676.858 948.468 679.387C940.606 688.003 931.874 687.126 923.785 678.262L910.714 663.936L919.802 653.977L931.862 667.194C934.678 670.281 938.72 671.391 941.461 668.388C944.346 665.226 943.766 660.954 940.66 657.551L928.6 644.334L937.615 634.453Z" fill="white" fill-opacity="0.2"/>
<path d="M946.56 624.65L909.802 584.364L918.817 574.483L931.166 588.018C931.958 585.092 933.4 582.245 935.707 579.716C943.569 571.1 952.301 571.977 960.39 580.841L973.461 595.167L964.373 605.126L952.313 591.909C949.497 588.822 945.455 587.712 942.714 590.715C939.83 593.877 940.409 598.149 943.515 601.552L955.575 614.769L946.56 624.65Z" fill="white" fill-opacity="0.2"/>
<path d="M973.461 595.167L1010.22 635.453L1001.2 645.333L988.855 631.799C988.062 634.725 986.621 637.572 984.313 640.101C976.452 648.717 967.719 647.84 959.631 638.976L946.56 624.65L955.647 614.691L967.707 627.908C970.523 630.995 974.565 632.105 977.306 629.102C980.191 625.94 979.611 621.668 976.506 618.265L964.446 605.047L973.461 595.167Z" fill="white" fill-opacity="0.2"/>
<path d="M914.112 677.305L927.255 691.71L918.24 701.59L906.686 688.927C903.508 685.444 899.755 683.86 896.437 687.496C893.119 691.131 894.637 695.166 897.815 698.649L909.369 711.313L900.354 721.193L888.8 708.529C885.622 705.047 881.941 703.383 878.623 707.019C875.305 710.655 876.751 714.769 879.929 718.252L891.483 730.915L882.468 740.796L869.325 726.391C862.32 718.714 860.437 707.481 869.091 697.995C873.851 692.779 879.119 691.121 883.738 692.707C882.292 687.485 884.093 681.554 888.42 676.812C897.074 667.327 907.324 669.391 914.328 677.068L914.112 677.305Z" fill="white" fill-opacity="0.2"/>
<path d="M986.796 816.41L973.652 802.005L982.668 792.124L994.222 804.788C997.4 808.27 1001.15 809.855 1004.47 806.219C1007.79 802.583 1006.27 798.548 1003.09 795.066L991.538 782.402L1000.55 772.522L1012.11 785.185C1015.29 788.668 1018.97 790.331 1022.28 786.695C1025.6 783.059 1024.16 778.945 1020.98 775.463L1009.42 762.799L1018.44 752.919L1031.58 767.324C1038.59 775.001 1040.47 786.234 1031.82 795.719C1027.06 800.936 1021.79 802.593 1017.17 801.008C1018.62 806.229 1016.82 812.16 1012.49 816.903C1003.83 826.388 993.584 824.324 986.579 816.647L986.796 816.41Z" fill="white" fill-opacity="0.2"/>
<path d="M919.083 781.24L882.325 740.954L891.34 731.073L903.689 744.607C904.481 741.682 905.922 738.835 908.23 736.306C916.092 727.69 924.824 728.566 932.913 737.431L945.984 751.757L936.896 761.716L924.836 748.498C922.02 745.412 917.978 744.301 915.237 747.305C912.352 750.467 912.932 754.738 916.038 758.142L928.098 771.359L919.083 781.24Z" fill="white" fill-opacity="0.2"/>
<path d="M945.984 751.756L982.742 792.042L973.727 801.922L961.378 788.388C960.586 791.314 959.144 794.161 956.836 796.69C948.975 805.306 940.242 804.429 932.154 795.565L919.083 781.239L928.17 771.28L940.23 784.497C943.047 787.584 947.089 788.694 949.829 785.691C952.714 782.529 952.134 778.257 949.029 774.854L936.969 761.637L945.984 751.756Z" fill="white" fill-opacity="0.2"/>
<path d="M954.927 741.956L918.169 701.67L927.185 691.789L939.533 705.323C940.326 702.397 941.767 699.551 944.075 697.022C951.936 688.406 960.669 689.282 968.757 698.147L981.828 712.472L972.741 722.432L960.681 709.214C957.865 706.127 953.823 705.017 951.082 708.021C948.197 711.183 948.777 715.454 951.882 718.857L963.942 732.075L954.927 741.956Z" fill="white" fill-opacity="0.2"/>
<path d="M981.829 712.474L1018.59 752.759L1009.57 762.64L997.223 749.106C996.431 752.032 994.989 754.878 992.681 757.407C984.82 766.023 976.087 765.147 967.999 756.282L954.928 741.957L964.015 731.997L976.075 745.215C978.891 748.302 982.934 749.412 985.674 746.408C988.559 743.246 987.979 738.975 984.874 735.572L972.814 722.354L981.829 712.474Z" fill="white" fill-opacity="0.2"/>
<path d="M922.914 795.084L936.058 809.489L927.042 819.369L915.488 806.706C912.31 803.223 908.557 801.639 905.239 805.275C901.922 808.911 903.44 812.946 906.617 816.428L918.172 829.092L909.156 838.972L897.602 826.309C894.424 822.826 890.743 821.162 887.425 824.798C884.108 828.434 885.554 832.549 888.731 836.031L900.286 848.695L891.27 858.575L878.127 844.17C871.122 836.493 869.239 825.26 877.894 815.775C882.654 810.558 887.921 808.901 892.541 810.486C891.094 805.265 892.895 799.334 897.222 794.591C905.877 785.106 916.126 787.17 923.131 794.847L922.914 795.084Z" fill="white" fill-opacity="0.2"/>
<path d="M995.598 934.189L982.455 919.784L991.47 909.904L1003.02 922.567C1006.2 926.05 1009.96 927.634 1013.27 923.998C1016.59 920.362 1015.07 916.327 1011.9 912.845L1000.34 900.181L1009.36 890.301L1020.91 902.965C1024.09 906.447 1027.77 908.111 1031.09 904.475C1034.4 900.839 1032.96 896.725 1029.78 893.242L1018.23 880.579L1027.24 870.698L1040.39 885.103C1047.39 892.78 1049.27 904.013 1040.62 913.498C1035.86 918.715 1030.59 920.372 1025.97 918.787C1027.42 924.009 1025.62 929.939 1021.29 934.682C1012.64 944.167 1002.39 942.103 995.382 934.426L995.598 934.189Z" fill="white" fill-opacity="0.2"/>
<path d="M927.885 899.02L891.127 858.734L900.143 848.853L912.491 862.388C913.284 859.462 914.725 856.615 917.033 854.086C924.894 845.47 933.627 846.347 941.715 855.211L954.786 869.537L945.699 879.496L933.639 866.279C930.823 863.192 926.781 862.082 924.04 865.085C921.155 868.247 921.735 872.518 924.84 875.922L936.9 889.139L927.885 899.02Z" fill="white" fill-opacity="0.2"/>
<path d="M954.786 869.536L991.544 909.822L982.529 919.703L970.18 906.169C969.388 909.095 967.946 911.941 965.638 914.47C957.777 923.086 949.044 922.21 940.956 913.345L927.885 899.02L936.972 889.06L949.032 902.278C951.848 905.364 955.891 906.475 958.631 903.471C961.516 900.309 960.936 896.038 957.831 892.634L945.771 879.417L954.786 869.536Z" fill="white" fill-opacity="0.2"/>
<path d="M963.731 859.734L926.973 819.448L935.988 809.567L948.337 823.102C949.129 820.176 950.571 817.329 952.879 814.8C960.74 806.184 969.473 807.061 977.561 815.925L990.632 830.251L981.545 840.21L969.485 826.993C966.668 823.906 962.626 822.796 959.886 825.799C957.001 828.961 957.581 833.232 960.686 836.636L972.746 849.853L963.731 859.734Z" fill="white" fill-opacity="0.2"/>
<path d="M990.633 830.249L1027.39 870.535L1018.38 880.415L1006.03 866.881C1005.23 869.807 1003.79 872.653 1001.48 875.183C993.624 883.798 984.891 882.922 976.803 874.057L963.731 859.732L972.819 849.772L984.879 862.99C987.695 866.077 991.737 867.187 994.478 864.183C997.363 861.022 996.783 856.75 993.677 853.347L981.617 840.129L990.633 830.249Z" fill="white" fill-opacity="0.2"/>
</svg>
